Audiowide Mono-275.ufo
<glyph name="quotedbl" format="2">
	<advance width="750"/>
	<unicode hex="0022"/>
	<note>
		quotedbl
  </note>
	<outline>
		<contour>
			<point x="325" y="435" type="line"/>
			<point x="345" y="687" type="line"/>
			<point x="223" y="687" type="line"/>
			<point x="242" y="435" type="line"/>
		</contour>
		<contour>
			<point x="499" y="435" type="line"/>
			<point x="520" y="687" type="line"/>
			<point x="397" y="687" type="line"/>
			<point x="416" y="435" type="line"/>
		</contour>
	</outline>
</glyph>
<glyph name="numbersign" format="2">
	<advance width="750"/>
	<unicode hex="0023"/>
	<note>
		numbersign
  </note>
	<outline>
		<contour>
			<point x="120" y="522" type="line"/>
			<point x="92" y="405" type="line"/>
			<point x="201" y="405" type="line"/>
			<point x="175" y="284" type="line"/>
			<point x="63" y="284" type="line"/>
			<point x="36" y="167" type="line"/>
			<point x="149" y="167" type="line"/>
			<point x="112" y="0" type="line"/>
			<point x="234" y="0" type="line"/>
			<point x="271" y="167" type="line"/>
			<point x="396" y="167" type="line"/>
			<point x="359" y="0" type="line"/>
			<point x="481" y="0" type="line"/>
			<point x="518" y="167" type="line"/>
			<point x="628" y="167" type="line"/>
			<point x="654" y="284" type="line"/>
			<point x="544" y="284" type="line"/>
			<point x="570" y="405" type="line"/>
			<point x="684" y="405" type="line"/>
			<point x="711" y="522" type="line"/>
			<point x="596" y="522" type="line"/>
			<point x="632" y="687" type="line"/>
			<point x="511" y="687" type="line"/>
			<point x="474" y="522" type="line"/>
			<point x="349" y="522" type="line"/>
			<point x="385" y="687" type="line"/>
			<point x="264" y="687" type="line"/>
			<point x="227" y="522" type="line"/>
		</contour>
		<contour>
			<point x="296" y="284" type="line"/>
			<point x="323" y="405" type="line"/>
			<point x="448" y="405" type="line"/>
			<point x="421" y="284" type="line"/>
		</contour>
	</outline>
</glyph>
<glyph name="quotesingle" format="2">
	<advance width="750"/>
	<unicode hex="0027"/>
	<note>
		quotesingle
  </note>
	<outline>
		<contour>
			<point x="365" y="435" type="line"/>
			<point x="385" y="687" type="line"/>
			<point x="263" y="687" type="line"/>
			<point x="282" y="435" type="line"/>
		</contour>
	</outline>
</glyph>
<glyph name="parenleft" format="2">
	<advance width="750"/>
	<unicode hex="0028"/>
	<note>
		parenleft
  </note>
	<outline>
		<contour>
			<point x="600" y="828" type="line"/>
			<point x="420" y="828" type="line"/>
			<point x="380" y="777" type="line" smooth="yes"/>
			<point x="357" y="748"/>
			<point x="333" y="712" type="qcurve" smooth="yes"/>
			<point x="310" y="676"/>
			<point x="288" y="635" type="qcurve" smooth="yes"/>
			<point x="265" y="593"/>
			<point x="248" y="548" type="qcurve" smooth="yes"/>
			<point x="230" y="503"/>
			<point x="219" y="455" type="qcurve" smooth="yes"/>
			<point x="208" y="408"/>
			<point x="208" y="359" type="qcurve" smooth="yes"/>
			<point x="208" y="309"/>
			<point x="219" y="262" type="qcurve" smooth="yes"/>
			<point x="230" y="214"/>
			<point x="248" y="168" type="qcurve" smooth="yes"/>
			<point x="265" y="124"/>
			<point x="288" y="82" type="qcurve" smooth="yes"/>
			<point x="310" y="41"/>
			<point x="333" y="5" type="qcurve" smooth="yes"/>
			<point x="357" y="-31"/>
			<point x="380" y="-60" type="qcurve" smooth="yes"/>
			<point x="420" y="-111" type="line"/>
			<point x="600" y="-111" type="line"/>
			<point x="555" y="-64" type="line"/>
			<point x="538" y="-47" type="line" smooth="yes"/>
			<point x="497" y="0" type="line" smooth="yes"/>
			<point x="446" y="71" type="line" smooth="yes"/>
			<point x="418" y="112"/>
			<point x="394" y="158" type="qcurve" smooth="yes"/>
			<point x="370" y="205"/>
			<point x="354" y="256" type="qcurve" smooth="yes"/>
			<point x="339" y="307"/>
			<point x="339" y="359" type="qcurve" smooth="yes"/>
			<point x="339" y="409"/>
			<point x="354" y="461" type="qcurve" smooth="yes"/>
			<point x="370" y="512"/>
			<point x="394" y="559" type="qcurve" smooth="yes"/>
			<point x="418" y="605"/>
			<point x="446" y="646" type="qcurve" smooth="yes"/>
			<point x="473" y="687"/>
			<point x="497" y="716" type="qcurve" smooth="yes"/>
			<point x="521" y="747"/>
			<point x="538" y="764" type="qcurve" smooth="yes"/>
			<point x="555" y="781" type="line"/>
		</contour>
	</outline>
</glyph>
<glyph name="parenright" format="2">
	<advance width="750"/>
	<unicode hex="0029"/>
	<note>
		parenright
  </note>
	<outline>
		<contour>
			<point x="569" y="359" type="line"/>
			<point x="569" y="408"/>
			<point x="558" y="455" type="qcurve" smooth="yes"/>
			<point x="548" y="503"/>
			<point x="530" y="548" type="qcurve" smooth="yes"/>
			<point x="512" y="593"/>
			<point x="490" y="635" type="qcurve" smooth="yes"/>
			<point x="468" y="676"/>
			<point x="444" y="712" type="qcurve" smooth="yes"/>
			<point x="398" y="777" type="line" smooth="yes"/>
			<point x="357" y="828" type="line"/>
			<point x="177" y="828" type="line"/>
			<point x="223" y="781" type="line"/>
			<point x="240" y="764" type="line" smooth="yes"/>
			<point x="280" y="716" type="line" smooth="yes"/>
			<point x="304" y="687"/>
			<point x="331" y="646" type="qcurve" smooth="yes"/>
			<point x="359" y="605"/>
			<point x="383" y="559" type="qcurve" smooth="yes"/>
			<point x="407" y="512"/>
			<point x="422" y="461" type="qcurve" smooth="yes"/>
			<point x="438" y="409"/>
			<point x="438" y="359" type="qcurve" smooth="yes"/>
			<point x="438" y="308"/>
			<point x="422" y="256" type="qcurve" smooth="yes"/>
			<point x="407" y="205"/>
			<point x="383" y="158" type="qcurve" smooth="yes"/>
			<point x="359" y="112"/>
			<point x="331" y="71" type="qcurve" smooth="yes"/>
			<point x="280" y="0" type="line" smooth="yes"/>
			<point x="240" y="-47" type="line" smooth="yes"/>
			<point x="223" y="-64" type="line"/>
			<point x="177" y="-111" type="line"/>
			<point x="357" y="-111" type="line"/>
			<point x="398" y="-60" type="line" smooth="yes"/>
			<point x="444" y="5" type="line" smooth="yes"/>
			<point x="468" y="41"/>
			<point x="490" y="82" type="qcurve" smooth="yes"/>
			<point x="512" y="124"/>
			<point x="530" y="168" type="qcurve" smooth="yes"/>
			<point x="548" y="214"/>
			<point x="558" y="262" type="qcurve" smooth="yes"/>
			<point x="569" y="309"/>
			<point x="569" y="359" type="qcurve"/>
		</contour>
	</outline>
</glyph>
<glyph name="asterisk" format="2">
	<advance width="750"/>
	<unicode hex="002A"/>
	<note>
		asterisk
  </note>
	<outline>
		<contour>
			<point x="346" y="588" type="line"/>
			<point x="247" y="660" type="line"/>
			<point x="186" y="575" type="line"/>
			<point x="308" y="487" type="line"/>
			<point x="186" y="399" type="line"/>
			<point x="247" y="313" type="line"/>
			<point x="346" y="384" type="line"/>
			<point x="346" y="256" type="line"/>
			<point x="451" y="256" type="line"/>
			<point x="451" y="384" type="line"/>
			<point x="548" y="313" type="line"/>
			<point x="610" y="399" type="line"/>
			<point x="488" y="487" type="line"/>
			<point x="610" y="575" type="line"/>
			<point x="548" y="660" type="line"/>
			<point x="451" y="589" type="line"/>
			<point x="451" y="717" type="line"/>
			<point x="346" y="717" type="line"/>
		</contour>
	</outline>
</glyph>
<glyph name="plus" format="2">
	<advance width="750"/>
	<unicode hex="002B"/>
	<note>
		plus
  </note>
	<outline>
		<contour>
			<point x="617" y="300" type="line"/>
			<point x="617" y="417" type="line"/>
			<point x="148" y="417" type="line"/>
			<point x="148" y="300" type="line"/>
		</contour>
		<contour>
			<point x="441" y="593" type="line"/>
			<point x="324" y="593" type="line"/>
			<point x="324" y="124" type="line"/>
			<point x="441" y="124" type="line"/>
		</contour>
	</outline>
</glyph>
<glyph name="comma" format="2">
	<advance width="750"/>
	<unicode hex="002C"/>
	<note>
		comma
  </note>
	<outline>
		<contour>
			<point x="304" y="-112" type="line"/>
			<point x="392" y="160" type="line"/>
			<point x="244" y="160" type="line"/>
			<point x="188" y="-112" type="line"/>
		</contour>
	</outline>
</glyph>
<glyph name="hyphen" format="2">
	<advance width="750"/>
	<unicode hex="002D"/>
	<note>
		hyphen
  </note>
	<outline>
		<contour>
			<point x="782" y="300" type="line"/>
			<point x="782" y="417" type="line"/>
			<point x="-37" y="417" type="line"/>
			<point x="-37" y="300" type="line"/>
		</contour>
	</outline>
</glyph>
<glyph name="slash" format="2">
	<advance width="750"/>
	<unicode hex="002F"/>
	<note>
		slash
  </note>
	<outline>
		<contour>
			<point x="680" y="717" type="line"/>
			<point x="540" y="717" type="line"/>
			<point x="88" y="0" type="line"/>
			<point x="227" y="0" type="line"/>
		</contour>
	</outline>
</glyph>
<glyph name="one" format="2">
	<advance width="750"/>
	<unicode hex="0031"/>
	<note>
		one
  </note>
	<outline>
		<contour>
			<point x="528" y="0" type="line"/>
			<point x="528" y="717" type="line"/>
			<point x="280" y="717" type="line"/>
			<point x="280" y="587" type="line"/>
			<point x="398" y="587" type="line"/>
			<point x="398" y="0" type="line"/>
		</contour>
	</outline>
</glyph>
<glyph name="three" format="2">
	<advance width="750"/>
	<unicode hex="0033"/>
	<note>
		three
  </note>
	<outline>
		<contour>
			<point x="672" y="183" type="line"/>
			<point x="672" y="535" type="line" smooth="yes"/>
			<point x="672" y="552"/>
			<point x="667" y="573" type="qcurve" smooth="yes"/>
			<point x="663" y="594"/>
			<point x="654" y="614" type="qcurve" smooth="yes"/>
			<point x="645" y="635"/>
			<point x="630" y="653" type="qcurve" smooth="yes"/>
			<point x="616" y="672"/>
			<point x="596" y="685" type="qcurve" smooth="yes"/>
			<point x="576" y="700"/>
			<point x="549" y="708" type="qcurve" smooth="yes"/>
			<point x="523" y="717"/>
			<point x="489" y="717" type="qcurve" smooth="yes"/>
			<point x="67" y="717" type="line"/>
			<point x="67" y="587" type="line"/>
			<point x="489" y="587" type="line" smooth="yes"/>
			<point x="541" y="587"/>
			<point x="541" y="533" type="qcurve" smooth="yes"/>
			<point x="541" y="424" type="line"/>
			<point x="67" y="424" type="line"/>
			<point x="67" y="293" type="line"/>
			<point x="541" y="293" type="line"/>
			<point x="541" y="183" type="line" smooth="yes"/>
			<point x="541" y="157"/>
			<point x="528" y="143" type="qcurve" smooth="yes"/>
			<point x="516" y="130"/>
			<point x="489" y="130" type="qcurve" smooth="yes"/>
			<point x="67" y="130" type="line"/>
			<point x="67" y="0" type="line"/>
			<point x="489" y="0" type="line" smooth="yes"/>
			<point x="516" y="0"/>
			<point x="548" y="10" type="qcurve" smooth="yes"/>
			<point x="580" y="19"/>
			<point x="608" y="40" type="qcurve" smooth="yes"/>
			<point x="635" y="63"/>
			<point x="653" y="97" type="qcurve" smooth="yes"/>
			<point x="672" y="132"/>
			<point x="672" y="183" type="qcurve"/>
		</contour>
	</outline>
</glyph>
<glyph name="four" format="2">
	<advance width="750"/>
	<unicode hex="0034"/>
	<note>
		four
  </note>
	<outline>
		<contour>
			<point x="692" y="0" type="line"/>
			<point x="692" y="717" type="line"/>
			<point x="561" y="717" type="line"/>
			<point x="561" y="424" type="line"/>
			<point x="184" y="424" type="line"/>
			<point x="184" y="717" type="line"/>
			<point x="54" y="717" type="line"/>
			<point x="54" y="359" type="line" smooth="yes"/>
			<point x="54" y="345"/>
			<point x="59" y="333" type="qcurve" smooth="yes"/>
			<point x="64" y="321"/>
			<point x="72" y="312" type="qcurve" smooth="yes"/>
			<point x="81" y="304"/>
			<point x="93" y="298" type="qcurve" smooth="yes"/>
			<point x="105" y="293"/>
			<point x="120" y="293" type="qcurve" smooth="yes"/>
			<point x="561" y="293" type="line"/>
			<point x="561" y="0" type="line"/>
		</contour>
	</outline>
</glyph>
<glyph name="seven" format="2">
	<advance width="750"/>
	<unicode hex="0037"/>
	<note>
		seven
  </note>
	<outline>
		<contour>
			<point x="488" y="303" type="line"/>
			<point x="488" y="420" type="line"/>
			<point x="99" y="420" type="line"/>
			<point x="99" y="303" type="line"/>
		</contour>
		<contour>
			<point x="684" y="684" type="line"/>
			<point x="676" y="700"/>
			<point x="661" y="708" type="qcurve" smooth="yes"/>
			<point x="645" y="717"/>
			<point x="628" y="717" type="qcurve" smooth="yes"/>
			<point x="93" y="717" type="line"/>
			<point x="93" y="587" type="line"/>
			<point x="515" y="587" type="line"/>
			<point x="173" y="0" type="line"/>
			<point x="324" y="0" type="line"/>
			<point x="684" y="619" type="line" smooth="yes"/>
			<point x="693" y="634"/>
			<point x="693" y="651" type="qcurve" smooth="yes"/>
			<point x="693" y="668"/>
			<point x="684" y="684" type="qcurve"/>
		</contour>
	</outline>
</glyph>
<glyph name="less" format="2">
	<advance width="750"/>
	<unicode hex="003C"/>
	<note>
		less
  </note>
	<outline>
		<contour>
			<point x="567" y="627" type="line"/>
			<point x="381" y="627" type="line"/>
			<point x="137" y="408" type="line" smooth="yes"/>
			<point x="127" y="399"/>
			<point x="121" y="386" type="qcurve" smooth="yes"/>
			<point x="116" y="373"/>
			<point x="116" y="360" type="qcurve" smooth="yes"/>
			<point x="116" y="329"/>
			<point x="138" y="311" type="qcurve" smooth="yes"/>
			<point x="380" y="99" type="line"/>
			<point x="567" y="99" type="line"/>
			<point x="269" y="360" type="line"/>
		</contour>
	</outline>
</glyph>
<glyph name="equal" format="2">
	<advance width="750"/>
	<unicode hex="003D"/>
	<note>
		equal
  </note>
	<outline>
		<contour>
			<point x="752" y="417" type="line"/>
			<point x="752" y="535" type="line"/>
			<point x="-2" y="535" type="line"/>
			<point x="-2" y="417" type="line"/>
		</contour>
		<contour>
			<point x="752" y="183" type="line"/>
			<point x="752" y="300" type="line"/>
			<point x="-2" y="300" type="line"/>
			<point x="-2" y="183" type="line"/>
		</contour>
	</outline>
</glyph>
<glyph name="at" format="2">
	<advance width="750"/>
	<unicode hex="0040"/>
	<note>
		at
  </note>
	<outline>
		<contour>
			<point x="673" y="220" type="line"/>
			<point x="673" y="396" type="line" smooth="yes"/>
			<point x="673" y="441"/>
			<point x="657" y="472" type="qcurve" smooth="yes"/>
			<point x="641" y="504"/>
			<point x="616" y="523" type="qcurve" smooth="yes"/>
			<point x="592" y="542"/>
			<point x="564" y="551" type="qcurve" smooth="yes"/>
			<point x="535" y="559"/>
			<point x="511" y="559" type="qcurve" smooth="yes"/>
			<point x="276" y="559" type="line" smooth="yes"/>
			<point x="231" y="559"/>
			<point x="200" y="543" type="qcurve" smooth="yes"/>
			<point x="169" y="527"/>
			<point x="149" y="502" type="qcurve" smooth="yes"/>
			<point x="130" y="478"/>
			<point x="121" y="450" type="qcurve" smooth="yes"/>
			<point x="113" y="421"/>
			<point x="113" y="396" type="qcurve" smooth="yes"/>
			<point x="113" y="162" type="line" smooth="yes"/>
			<point x="113" y="117"/>
			<point x="129" y="86" type="qcurve" smooth="yes"/>
			<point x="145" y="55"/>
			<point x="170" y="36" type="qcurve" smooth="yes"/>
			<point x="195" y="16"/>
			<point x="223" y="8" type="qcurve" smooth="yes"/>
			<point x="252" y="-1"/>
			<point x="276" y="-1" type="qcurve" smooth="yes"/>
			<point x="335" y="-1" type="line"/>
			<point x="335" y="90" type="line"/>
			<point x="276" y="90" type="line" smooth="yes"/>
			<point x="261" y="90"/>
			<point x="248" y="95" type="qcurve" smooth="yes"/>
			<point x="235" y="100"/>
			<point x="225" y="110" type="qcurve" smooth="yes"/>
			<point x="216" y="120"/>
			<point x="210" y="133" type="qcurve" smooth="yes"/>
			<point x="204" y="146"/>
			<point x="204" y="162" type="qcurve" smooth="yes"/>
			<point x="204" y="396" type="line" smooth="yes"/>
			<point x="204" y="412"/>
			<point x="210" y="424" type="qcurve" smooth="yes"/>
			<point x="215" y="437"/>
			<point x="224" y="447" type="qcurve" smooth="yes"/>
			<point x="233" y="457"/>
			<point x="246" y="462" type="qcurve" smooth="yes"/>
			<point x="260" y="468"/>
			<point x="276" y="468" type="qcurve" smooth="yes"/>
			<point x="511" y="468" type="line" smooth="yes"/>
			<point x="526" y="468"/>
			<point x="539" y="463" type="qcurve" smooth="yes"/>
			<point x="552" y="458"/>
			<point x="561" y="448" type="qcurve"/>
			<point x="571" y="440"/>
			<point x="577" y="426" type="qcurve" smooth="yes"/>
			<point x="582" y="413"/>
			<point x="582" y="396" type="qcurve" smooth="yes"/>
			<point x="582" y="221" type="line" smooth="yes"/>
			<point x="582" y="211"/>
			<point x="578" y="210" type="qcurve"/>
			<point x="569" y="208" type="line" smooth="yes"/>
			<point x="556" y="208" type="line"/>
			<point x="556" y="214" type="line" smooth="yes"/>
			<point x="556" y="220" type="line" smooth="yes"/>
			<point x="556" y="338" type="line" smooth="yes"/>
			<point x="556" y="367"/>
			<point x="546" y="387" type="qcurve" smooth="yes"/>
			<point x="536" y="407"/>
			<point x="520" y="419" type="qcurve" smooth="yes"/>
			<point x="504" y="432"/>
			<point x="486" y="437" type="qcurve" smooth="yes"/>
			<point x="468" y="443"/>
			<point x="452" y="443" type="qcurve" smooth="yes"/>
			<point x="283" y="443" type="line"/>
			<point x="283" y="351" type="line"/>
			<point x="451" y="351" type="line" smooth="yes"/>
			<point x="462" y="351"/>
			<point x="464" y="347" type="qcurve" smooth="yes"/>
			<point x="465" y="338" type="line" smooth="yes"/>
			<point x="465" y="221" type="line" smooth="yes"/>
			<point x="465" y="213"/>
			<point x="463" y="211" type="qcurve" smooth="yes"/>
			<point x="460" y="208"/>
			<point x="456" y="208" type="qcurve" smooth="yes"/>
			<point x="336" y="208" type="line" smooth="yes"/>
			<point x="326" y="210" type="line" smooth="yes"/>
			<point x="322" y="213"/>
			<point x="322" y="220" type="qcurve" smooth="yes"/>
			<point x="323" y="228" type="line"/>
			<point x="327" y="232" type="line" smooth="yes"/>
			<point x="331" y="233" type="line" smooth="yes"/>
			<point x="335" y="233" type="line" smooth="yes"/>
			<point x="439" y="233" type="line"/>
			<point x="439" y="324" type="line"/>
			<point x="335" y="324" type="line" smooth="yes"/>
			<point x="306" y="324"/>
			<point x="286" y="314" type="qcurve" smooth="yes"/>
			<point x="267" y="304"/>
			<point x="254" y="288" type="qcurve" smooth="yes"/>
			<point x="242" y="272"/>
			<point x="236" y="254" type="qcurve" smooth="yes"/>
			<point x="231" y="236"/>
			<point x="231" y="220" type="qcurve" smooth="yes"/>
			<point x="231" y="192"/>
			<point x="241" y="172" type="qcurve" smooth="yes"/>
			<point x="252" y="152"/>
			<point x="267" y="140" type="qcurve" smooth="yes"/>
			<point x="283" y="128"/>
			<point x="301" y="122" type="qcurve" smooth="yes"/>
			<point x="319" y="116"/>
			<point x="335" y="116" type="qcurve" smooth="yes"/>
			<point x="569" y="116" type="line" smooth="yes"/>
			<point x="597" y="116"/>
			<point x="617" y="127" type="qcurve" smooth="yes"/>
			<point x="637" y="137"/>
			<point x="650" y="153" type="qcurve" smooth="yes"/>
			<point x="663" y="168"/>
			<point x="668" y="186" type="qcurve" smooth="yes"/>
			<point x="673" y="204"/>
			<point x="673" y="220" type="qcurve"/>
		</contour>
	</outline>
</glyph>
<glyph name="B" format="2">
	<advance width="750"/>
	<unicode hex="0042"/>
	<note>
		B
  </note>
	<outline>
		<contour>
			<point x="726" y="157" type="line"/>
			<point x="726" y="183" type="line" smooth="yes"/>
			<point x="726" y="220"/>
			<point x="718" y="252" type="qcurve" smooth="yes"/>
			<point x="709" y="284"/>
			<point x="695" y="308" type="qcurve" smooth="yes"/>
			<point x="680" y="333"/>
			<point x="661" y="352" type="qcurve" smooth="yes"/>
			<point x="641" y="372"/>
			<point x="620" y="385" type="qcurve"/>
			<point x="645" y="420"/>
			<point x="656" y="460" type="qcurve" smooth="yes"/>
			<point x="668" y="500"/>
			<point x="668" y="535" type="qcurve" smooth="yes"/>
			<point x="668" y="559" type="line" smooth="yes"/>
			<point x="668" y="603"/>
			<point x="652" y="633" type="qcurve" smooth="yes"/>
			<point x="636" y="663"/>
			<point x="612" y="681" type="qcurve" smooth="yes"/>
			<point x="589" y="700"/>
			<point x="562" y="708" type="qcurve" smooth="yes"/>
			<point x="534" y="717"/>
			<point x="510" y="717" type="qcurve" smooth="yes"/>
			<point x="140" y="717" type="line" smooth="yes"/>
			<point x="126" y="717"/>
			<point x="114" y="712" type="qcurve" smooth="yes"/>
			<point x="102" y="707"/>
			<point x="93" y="698" type="qcurve" smooth="yes"/>
			<point x="84" y="689"/>
			<point x="80" y="677" type="qcurve" smooth="yes"/>
			<point x="75" y="665"/>
			<point x="75" y="652" type="qcurve" smooth="yes"/>
			<point x="75" y="65" type="line" smooth="yes"/>
			<point x="75" y="52"/>
			<point x="80" y="40" type="qcurve" smooth="yes"/>
			<point x="84" y="28"/>
			<point x="93" y="19" type="qcurve" smooth="yes"/>
			<point x="102" y="10"/>
			<point x="114" y="5" type="qcurve" smooth="yes"/>
			<point x="126" y="0"/>
			<point x="140" y="0" type="qcurve" smooth="yes"/>
			<point x="568" y="0" type="line" smooth="yes"/>
			<point x="612" y="0"/>
			<point x="642" y="16" type="qcurve" smooth="yes"/>
			<point x="672" y="32"/>
			<point x="691" y="55" type="qcurve" smooth="yes"/>
			<point x="709" y="79"/>
			<point x="718" y="106" type="qcurve" smooth="yes"/>
			<point x="726" y="133"/>
			<point x="726" y="157" type="qcurve"/>
		</contour>
		<contour>
			<point x="596" y="183" type="line"/>
			<point x="596" y="159" type="line" smooth="yes"/>
			<point x="596" y="148"/>
			<point x="593" y="142" type="qcurve" smooth="yes"/>
			<point x="586" y="133" type="line" smooth="yes"/>
			<point x="577" y="130" type="line" smooth="yes"/>
			<point x="568" y="130" type="line" smooth="yes"/>
			<point x="204" y="130" type="line"/>
			<point x="204" y="587" type="line"/>
			<point x="510" y="587" type="line" smooth="yes"/>
			<point x="537" y="587"/>
			<point x="537" y="559" type="qcurve" smooth="yes"/>
			<point x="537" y="535" type="line" smooth="yes"/>
			<point x="537" y="509"/>
			<point x="529" y="489" type="qcurve" smooth="yes"/>
			<point x="521" y="468"/>
			<point x="507" y="454" type="qcurve" smooth="yes"/>
			<point x="492" y="440"/>
			<point x="472" y="432" type="qcurve" smooth="yes"/>
			<point x="452" y="424"/>
			<point x="426" y="424" type="qcurve" smooth="yes"/>
			<point x="247" y="424" type="line"/>
			<point x="247" y="293" type="line"/>
			<point x="484" y="293" type="line" smooth="yes"/>
			<point x="510" y="293"/>
			<point x="531" y="285" type="qcurve" smooth="yes"/>
			<point x="551" y="277"/>
			<point x="565" y="263" type="qcurve" smooth="yes"/>
			<point x="580" y="248"/>
			<point x="588" y="228" type="qcurve" smooth="yes"/>
			<point x="596" y="208"/>
			<point x="596" y="183" type="qcurve"/>
		</contour>
	</outline>
</glyph>
<glyph name="E" format="2">
	<advance width="750"/>
	<unicode hex="0045"/>
	<note>
		E
  </note>
	<outline>
		<contour>
			<point x="703" y="0" type="line"/>
			<point x="703" y="132" type="line"/>
			<point x="102" y="132" type="line"/>
			<point x="102" y="0" type="line"/>
		</contour>
		<contour>
			<point x="568" y="583" type="line"/>
			<point x="568" y="713" type="line"/>
			<point x="-3" y="713" type="line"/>
			<point x="-3" y="583" type="line"/>
		</contour>
		<contour>
			<point x="504" y="323" type="line"/>
			<point x="504" y="444" type="line"/>
			<point x="99" y="444" type="line"/>
			<point x="99" y="323" type="line"/>
		</contour>
	</outline>
</glyph>
<glyph name="F" format="2">
	<advance width="750"/>
	<unicode hex="0046"/>
	<note>
		F
  </note>
	<outline>
		<contour>
			<point x="653" y="293" type="line"/>
			<point x="653" y="424" type="line"/>
			<point x="257" y="424" type="line"/>
			<point x="257" y="293" type="line"/>
		</contour>
		<contour>
			<point x="712" y="587" type="line"/>
			<point x="712" y="717" type="line"/>
			<point x="141" y="717" type="line" smooth="yes"/>
			<point x="127" y="717"/>
			<point x="115" y="712" type="qcurve" smooth="yes"/>
			<point x="103" y="707"/>
			<point x="94" y="698" type="qcurve" smooth="yes"/>
			<point x="85" y="689"/>
			<point x="80" y="677" type="qcurve" smooth="yes"/>
			<point x="76" y="665"/>
			<point x="76" y="652" type="qcurve" smooth="yes"/>
			<point x="76" y="0" type="line"/>
			<point x="205" y="0" type="line"/>
			<point x="205" y="587" type="line"/>
		</contour>
	</outline>
</glyph>
<glyph name="H" format="2">
	<advance width="750"/>
	<unicode hex="0048"/>
	<note>
		H
  </note>
	<outline>
		<contour>
			<point x="207" y="424" type="line"/>
			<point x="207" y="717" type="line"/>
			<point x="76" y="717" type="line"/>
			<point x="76" y="0" type="line"/>
			<point x="207" y="0" type="line"/>
			<point x="207" y="293" type="line"/>
			<point x="568" y="293" type="line"/>
			<point x="568" y="0" type="line"/>
			<point x="698" y="0" type="line"/>
			<point x="698" y="717" type="line"/>
			<point x="568" y="717" type="line"/>
			<point x="568" y="424" type="line"/>
		</contour>
	</outline>
</glyph>
<glyph name="K" format="2">
	<advance width="750"/>
	<unicode hex="004B"/>
	<note>
		K
  </note>
	<outline>
		<contour>
			<point x="757" y="0" type="line"/>
			<point x="388" y="359" type="line"/>
			<point x="757" y="717" type="line"/>
			<point x="572" y="717" type="line"/>
			<point x="280" y="424" type="line"/>
			<point x="233" y="424" type="line"/>
			<point x="233" y="293" type="line"/>
			<point x="280" y="293" type="line"/>
			<point x="572" y="0" type="line"/>
		</contour>
		<contour>
			<point x="207" y="0" type="line"/>
			<point x="207" y="717" type="line"/>
			<point x="76" y="717" type="line"/>
			<point x="76" y="0" type="line"/>
		</contour>
	</outline>
</glyph>
<glyph name="L" format="2">
	<advance width="750"/>
	<unicode hex="004C"/>
	<note>
		L
  </note>
	<outline>
		<contour>
			<point x="729" y="0" type="line"/>
			<point x="729" y="130" type="line"/>
			<point x="205" y="130" type="line"/>
			<point x="205" y="717" type="line"/>
			<point x="76" y="717" type="line"/>
			<point x="76" y="65" type="line" smooth="yes"/>
			<point x="76" y="52"/>
			<point x="80" y="40" type="qcurve" smooth="yes"/>
			<point x="85" y="28"/>
			<point x="94" y="19" type="qcurve" smooth="yes"/>
			<point x="103" y="10"/>
			<point x="115" y="5" type="qcurve" smooth="yes"/>
			<point x="127" y="0"/>
			<point x="141" y="0" type="qcurve" smooth="yes"/>
		</contour>
	</outline>
</glyph>
<glyph name="T" format="2">
	<advance width="750"/>
	<unicode hex="0054"/>
	<note>
		T
  </note>
	<outline>
		<contour>
			<point x="724" y="587" type="line"/>
			<point x="724" y="717" type="line"/>
			<point x="20" y="717" type="line"/>
			<point x="20" y="587" type="line"/>
			<point x="307" y="587" type="line"/>
			<point x="307" y="0" type="line"/>
			<point x="437" y="0" type="line"/>
			<point x="437" y="587" type="line"/>
		</contour>
	</outline>
</glyph>
<glyph name="X" format="2">
	<advance width="750"/>
	<unicode hex="0058"/>
	<note>
		X
  </note>
	<outline>
		<contour>
			<point x="378" y="461" type="line"/>
			<point x="179" y="717" type="line"/>
			<point x="3" y="717" type="line"/>
			<point x="290" y="357" type="line"/>
			<point x="4" y="0" type="line"/>
			<point x="181" y="0" type="line"/>
			<point x="378" y="254" type="line"/>
			<point x="576" y="0" type="line"/>
			<point x="752" y="0" type="line"/>
			<point x="466" y="357" type="line"/>
			<point x="755" y="717" type="line"/>
			<point x="577" y="717" type="line"/>
		</contour>
	</outline>
</glyph>
<glyph name="Z" format="2">
	<advance width="750"/>
	<unicode hex="005A"/>
	<note>
		Z
  </note>
	<outline>
		<contour>
			<point x="689" y="678" type="line"/>
			<point x="681" y="696"/>
			<point x="665" y="706" type="qcurve" smooth="yes"/>
			<point x="648" y="717"/>
			<point x="629" y="717" type="qcurve" smooth="yes"/>
			<point x="43" y="717" type="line"/>
			<point x="43" y="587" type="line"/>
			<point x="483" y="587" type="line"/>
			<point x="53" y="108" type="line" smooth="yes"/>
			<point x="40" y="95"/>
			<point x="37" y="76" type="qcurve" smooth="yes"/>
			<point x="37" y="65" type="line" smooth="yes"/>
			<point x="36" y="52"/>
			<point x="43" y="39" type="qcurve" smooth="yes"/>
			<point x="51" y="21"/>
			<point x="67" y="11" type="qcurve" smooth="yes"/>
			<point x="83" y="0"/>
			<point x="102" y="0" type="qcurve" smooth="yes"/>
			<point x="688" y="0" type="line"/>
			<point x="688" y="130" type="line"/>
			<point x="248" y="130" type="line"/>
			<point x="677" y="608" type="line" smooth="yes"/>
			<point x="691" y="622"/>
			<point x="694" y="641" type="qcurve"/>
			<point x="694" y="653" type="line" smooth="yes"/>
			<point x="694" y="666"/>
			<point x="689" y="678" type="qcurve"/>
		</contour>
	</outline>
</glyph>
<glyph name="bracketleft" format="2">
	<advance width="750"/>
	<unicode hex="005B"/>
	<note>
		bracketleft
  </note>
	<outline>
		<contour>
			<point x="528" y="703" type="line"/>
			<point x="528" y="832" type="line"/>
			<point x="324" y="832" type="line" smooth="yes"/>
			<point x="311" y="832"/>
			<point x="298" y="828" type="qcurve" smooth="yes"/>
			<point x="286" y="823"/>
			<point x="277" y="813" type="qcurve" smooth="yes"/>
			<point x="268" y="805"/>
			<point x="262" y="793" type="qcurve" smooth="yes"/>
			<point x="257" y="781"/>
			<point x="257" y="768" type="qcurve" smooth="yes"/>
			<point x="257" y="-52" type="line" smooth="yes"/>
			<point x="257" y="-65"/>
			<point x="262" y="-77" type="qcurve" smooth="yes"/>
			<point x="276" y="-99" type="line"/>
			<point x="286" y="-108"/>
			<point x="298" y="-113" type="qcurve" smooth="yes"/>
			<point x="310" y="-118"/>
			<point x="323" y="-118" type="qcurve" smooth="yes"/>
			<point x="527" y="-118" type="line"/>
			<point x="527" y="13" type="line"/>
			<point x="388" y="13" type="line"/>
			<point x="388" y="703" type="line"/>
		</contour>
	</outline>
</glyph>
<glyph name="backslash" format="2">
	<advance width="750"/>
	<unicode hex="005C"/>
	<note>
		backslash
  </note>
	<outline>
		<contour>
			<point x="692" y="0" type="line"/>
			<point x="240" y="717" type="line"/>
			<point x="100" y="717" type="line"/>
			<point x="553" y="0" type="line"/>
		</contour>
	</outline>
</glyph>
<glyph name="asciicircum" format="2">
	<advance width="750"/>
	<unicode hex="005E"/>
	<note>
		asciicircum
  </note>
	<outline>
		<contour>
			<point x="605" y="348" type="line"/>
			<point x="605" y="514" type="line"/>
			<point x="441" y="699" type="line" smooth="yes"/>
			<point x="432" y="708"/>
			<point x="421" y="713" type="qcurve" smooth="yes"/>
			<point x="409" y="718"/>
			<point x="396" y="718" type="qcurve" smooth="yes"/>
			<point x="371" y="718"/>
			<point x="352" y="697" type="qcurve" smooth="yes"/>
			<point x="195" y="517" type="line"/>
			<point x="195" y="349" type="line"/>
			<point x="396" y="580" type="line"/>
		</contour>
	</outline>
</glyph>
<glyph name="underscore" format="2">
	<advance width="750"/>
	<unicode hex="005F"/>
	<note>
		underscore
  </note>
	<outline>
		<contour>
			<point x="755" y="-176" type="line"/>
			<point x="755" y="-60" type="line"/>
			<point x="-2" y="-60" type="line"/>
			<point x="-2" y="-176" type="line"/>
		</contour>
	</outline>
</glyph>
<glyph name="grave" format="2">
	<advance width="750"/>
	<unicode hex="0060"/>
	<note>
		grave
  </note>
	<outline>
		<contour>
			<point x="218" y="795" type="line"/>
			<point x="163" y="673" type="line"/>
			<point x="424" y="580" type="line"/>
			<point x="459" y="655" type="line"/>
		</contour>
	</outline>
</glyph>
<glyph name="i" format="2">
	<advance width="750"/>
	<unicode hex="0069"/>
	<note>
		i
  </note>
	<outline>
		<contour>
			<point x="453" y="652" type="line"/>
			<point x="453" y="769" type="line"/>
			<point x="323" y="769" type="line"/>
			<point x="323" y="652" type="line"/>
		</contour>
		<contour>
			<point x="453" y="0" type="line"/>
			<point x="453" y="540" type="line"/>
			<point x="323" y="540" type="line"/>
			<point x="323" y="0" type="line"/>
		</contour>
	</outline>
</glyph>
<glyph name="j" format="2">
	<advance width="750"/>
	<unicode hex="006A"/>
	<note>
		j
  </note>
	<outline>
		<contour>
			<point x="513" y="652" type="line"/>
			<point x="513" y="769" type="line"/>
			<point x="383" y="769" type="line"/>
			<point x="383" y="652" type="line"/>
		</contour>
		<contour>
			<point x="513" y="-52" type="line"/>
			<point x="513" y="540" type="line"/>
			<point x="383" y="540" type="line"/>
			<point x="383" y="-52" type="line" smooth="yes"/>
			<point x="383" y="-77"/>
			<point x="370" y="-91" type="qcurve" smooth="yes"/>
			<point x="357" y="-104"/>
			<point x="331" y="-104" type="qcurve" smooth="yes"/>
			<point x="-4" y="-104" type="line"/>
			<point x="-4" y="-235" type="line"/>
			<point x="331" y="-235" type="line" smooth="yes"/>
			<point x="349" y="-235"/>
			<point x="370" y="-230" type="qcurve" smooth="yes"/>
			<point x="391" y="-226"/>
			<point x="411" y="-217" type="qcurve" smooth="yes"/>
			<point x="431" y="-208"/>
			<point x="450" y="-194" type="qcurve" smooth="yes"/>
			<point x="468" y="-180"/>
			<point x="482" y="-159" type="qcurve" smooth="yes"/>
			<point x="496" y="-139"/>
			<point x="504" y="-112" type="qcurve" smooth="yes"/>
			<point x="513" y="-85"/>
			<point x="513" y="-52" type="qcurve"/>
		</contour>
	</outline>
</glyph>
<glyph name="m" format="2">
	<advance width="750"/>
	<unicode hex="006D"/>
	<note>
		m
  </note>
	<outline>
		<contour>
			<point x="499" y="0" type="line"/>
			<point x="499" y="359" type="line" smooth="yes"/>
			<point x="499" y="387"/>
			<point x="492" y="411" type="qcurve"/>
			<point x="559" y="411" type="line" smooth="yes"/>
			<point x="585" y="411"/>
			<point x="598" y="397" type="qcurve" smooth="yes"/>
			<point x="611" y="384"/>
			<point x="611" y="359" type="qcurve" smooth="yes"/>
			<point x="611" y="0" type="line"/>
			<point x="741" y="0" type="line"/>
			<point x="741" y="359" type="line" smooth="yes"/>
			<point x="741" y="392"/>
			<point x="732" y="418" type="qcurve" smooth="yes"/>
			<point x="724" y="445"/>
			<point x="710" y="465" type="qcurve" smooth="yes"/>
			<point x="696" y="485"/>
			<point x="678" y="500" type="qcurve" smooth="yes"/>
			<point x="659" y="514"/>
			<point x="639" y="523" type="qcurve" smooth="yes"/>
			<point x="619" y="532"/>
			<point x="598" y="536" type="qcurve" smooth="yes"/>
			<point x="577" y="540"/>
			<point x="559" y="540" type="qcurve" smooth="yes"/>
			<point x="433" y="540" type="line"/>
			<point x="433" y="500" type="line"/>
			<point x="405" y="521"/>
			<point x="374" y="531" type="qcurve" smooth="yes"/>
			<point x="343" y="540"/>
			<point x="316" y="540" type="qcurve" smooth="yes"/>
			<point x="127" y="540" type="line" smooth="yes"/>
			<point x="113" y="540"/>
			<point x="101" y="536" type="qcurve" smooth="yes"/>
			<point x="89" y="531"/>
			<point x="80" y="521" type="qcurve" smooth="yes"/>
			<point x="71" y="513"/>
			<point x="66" y="501" type="qcurve" smooth="yes"/>
			<point x="61" y="489"/>
			<point x="61" y="476" type="qcurve" smooth="yes"/>
			<point x="61" y="0" type="line"/>
			<point x="191" y="0" type="line"/>
			<point x="191" y="411" type="line"/>
			<point x="315" y="411" type="line" smooth="yes"/>
			<point x="341" y="411"/>
			<point x="355" y="397" type="qcurve" smooth="yes"/>
			<point x="368" y="384"/>
			<point x="368" y="359" type="qcurve" smooth="yes"/>
			<point x="368" y="0" type="line"/>
		</contour>
	</outline>
</glyph>
<glyph name="t" format="2">
	<advance width="750"/>
	<unicode hex="0074"/>
	<note>
		t
  </note>
	<outline>
		<contour>
			<point x="717" y="411" type="line"/>
			<point x="717" y="540" type="line"/>
			<point x="405" y="540" type="line"/>
			<point x="405" y="717" type="line"/>
			<point x="274" y="717" type="line"/>
			<point x="274" y="540" type="line"/>
			<point x="105" y="540" type="line"/>
			<point x="105" y="411" type="line"/>
			<point x="274" y="411" type="line"/>
			<point x="274" y="0" type="line"/>
			<point x="405" y="0" type="line"/>
			<point x="405" y="411" type="line"/>
		</contour>
	</outline>
</glyph>
<glyph name="x" format="2">
	<advance width="750"/>
	<unicode hex="0078"/>
	<note>
		x
  </note>
	<outline>
		<contour>
			<point x="693" y="540" type="line"/>
			<point x="515" y="540" type="line"/>
			<point x="370" y="384" type="line"/>
			<point x="227" y="540" type="line"/>
			<point x="48" y="540" type="line"/>
			<point x="281" y="287" type="line"/>
			<point x="19" y="0" type="line"/>
			<point x="198" y="0" type="line"/>
			<point x="371" y="188" type="line"/>
			<point x="544" y="0" type="line"/>
			<point x="723" y="0" type="line"/>
			<point x="460" y="285" type="line"/>
		</contour>
	</outline>
</glyph>
<glyph name="braceleft" format="2">
	<advance width="750"/>
	<unicode hex="007B"/>
	<note>
		braceleft
  </note>
	<outline>
		<contour>
			<point x="399" y="703" type="line"/>
			<point x="399" y="832" type="line"/>
			<point x="335" y="832" type="line" smooth="yes"/>
			<point x="309" y="832"/>
			<point x="290" y="828" type="qcurve" smooth="yes"/>
			<point x="259" y="820" type="line" smooth="yes"/>
			<point x="224" y="806" type="line" smooth="yes"/>
			<point x="203" y="793"/>
			<point x="189" y="781" type="qcurve" smooth="yes"/>
			<point x="168" y="760" type="line" smooth="yes"/>
			<point x="152" y="740"/>
			<point x="147" y="729" type="qcurve" smooth="yes"/>
			<point x="134" y="693" type="line" smooth="yes"/>
			<point x="129" y="666"/>
			<point x="129" y="652" type="qcurve" smooth="yes"/>
			<point x="129" y="476" type="line" smooth="yes"/>
			<point x="129" y="460"/>
			<point x="126" y="453" type="qcurve" smooth="yes"/>
			<point x="120" y="442"/>
			<point x="113" y="436" type="qcurve" smooth="yes"/>
			<point x="105" y="429"/>
			<point x="99" y="428" type="qcurve" smooth="yes"/>
			<point x="76" y="424" type="line" smooth="yes"/>
			<point x="63" y="424" type="line" smooth="yes"/>
			<point x="49" y="424" type="line"/>
			<point x="40" y="424" type="line" smooth="yes"/>
			<point x="34" y="425" type="line" smooth="yes"/>
			<point x="25" y="428" type="line"/>
			<point x="19" y="427" type="line" smooth="yes"/>
			<point x="16" y="425" type="line"/>
			<point x="14" y="418" type="line" smooth="yes"/>
			<point x="15" y="412" type="line"/>
			<point x="15" y="384" type="line" smooth="yes"/>
			<point x="15" y="372" type="line"/>
			<point x="13" y="358" type="line" smooth="yes"/>
			<point x="13" y="333" type="line" smooth="yes"/>
			<point x="13" y="307" type="line" smooth="yes"/>
			<point x="14" y="299" type="line" smooth="yes"/>
			<point x="17" y="295" type="line" smooth="yes"/>
			<point x="22" y="293" type="line" smooth="yes"/>
			<point x="26" y="293" type="line"/>
			<point x="35" y="295" type="line" smooth="yes"/>
			<point x="44" y="294" type="line" smooth="yes"/>
			<point x="50" y="293" type="line" smooth="yes"/>
			<point x="63" y="295" type="line"/>
			<point x="76" y="293" type="line" smooth="yes"/>
			<point x="99" y="290" type="line"/>
			<point x="110" y="284"/>
			<point x="117" y="277" type="qcurve" smooth="yes"/>
			<point x="125" y="264" type="line"/>
			<point x="128" y="240" type="line" smooth="yes"/>
			<point x="128" y="65" type="line" smooth="yes"/>
			<point x="131" y="34" type="line" smooth="yes"/>
			<point x="138" y="5" type="line" smooth="yes"/>
			<point x="148" y="-20" type="line" smooth="yes"/>
			<point x="163" y="-41" type="line"/>
			<point x="173" y="-55"/>
			<point x="183" y="-63" type="qcurve" smooth="yes"/>
			<point x="192" y="-72"/>
			<point x="203" y="-78" type="qcurve" smooth="yes"/>
			<point x="220" y="-89" type="line" smooth="yes"/>
			<point x="243" y="-100" type="line" smooth="yes"/>
			<point x="265" y="-108" type="line" smooth="yes"/>
			<point x="289" y="-114" type="line" smooth="yes"/>
			<point x="312" y="-117" type="line" smooth="yes"/>
			<point x="332" y="-117" type="line" smooth="yes"/>
			<point x="398" y="-117" type="line"/>
			<point x="398" y="13" type="line"/>
			<point x="333" y="13" type="line" smooth="yes"/>
			<point x="325" y="14" type="line"/>
			<point x="314" y="14" type="line" smooth="yes"/>
			<point x="301" y="17" type="line" smooth="yes"/>
			<point x="287" y="22" type="line" smooth="yes"/>
			<point x="276" y="29" type="line" smooth="yes"/>
			<point x="268" y="37" type="line" smooth="yes"/>
			<point x="261" y="49" type="line"/>
			<point x="259" y="64" type="line" smooth="yes"/>
			<point x="259" y="241" type="line" smooth="yes"/>
			<point x="256" y="269" type="line" smooth="yes"/>
			<point x="250" y="300" type="line"/>
			<point x="238" y="329" type="line" smooth="yes"/>
			<point x="227" y="349"/>
			<point x="220" y="357" type="qcurve"/>
			<point x="236" y="381" type="line" smooth="yes"/>
			<point x="248" y="408" type="line" smooth="yes"/>
			<point x="257" y="440" type="line" smooth="yes"/>
			<point x="260" y="476" type="line" smooth="yes"/>
			<point x="260" y="652" type="line"/>
			<point x="260" y="665" type="line" smooth="yes"/>
			<point x="268" y="677" type="line" smooth="yes"/>
			<point x="276" y="685" type="line" smooth="yes"/>
			<point x="284" y="691" type="line" smooth="yes"/>
			<point x="296" y="696" type="line" smooth="yes"/>
			<point x="311" y="700" type="line" smooth="yes"/>
			<point x="322" y="702" type="line" smooth="yes"/>
			<point x="335" y="702" type="line" smooth="yes"/>
			<point x="399" y="702" type="line"/>
		</contour>
	</outline>
</glyph>
<glyph name="bar" format="2">
	<advance width="750"/>
	<unicode hex="007C"/>
	<note>
		bar
  </note>
	<outline>
		<contour>
			<point x="459" y="-358" type="line"/>
			<point x="459" y="1120" type="line"/>
			<point x="328" y="1120" type="line"/>
			<point x="328" y="-358" type="line"/>
		</contour>
	</outline>
</glyph>
<glyph name="braceright" format="2">
	<advance width="750"/>
	<unicode hex="007D"/>
	<note>
		braceright
  </note>
	<outline>
		<contour>
			<point x="12" y="703" type="line"/>
			<point x="12" y="832" type="line"/>
			<point x="77" y="832" type="line" smooth="yes"/>
			<point x="103" y="832"/>
			<point x="121" y="828" type="qcurve" smooth="yes"/>
			<point x="152" y="820" type="line" smooth="yes"/>
			<point x="187" y="806" type="line" smooth="yes"/>
			<point x="208" y="793"/>
			<point x="222" y="781" type="qcurve" smooth="yes"/>
			<point x="244" y="760" type="line" smooth="yes"/>
			<point x="259" y="740"/>
			<point x="264" y="729" type="qcurve" smooth="yes"/>
			<point x="275" y="705"/>
			<point x="277" y="693" type="qcurve" smooth="yes"/>
			<point x="282" y="666"/>
			<point x="282" y="652" type="qcurve" smooth="yes"/>
			<point x="282" y="476" type="line" smooth="yes"/>
			<point x="285" y="453" type="line"/>
			<point x="291" y="442"/>
			<point x="298" y="436" type="qcurve" smooth="yes"/>
			<point x="306" y="429"/>
			<point x="312" y="428" type="qcurve" smooth="yes"/>
			<point x="336" y="424" type="line" smooth="yes"/>
			<point x="348" y="424" type="line" smooth="yes"/>
			<point x="362" y="424" type="line" smooth="yes"/>
			<point x="371" y="424" type="line" smooth="yes"/>
			<point x="377" y="425" type="line" smooth="yes"/>
			<point x="387" y="428" type="line"/>
			<point x="392" y="427" type="line" smooth="yes"/>
			<point x="395" y="425" type="line"/>
			<point x="397" y="418" type="line" smooth="yes"/>
			<point x="396" y="412" type="line" smooth="yes"/>
			<point x="393" y="403"/>
			<point x="394" y="396" type="qcurve" smooth="yes"/>
			<point x="394" y="384" type="line" smooth="yes"/>
			<point x="396" y="372" type="line" smooth="yes"/>
			<point x="398" y="358" type="line" smooth="yes"/>
			<point x="399" y="348" type="line" smooth="yes"/>
			<point x="399" y="343" type="line" smooth="yes"/>
			<point x="397" y="333" type="line" smooth="yes"/>
			<point x="397" y="318" type="line" smooth="yes"/>
			<point x="397" y="307" type="line"/>
			<point x="399" y="303"/>
			<point x="397" y="300" type="qcurve"/>
			<point x="394" y="295" type="line"/>
			<point x="389" y="293" type="line" smooth="yes"/>
			<point x="385" y="293" type="line"/>
			<point x="376" y="295" type="line" smooth="yes"/>
			<point x="368" y="294" type="line" smooth="yes"/>
			<point x="361" y="293" type="line" smooth="yes"/>
			<point x="348" y="295" type="line"/>
			<point x="335" y="293" type="line" smooth="yes"/>
			<point x="313" y="290" type="line"/>
			<point x="301" y="284"/>
			<point x="295" y="277" type="qcurve" smooth="yes"/>
			<point x="286" y="264" type="line"/>
			<point x="283" y="240" type="line" smooth="yes"/>
			<point x="283" y="65" type="line" smooth="yes"/>
			<point x="280" y="34" type="line" smooth="yes"/>
			<point x="273" y="5" type="line" smooth="yes"/>
			<point x="263" y="-20" type="line" smooth="yes"/>
			<point x="248" y="-41" type="line" smooth="yes"/>
			<point x="228" y="-63" type="line" smooth="yes"/>
			<point x="209" y="-78" type="line" smooth="yes"/>
			<point x="191" y="-89" type="line" smooth="yes"/>
			<point x="168" y="-100" type="line" smooth="yes"/>
			<point x="145" y="-108" type="line" smooth="yes"/>
			<point x="123" y="-114" type="line" smooth="yes"/>
			<point x="100" y="-117" type="line" smooth="yes"/>
			<point x="79" y="-117" type="line" smooth="yes"/>
			<point x="13" y="-117" type="line"/>
			<point x="13" y="13" type="line"/>
			<point x="78" y="13" type="line" smooth="yes"/>
			<point x="86" y="14" type="line"/>
			<point x="97" y="14" type="line" smooth="yes"/>
			<point x="110" y="17" type="line" smooth="yes"/>
			<point x="124" y="22" type="line" smooth="yes"/>
			<point x="135" y="29" type="line" smooth="yes"/>
			<point x="144" y="37" type="line" smooth="yes"/>
			<point x="151" y="49" type="line"/>
			<point x="153" y="64" type="line" smooth="yes"/>
			<point x="153" y="241" type="line" smooth="yes"/>
			<point x="155" y="269" type="line" smooth="yes"/>
			<point x="161" y="300" type="line"/>
			<point x="173" y="329" type="line" smooth="yes"/>
			<point x="184" y="349"/>
			<point x="191" y="357" type="qcurve"/>
			<point x="176" y="381" type="line" smooth="yes"/>
			<point x="163" y="408" type="line" smooth="yes"/>
			<point x="156" y="429"/>
			<point x="155" y="440" type="qcurve" smooth="yes"/>
			<point x="152" y="476" type="line" smooth="yes"/>
			<point x="152" y="652" type="line"/>
			<point x="150" y="665" type="line" smooth="yes"/>
			<point x="144" y="677" type="line"/>
			<point x="135" y="685" type="line" smooth="yes"/>
			<point x="127" y="691" type="line" smooth="yes"/>
			<point x="115" y="696" type="line" smooth="yes"/>
			<point x="101" y="700" type="line" smooth="yes"/>
			<point x="89" y="702" type="line" smooth="yes"/>
			<point x="77" y="702" type="line" smooth="yes"/>
			<point x="12" y="702" type="line"/>
		</contour>
	</outline>
</glyph>
<glyph name="currency" format="2">
	<advance width="750"/>
	<unicode hex="00A4"/>
	<note>
		currency
  </note>
	<outline>
		<contour>
			<point x="168" y="360" type="line"/>
			<point x="168" y="372"/>
			<point x="173" y="382" type="qcurve" smooth="yes"/>
			<point x="177" y="392"/>
			<point x="184" y="400" type="qcurve" smooth="yes"/>
			<point x="192" y="407"/>
			<point x="202" y="411" type="qcurve" smooth="yes"/>
			<point x="212" y="416"/>
			<point x="223" y="416" type="qcurve" smooth="yes"/>
			<point x="235" y="416"/>
			<point x="245" y="411" type="qcurve" smooth="yes"/>
			<point x="255" y="407"/>
			<point x="262" y="400" type="qcurve" smooth="yes"/>
			<point x="274" y="382" type="line" smooth="yes"/>
			<point x="278" y="372"/>
			<point x="278" y="360" type="qcurve" smooth="yes"/>
			<point x="278" y="349"/>
			<point x="274" y="339" type="qcurve" smooth="yes"/>
			<point x="262" y="321" type="line" smooth="yes"/>
			<point x="245" y="310" type="line" smooth="yes"/>
			<point x="235" y="306"/>
			<point x="223" y="306" type="qcurve" smooth="yes"/>
			<point x="200" y="306"/>
			<point x="184" y="321" type="qcurve" smooth="yes"/>
			<point x="168" y="337"/>
			<point x="168" y="360" type="qcurve"/>
		</contour>
		<contour>
			<point x="413" y="471" type="line"/>
			<point x="337" y="545" type="line"/>
			<point x="284" y="492" type="line"/>
			<point x="271" y="499"/>
			<point x="255" y="502" type="qcurve" smooth="yes"/>
			<point x="239" y="506"/>
			<point x="223" y="506" type="qcurve" smooth="yes"/>
			<point x="207" y="506"/>
			<point x="192" y="502" type="qcurve" smooth="yes"/>
			<point x="177" y="499"/>
			<point x="164" y="492" type="qcurve"/>
			<point x="112" y="545" type="line"/>
			<point x="36" y="476" type="line"/>
			<point x="91" y="420" type="line"/>
			<point x="84" y="406"/>
			<point x="82" y="391" type="qcurve" smooth="yes"/>
			<point x="79" y="376"/>
			<point x="79" y="360" type="qcurve" smooth="yes"/>
			<point x="79" y="344"/>
			<point x="82" y="329" type="qcurve" smooth="yes"/>
			<point x="85" y="314"/>
			<point x="92" y="300" type="qcurve"/>
			<point x="37" y="247" type="line"/>
			<point x="112" y="172" type="line"/>
			<point x="167" y="227" type="line"/>
			<point x="180" y="221"/>
			<point x="194" y="218" type="qcurve" smooth="yes"/>
			<point x="223" y="216" type="line" smooth="yes"/>
			<point x="255" y="216"/>
			<point x="281" y="228" type="qcurve"/>
			<point x="337" y="172" type="line"/>
			<point x="413" y="244" type="line"/>
			<point x="355" y="301" type="line"/>
			<point x="365" y="330" type="line" smooth="yes"/>
			<point x="368" y="344"/>
			<point x="368" y="360" type="qcurve" smooth="yes"/>
			<point x="366" y="389" type="line" smooth="yes"/>
			<point x="363" y="403"/>
			<point x="357" y="416" type="qcurve"/>
		</contour>
	</outline>
</glyph>
<glyph name="yen" format="2">
	<advance width="750"/>
	<unicode hex="00A5"/>
	<note>
		yen
  </note>
	<outline>
		<contour>
			<point x="646" y="64" type="line"/>
			<point x="646" y="181" type="line"/>
			<point x="478" y="181" type="line"/>
			<point x="478" y="233" type="line"/>
			<point x="529" y="233" type="line" smooth="yes"/>
			<point x="553" y="233"/>
			<point x="580" y="239" type="qcurve" smooth="yes"/>
			<point x="608" y="244"/>
			<point x="634" y="256" type="qcurve" smooth="yes"/>
			<point x="660" y="268"/>
			<point x="685" y="287" type="qcurve" smooth="yes"/>
			<point x="709" y="306"/>
			<point x="728" y="332" type="qcurve" smooth="yes"/>
			<point x="747" y="360"/>
			<point x="758" y="394" type="qcurve" smooth="yes"/>
			<point x="768" y="429"/>
			<point x="768" y="473" type="qcurve" smooth="yes"/>
			<point x="768" y="717" type="line"/>
			<point x="640" y="717" type="line"/>
			<point x="640" y="473" type="line" smooth="yes"/>
			<point x="640" y="448"/>
			<point x="632" y="429" type="qcurve" smooth="yes"/>
			<point x="624" y="409"/>
			<point x="608" y="395" type="qcurve" smooth="yes"/>
			<point x="594" y="380"/>
			<point x="574" y="372" type="qcurve" smooth="yes"/>
			<point x="553" y="364"/>
			<point x="529" y="364" type="qcurve" smooth="yes"/>
			<point x="296" y="364" type="line" smooth="yes"/>
			<point x="273" y="364"/>
			<point x="253" y="371" type="qcurve" smooth="yes"/>
			<point x="232" y="379"/>
			<point x="217" y="392" type="qcurve" smooth="yes"/>
			<point x="203" y="407"/>
			<point x="194" y="427" type="qcurve" smooth="yes"/>
			<point x="186" y="448"/>
			<point x="186" y="473" type="qcurve" smooth="yes"/>
			<point x="186" y="717" type="line"/>
			<point x="56" y="717" type="line"/>
			<point x="56" y="473" type="line" smooth="yes"/>
			<point x="56" y="429"/>
			<point x="67" y="394" type="qcurve" smooth="yes"/>
			<point x="78" y="360"/>
			<point x="96" y="332" type="qcurve" smooth="yes"/>
			<point x="116" y="306"/>
			<point x="140" y="287" type="qcurve" smooth="yes"/>
			<point x="164" y="268"/>
			<point x="191" y="256" type="qcurve" smooth="yes"/>
			<point x="217" y="244"/>
			<point x="244" y="239" type="qcurve" smooth="yes"/>
			<point x="272" y="233"/>
			<point x="296" y="233" type="qcurve" smooth="yes"/>
			<point x="348" y="233" type="line"/>
			<point x="348" y="181" type="line"/>
			<point x="179" y="181" type="line"/>
			<point x="179" y="64" type="line"/>
			<point x="348" y="64" type="line"/>
			<point x="348" y="0" type="line"/>
			<point x="478" y="0" type="line"/>
			<point x="478" y="64" type="line"/>
		</contour>
	</outline>
</glyph>
<glyph name="brokenbar" format="2">
	<advance width="750"/>
	<unicode hex="00A6"/>
	<note>
		brokenbar
  </note>
	<outline>
		<contour>
			<point x="200" y="411" type="line"/>
			<point x="200" y="835" type="line"/>
			<point x="69" y="835" type="line"/>
			<point x="69" y="411" type="line"/>
		</contour>
		<contour>
			<point x="200" y="-118" type="line"/>
			<point x="200" y="306" type="line"/>
			<point x="69" y="306" type="line"/>
			<point x="69" y="-118" type="line"/>
		</contour>
	</outline>
</glyph>
<glyph name="guillemotleft" format="2">
	<advance width="750"/>
	<unicode hex="00AB"/>
	<note>
		guillemotleft
  </note>
	<outline>
		<contour>
			<point x="402" y="476" type="line"/>
			<point x="236" y="476" type="line"/>
			<point x="52" y="312" type="line" smooth="yes"/>
			<point x="43" y="303"/>
			<point x="38" y="291" type="qcurve" smooth="yes"/>
			<point x="32" y="280"/>
			<point x="32" y="268" type="qcurve" smooth="yes"/>
			<point x="32" y="240"/>
			<point x="53" y="223" type="qcurve" smooth="yes"/>
			<point x="233" y="65" type="line"/>
			<point x="401" y="65" type="line"/>
			<point x="169" y="268" type="line"/>
		</contour>
		<contour>
			<point x="668" y="476" type="line"/>
			<point x="503" y="476" type="line"/>
			<point x="318" y="312" type="line" smooth="yes"/>
			<point x="309" y="303"/>
			<point x="304" y="291" type="qcurve" smooth="yes"/>
			<point x="299" y="280"/>
			<point x="299" y="268" type="qcurve" smooth="yes"/>
			<point x="299" y="241"/>
			<point x="319" y="223" type="qcurve" smooth="yes"/>
			<point x="500" y="65" type="line"/>
			<point x="668" y="65" type="line"/>
			<point x="436" y="268" type="line"/>
		</contour>
	</outline>
</glyph>
<glyph name="logicalnot" format="2">
	<advance width="750"/>
	<unicode hex="00AC"/>
	<note>
		logicalnot
  </note>
	<outline>
		<contour>
			<point x="522" y="124" type="line"/>
			<point x="522" y="417" type="line"/>
			<point x="53" y="417" type="line"/>
			<point x="53" y="300" type="line"/>
			<point x="405" y="300" type="line"/>
			<point x="405" y="124" type="line"/>
		</contour>
	</outline>
</glyph>
<glyph name="uni00ad" format="2">
	<advance width="750"/>
	<unicode hex="00AD"/>
	<note>
		uni00ad
  </note>
	<outline>
		<contour>
			<point x="527" y="300" type="line"/>
			<point x="527" y="417" type="line"/>
			<point x="58" y="417" type="line"/>
			<point x="58" y="300" type="line"/>
		</contour>
	</outline>
</glyph>
<glyph name="plusminus" format="2">
	<advance width="750"/>
	<unicode hex="00B1"/>
	<note>
		plusminus
  </note>
	<outline>
		<contour>
			<point x="532" y="300" type="line"/>
			<point x="532" y="417" type="line"/>
			<point x="356" y="417" type="line"/>
			<point x="356" y="532" type="line"/>
			<point x="240" y="532" type="line"/>
			<point x="240" y="417" type="line"/>
			<point x="63" y="417" type="line"/>
			<point x="63" y="300" type="line"/>
			<point x="240" y="300" type="line"/>
			<point x="240" y="185" type="line"/>
			<point x="356" y="185" type="line"/>
			<point x="356" y="300" type="line"/>
		</contour>
		<contour>
			<point x="532" y="0" type="line"/>
			<point x="532" y="116" type="line"/>
			<point x="63" y="116" type="line"/>
			<point x="63" y="0" type="line"/>
		</contour>
	</outline>
</glyph>
<glyph name="threesuperior" format="2">
	<advance width="750"/>
	<unicode hex="00B3"/>
	<note>
		threesuperior
  </note>
	<outline>
		<contour>
			<point x="313" y="429" type="line"/>
			<point x="313" y="520" type="line"/>
			<point x="62" y="520" type="line"/>
			<point x="62" y="429" type="line"/>
		</contour>
		<contour>
			<point x="344" y="404" type="line"/>
			<point x="344" y="546" type="line" smooth="yes"/>
			<point x="344" y="563"/>
			<point x="338" y="580" type="qcurve" smooth="yes"/>
			<point x="332" y="596"/>
			<point x="320" y="609" type="qcurve" smooth="yes"/>
			<point x="308" y="623"/>
			<point x="290" y="631" type="qcurve" smooth="yes"/>
			<point x="273" y="639"/>
			<point x="251" y="639" type="qcurve" smooth="yes"/>
			<point x="62" y="639" type="line"/>
			<point x="62" y="548" type="line"/>
			<point x="252" y="548" type="line"/>
			<point x="252" y="401" type="line"/>
			<point x="62" y="401" type="line"/>
			<point x="62" y="311" type="line"/>
			<point x="251" y="311" type="line" smooth="yes"/>
			<point x="268" y="311"/>
			<point x="284" y="317" type="qcurve" smooth="yes"/>
			<point x="300" y="323"/>
			<point x="313" y="334" type="qcurve" smooth="yes"/>
			<point x="327" y="346"/>
			<point x="335" y="363" type="qcurve" smooth="yes"/>
			<point x="344" y="381"/>
			<point x="344" y="404" type="qcurve"/>
		</contour>
	</outline>
</glyph>
<glyph name="acute" format="2">
	<advance width="750"/>
	<unicode hex="00B4"/>
	<note>
		acute
  </note>
	<outline>
		<contour>
			<point x="472" y="673" type="line"/>
			<point x="417" y="795" type="line"/>
			<point x="177" y="655" type="line"/>
			<point x="212" y="580" type="line"/>
		</contour>
	</outline>
</glyph>
<glyph name="mu" format="2">
	<advance width="750"/>
	<unicode hex="00B5"/>
	<note>
		mu
  </note>
	<outline>
		<contour>
			<point x="672" y="65" type="line"/>
			<point x="672" y="540" type="line"/>
			<point x="541" y="540" type="line"/>
			<point x="541" y="130" type="line"/>
			<point x="314" y="130" type="line"/>
			<point x="295" y="132"/>
			<point x="275" y="138" type="qcurve" smooth="yes"/>
			<point x="256" y="143"/>
			<point x="240" y="155" type="qcurve" smooth="yes"/>
			<point x="224" y="166"/>
			<point x="213" y="187" type="qcurve" smooth="yes"/>
			<point x="203" y="207"/>
			<point x="203" y="240" type="qcurve" smooth="yes"/>
			<point x="203" y="540" type="line"/>
			<point x="72" y="540" type="line"/>
			<point x="72" y="-235" type="line"/>
			<point x="203" y="-235" type="line"/>
			<point x="203" y="25" type="line"/>
			<point x="231" y="12"/>
			<point x="259" y="6" type="qcurve" smooth="yes"/>
			<point x="288" y="0"/>
			<point x="313" y="0" type="qcurve" smooth="yes"/>
			<point x="607" y="0" type="line" smooth="yes"/>
			<point x="620" y="0"/>
			<point x="632" y="5" type="qcurve" smooth="yes"/>
			<point x="644" y="10"/>
			<point x="652" y="19" type="qcurve" smooth="yes"/>
			<point x="661" y="28"/>
			<point x="666" y="40" type="qcurve" smooth="yes"/>
			<point x="672" y="52"/>
			<point x="672" y="65" type="qcurve"/>
		</contour>
	</outline>
</glyph>
<glyph name="onesuperior" format="2">
	<advance width="750"/>
	<unicode hex="00B9"/>
	<note>
		onesuperior
  </note>
	<outline>
		<contour>
			<point x="182" y="311" type="line"/>
			<point x="182" y="639" type="line"/>
			<point x="44" y="639" type="line"/>
			<point x="44" y="548" type="line"/>
			<point x="91" y="548" type="line"/>
			<point x="91" y="311" type="line"/>
		</contour>
	</outline>
</glyph>
<glyph name="guillemotright" format="2">
	<advance width="750"/>
	<unicode hex="00BB"/>
	<note>
		guillemotright
  </note>
	<outline>
		<contour>
			<point x="477" y="476" type="line"/>
			<point x="311" y="476" type="line"/>
			<point x="544" y="268" type="line"/>
			<point x="312" y="65" type="line"/>
			<point x="480" y="65" type="line"/>
			<point x="660" y="223" type="line" smooth="yes"/>
			<point x="680" y="240"/>
			<point x="680" y="268" type="qcurve" smooth="yes"/>
			<point x="680" y="280"/>
			<point x="676" y="291" type="qcurve" smooth="yes"/>
			<point x="671" y="303"/>
			<point x="661" y="312" type="qcurve" smooth="yes"/>
		</contour>
		<contour>
			<point x="211" y="476" type="line"/>
			<point x="44" y="476" type="line"/>
			<point x="277" y="268" type="line"/>
			<point x="45" y="65" type="line"/>
			<point x="213" y="65" type="line"/>
			<point x="394" y="223" type="line" smooth="yes"/>
			<point x="415" y="241"/>
			<point x="415" y="268" type="qcurve" smooth="yes"/>
			<point x="415" y="280"/>
			<point x="409" y="291" type="qcurve" smooth="yes"/>
			<point x="404" y="303"/>
			<point x="395" y="312" type="qcurve" smooth="yes"/>
		</contour>
	</outline>
</glyph>
<glyph name="onequarter" format="2">
	<advance width="750"/>
	<unicode hex="00BC"/>
	<note>
		onequarter
  </note>
	<outline>
		<contour>
			<point x="559" y="652" type="line"/>
			<point x="439" y="652" type="line"/>
			<point x="71" y="6" type="line"/>
			<point x="190" y="6" type="line"/>
		</contour>
		<contour>
			<point x="186" y="311" type="line"/>
			<point x="186" y="639" type="line"/>
			<point x="48" y="639" type="line"/>
			<point x="48" y="548" type="line"/>
			<point x="95" y="548" type="line"/>
			<point x="95" y="311" type="line"/>
		</contour>
		<contour>
			<point x="755" y="19" type="line"/>
			<point x="755" y="347" type="line"/>
			<point x="663" y="347" type="line"/>
			<point x="663" y="19" type="line"/>
		</contour>
		<contour>
			<point x="755" y="137" type="line"/>
			<point x="755" y="228" type="line"/>
			<point x="540" y="228" type="line"/>
			<point x="540" y="347" type="line"/>
			<point x="449" y="347" type="line"/>
			<point x="449" y="183" type="line" smooth="yes"/>
			<point x="449" y="173"/>
			<point x="452" y="165" type="qcurve" smooth="yes"/>
			<point x="456" y="156"/>
			<point x="463" y="150" type="qcurve" smooth="yes"/>
			<point x="477" y="140" type="line" smooth="yes"/>
			<point x="485" y="137"/>
			<point x="496" y="137" type="qcurve" smooth="yes"/>
		</contour>
	</outline>
</glyph>
<glyph name="onehalf" format="2">
	<advance width="750"/>
	<unicode hex="00BD"/>
	<note>
		onehalf
  </note>
	<outline>
		<contour>
			<point x="559" y="652" type="line"/>
			<point x="439" y="652" type="line"/>
			<point x="71" y="6" type="line"/>
			<point x="190" y="6" type="line"/>
		</contour>
		<contour>
			<point x="186" y="311" type="line"/>
			<point x="186" y="639" type="line"/>
			<point x="48" y="639" type="line"/>
			<point x="48" y="548" type="line"/>
			<point x="95" y="548" type="line"/>
			<point x="95" y="311" type="line"/>
		</contour>
		<contour>
			<point x="728" y="19" type="line"/>
			<point x="728" y="109" type="line"/>
			<point x="515" y="109" type="line"/>
			<point x="515" y="137" type="line"/>
			<point x="636" y="137" type="line" smooth="yes"/>
			<point x="652" y="137"/>
			<point x="669" y="143" type="qcurve" smooth="yes"/>
			<point x="685" y="149"/>
			<point x="699" y="161" type="qcurve" smooth="yes"/>
			<point x="712" y="173"/>
			<point x="720" y="190" type="qcurve" smooth="yes"/>
			<point x="728" y="208"/>
			<point x="728" y="231" type="qcurve" smooth="yes"/>
			<point x="728" y="254" type="line" smooth="yes"/>
			<point x="728" y="271"/>
			<point x="722" y="288" type="qcurve" smooth="yes"/>
			<point x="716" y="304"/>
			<point x="704" y="317" type="qcurve" smooth="yes"/>
			<point x="693" y="331"/>
			<point x="675" y="339" type="qcurve" smooth="yes"/>
			<point x="658" y="347"/>
			<point x="636" y="347" type="qcurve" smooth="yes"/>
			<point x="447" y="347" type="line"/>
			<point x="447" y="256" type="line"/>
			<point x="637" y="256" type="line"/>
			<point x="637" y="228" type="line"/>
			<point x="517" y="228" type="line" smooth="yes"/>
			<point x="495" y="228"/>
			<point x="477" y="220" type="qcurve" smooth="yes"/>
			<point x="460" y="212"/>
			<point x="448" y="199" type="qcurve" smooth="yes"/>
			<point x="436" y="185"/>
			<point x="430" y="169" type="qcurve" smooth="yes"/>
			<point x="424" y="152"/>
			<point x="424" y="135" type="qcurve" smooth="yes"/>
			<point x="424" y="19" type="line"/>
		</contour>
	</outline>
</glyph>
<glyph name="threequarters" format="2">
	<advance width="750"/>
	<unicode hex="00BE"/>
	<note>
		threequarters
  </note>
	<outline>
		<contour>
			<point x="595" y="640" type="line"/>
			<point x="475" y="640" type="line"/>
			<point x="107" y="-6" type="line"/>
			<point x="226" y="-6" type="line"/>
		</contour>
		<contour>
			<point x="745" y="7" type="line"/>
			<point x="745" y="335" type="line"/>
			<point x="654" y="335" type="line"/>
			<point x="654" y="7" type="line"/>
		</contour>
		<contour>
			<point x="745" y="125" type="line"/>
			<point x="745" y="216" type="line"/>
			<point x="530" y="216" type="line"/>
			<point x="530" y="335" type="line"/>
			<point x="439" y="335" type="line"/>
			<point x="439" y="171" type="line" smooth="yes"/>
			<point x="439" y="161"/>
			<point x="443" y="153" type="qcurve" smooth="yes"/>
			<point x="446" y="145"/>
			<point x="453" y="138" type="qcurve" smooth="yes"/>
			<point x="467" y="128" type="line" smooth="yes"/>
			<point x="475" y="125"/>
			<point x="486" y="125" type="qcurve" smooth="yes"/>
		</contour>
		<contour>
			<point x="269" y="417" type="line"/>
			<point x="269" y="508" type="line"/>
			<point x="18" y="508" type="line"/>
			<point x="18" y="417" type="line"/>
		</contour>
		<contour>
			<point x="300" y="392" type="line"/>
			<point x="300" y="534" type="line" smooth="yes"/>
			<point x="300" y="551"/>
			<point x="294" y="568" type="qcurve" smooth="yes"/>
			<point x="288" y="584"/>
			<point x="276" y="597" type="qcurve" smooth="yes"/>
			<point x="263" y="611"/>
			<point x="247" y="619" type="qcurve" smooth="yes"/>
			<point x="229" y="627"/>
			<point x="206" y="627" type="qcurve" smooth="yes"/>
			<point x="18" y="627" type="line"/>
			<point x="18" y="536" type="line"/>
			<point x="209" y="536" type="line"/>
			<point x="209" y="389" type="line"/>
			<point x="18" y="389" type="line"/>
			<point x="18" y="299" type="line"/>
			<point x="206" y="299" type="line" smooth="yes"/>
			<point x="224" y="299"/>
			<point x="240" y="305" type="qcurve" smooth="yes"/>
			<point x="257" y="311"/>
			<point x="269" y="322" type="qcurve" smooth="yes"/>
			<point x="283" y="334"/>
			<point x="291" y="351" type="qcurve" smooth="yes"/>
			<point x="300" y="369"/>
			<point x="300" y="392" type="qcurve"/>
		</contour>
	</outline>
</glyph>
<glyph name="Aacute" format="2">
	<advance width="752"/>
	<unicode hex="00C1"/>
	<note>
		Aacute
  </note>
	<outline>
		<contour>
			<point x="704" y="0" type="line"/>
			<point x="704" y="652" type="line" smooth="yes"/>
			<point x="704" y="665"/>
			<point x="699" y="677" type="qcurve" smooth="yes"/>
			<point x="694" y="689"/>
			<point x="685" y="698" type="qcurve" smooth="yes"/>
			<point x="676" y="707"/>
			<point x="664" y="712" type="qcurve" smooth="yes"/>
			<point x="652" y="717"/>
			<point x="639" y="717" type="qcurve" smooth="yes"/>
			<point x="420" y="717" type="line" smooth="yes"/>
			<point x="343" y="717"/>
			<point x="278" y="690" type="qcurve" smooth="yes"/>
			<point x="212" y="664"/>
			<point x="164" y="616" type="qcurve" smooth="yes"/>
			<point x="116" y="569"/>
			<point x="89" y="503" type="qcurve" smooth="yes"/>
			<point x="62" y="437"/>
			<point x="62" y="359" type="qcurve" smooth="yes"/>
			<point x="62" y="0" type="line"/>
			<point x="192" y="0" type="line"/>
			<point x="192" y="176" type="line"/>
			<point x="574" y="176" type="line"/>
			<point x="574" y="0" type="line"/>
		</contour>
		<contour>
			<point x="192" y="306" type="line"/>
			<point x="192" y="359" type="line" smooth="yes"/>
			<point x="192" y="413"/>
			<point x="207" y="451" type="qcurve" smooth="yes"/>
			<point x="223" y="489"/>
			<point x="246" y="515" type="qcurve" smooth="yes"/>
			<point x="269" y="540"/>
			<point x="297" y="555" type="qcurve" smooth="yes"/>
			<point x="325" y="569"/>
			<point x="351" y="576" type="qcurve" smooth="yes"/>
			<point x="376" y="584"/>
			<point x="395" y="585" type="qcurve" smooth="yes"/>
			<point x="420" y="587" type="line" smooth="yes"/>
			<point x="574" y="587" type="line"/>
			<point x="574" y="306" type="line"/>
		</contour>
		<contour>
			<point x="706" y="878" type="line"/>
			<point x="651" y="1000" type="line"/>
			<point x="411" y="860" type="line"/>
			<point x="445" y="784" type="line"/>
		</contour>
	</outline>
</glyph>
<glyph name="Acircumflex" format="2">
	<advance width="752"/>
	<unicode hex="00C2"/>
	<note>
		Acircumflex
  </note>
	<outline>
		<contour>
			<point x="704" y="0" type="line"/>
			<point x="704" y="652" type="line" smooth="yes"/>
			<point x="704" y="665"/>
			<point x="699" y="677" type="qcurve" smooth="yes"/>
			<point x="694" y="689"/>
			<point x="685" y="698" type="qcurve" smooth="yes"/>
			<point x="676" y="707"/>
			<point x="664" y="712" type="qcurve" smooth="yes"/>
			<point x="652" y="717"/>
			<point x="639" y="717" type="qcurve" smooth="yes"/>
			<point x="420" y="717" type="line" smooth="yes"/>
			<point x="343" y="717"/>
			<point x="278" y="690" type="qcurve" smooth="yes"/>
			<point x="212" y="664"/>
			<point x="164" y="616" type="qcurve" smooth="yes"/>
			<point x="116" y="569"/>
			<point x="89" y="503" type="qcurve" smooth="yes"/>
			<point x="62" y="437"/>
			<point x="62" y="359" type="qcurve" smooth="yes"/>
			<point x="62" y="0" type="line"/>
			<point x="192" y="0" type="line"/>
			<point x="192" y="176" type="line"/>
			<point x="574" y="176" type="line"/>
			<point x="574" y="0" type="line"/>
		</contour>
		<contour>
			<point x="192" y="306" type="line"/>
			<point x="192" y="359" type="line" smooth="yes"/>
			<point x="192" y="413"/>
			<point x="207" y="451" type="qcurve" smooth="yes"/>
			<point x="223" y="489"/>
			<point x="246" y="515" type="qcurve" smooth="yes"/>
			<point x="269" y="540"/>
			<point x="297" y="555" type="qcurve" smooth="yes"/>
			<point x="325" y="569"/>
			<point x="351" y="576" type="qcurve" smooth="yes"/>
			<point x="376" y="584"/>
			<point x="395" y="585" type="qcurve" smooth="yes"/>
			<point x="420" y="587" type="line" smooth="yes"/>
			<point x="574" y="587" type="line"/>
			<point x="574" y="306" type="line"/>
		</contour>
		<contour>
			<point x="595" y="784" type="line"/>
			<point x="655" y="868" type="line"/>
			<point x="420" y="1001" type="line"/>
			<point x="186" y="868" type="line"/>
			<point x="247" y="784" type="line"/>
			<point x="420" y="875" type="line"/>
		</contour>
	</outline>
</glyph>
<glyph name="Ccedilla" format="2">
	<advance width="765"/>
	<unicode hex="00C7"/>
	<note>
		Ccedilla
  </note>
	<outline>
		<contour>
			<point x="717" y="0" type="line"/>
			<point x="717" y="130" type="line"/>
			<point x="248" y="130" type="line" smooth="yes"/>
			<point x="224" y="130"/>
			<point x="210" y="144" type="qcurve" smooth="yes"/>
			<point x="196" y="157"/>
			<point x="196" y="183" type="qcurve" smooth="yes"/>
			<point x="196" y="533" type="line" smooth="yes"/>
			<point x="196" y="560"/>
			<point x="210" y="574" type="qcurve" smooth="yes"/>
			<point x="223" y="587"/>
			<point x="248" y="587" type="qcurve" smooth="yes"/>
			<point x="717" y="587" type="line"/>
			<point x="717" y="717" type="line"/>
			<point x="248" y="717" type="line" smooth="yes"/>
			<point x="215" y="717"/>
			<point x="188" y="708" type="qcurve" smooth="yes"/>
			<point x="162" y="700"/>
			<point x="141" y="685" type="qcurve" smooth="yes"/>
			<point x="121" y="672"/>
			<point x="107" y="653" type="qcurve" smooth="yes"/>
			<point x="92" y="635"/>
			<point x="84" y="614" type="qcurve" smooth="yes"/>
			<point x="75" y="594"/>
			<point x="70" y="573" type="qcurve" smooth="yes"/>
			<point x="66" y="552"/>
			<point x="66" y="535" type="qcurve" smooth="yes"/>
			<point x="66" y="183" type="line" smooth="yes"/>
			<point x="66" y="149"/>
			<point x="74" y="122" type="qcurve" smooth="yes"/>
			<point x="83" y="96"/>
			<point x="97" y="75" type="qcurve" smooth="yes"/>
			<point x="112" y="55"/>
			<point x="130" y="41" type="qcurve" smooth="yes"/>
			<point x="148" y="27"/>
			<point x="168" y="17" type="qcurve" smooth="yes"/>
			<point x="189" y="8"/>
			<point x="210" y="4" type="qcurve" smooth="yes"/>
			<point x="231" y="0"/>
			<point x="248" y="0" type="qcurve" smooth="yes"/>
			<point x="383" y="0" type="line"/>
			<point x="344" y="-104" type="line"/>
			<point x="366" y="-100" type="line" smooth="yes"/>
			<point x="391" y="-100" type="line" smooth="yes"/>
			<point x="409" y="-100" type="line" smooth="yes"/>
			<point x="419" y="-100"/>
			<point x="428" y="-103" type="qcurve" smooth="yes"/>
			<point x="437" y="-106"/>
			<point x="443" y="-111" type="qcurve" smooth="yes"/>
			<point x="449" y="-116"/>
			<point x="449" y="-124" type="qcurve" smooth="yes"/>
			<point x="449" y="-138"/>
			<point x="430" y="-144" type="qcurve" smooth="yes"/>
			<point x="411" y="-149"/>
			<point x="383" y="-149" type="qcurve" smooth="yes"/>
			<point x="355" y="-149"/>
			<point x="329" y="-143" type="qcurve" smooth="yes"/>
			<point x="303" y="-136"/>
			<point x="283" y="-127" type="qcurve"/>
			<point x="283" y="-215" type="line"/>
			<point x="301" y="-218" type="line" smooth="yes"/>
			<point x="323" y="-222" type="line" smooth="yes"/>
			<point x="352" y="-225" type="line" smooth="yes"/>
			<point x="394" y="-227" type="line" smooth="yes"/>
			<point x="422" y="-227"/>
			<point x="450" y="-222" type="qcurve" smooth="yes"/>
			<point x="479" y="-216"/>
			<point x="501" y="-204" type="qcurve" smooth="yes"/>
			<point x="524" y="-192"/>
			<point x="538" y="-173" type="qcurve" smooth="yes"/>
			<point x="552" y="-153"/>
			<point x="552" y="-125" type="qcurve" smooth="yes"/>
			<point x="552" y="-96"/>
			<point x="542" y="-79" type="qcurve" smooth="yes"/>
			<point x="531" y="-61"/>
			<point x="514" y="-52" type="qcurve" smooth="yes"/>
			<point x="498" y="-42"/>
			<point x="480" y="-38" type="qcurve" smooth="yes"/>
			<point x="447" y="-35" type="line"/>
			<point x="460" y="0" type="line"/>
		</contour>
	</outline>
</glyph>
<glyph name="Egrave" format="2">
	<advance width="749"/>
	<unicode hex="00C8"/>
	<note>
		Egrave
  </note>
	<outline>
		<contour>
			<point x="703" y="0" type="line"/>
			<point x="703" y="132" type="line"/>
			<point x="102" y="132" type="line"/>
			<point x="102" y="0" type="line"/>
		</contour>
		<contour>
			<point x="568" y="583" type="line"/>
			<point x="568" y="713" type="line"/>
			<point x="-3" y="713" type="line"/>
			<point x="-3" y="583" type="line"/>
		</contour>
		<contour>
			<point x="504" y="323" type="line"/>
			<point x="504" y="444" type="line"/>
			<point x="99" y="444" type="line"/>
			<point x="99" y="323" type="line"/>
		</contour>
		<contour>
			<point x="293" y="1000" type="line"/>
			<point x="238" y="878" type="line"/>
			<point x="499" y="784" type="line"/>
			<point x="534" y="860" type="line"/>
		</contour>
	</outline>
</glyph>
<glyph name="Eacute" format="2">
	<advance width="749"/>
	<unicode hex="00C9"/>
	<note>
		Eacute
  </note>
	<outline>
		<contour>
			<point x="703" y="0" type="line"/>
			<point x="703" y="132" type="line"/>
			<point x="102" y="132" type="line"/>
			<point x="102" y="0" type="line"/>
		</contour>
		<contour>
			<point x="568" y="583" type="line"/>
			<point x="568" y="713" type="line"/>
			<point x="-3" y="713" type="line"/>
			<point x="-3" y="583" type="line"/>
		</contour>
		<contour>
			<point x="504" y="323" type="line"/>
			<point x="504" y="444" type="line"/>
			<point x="99" y="444" type="line"/>
			<point x="99" y="323" type="line"/>
		</contour>
		<contour>
			<point x="704" y="878" type="line"/>
			<point x="649" y="1000" type="line"/>
			<point x="408" y="860" type="line"/>
			<point x="443" y="784" type="line"/>
		</contour>
	</outline>
</glyph>
<glyph name="Ecircumflex" format="2">
	<advance width="749"/>
	<unicode hex="00CA"/>
	<note>
		Ecircumflex
  </note>
	<outline>
		<contour>
			<point x="703" y="0" type="line"/>
			<point x="703" y="132" type="line"/>
			<point x="102" y="132" type="line"/>
			<point x="102" y="0" type="line"/>
		</contour>
		<contour>
			<point x="568" y="583" type="line"/>
			<point x="568" y="713" type="line"/>
			<point x="-3" y="713" type="line"/>
			<point x="-3" y="583" type="line"/>
		</contour>
		<contour>
			<point x="504" y="323" type="line"/>
			<point x="504" y="444" type="line"/>
			<point x="99" y="444" type="line"/>
			<point x="99" y="323" type="line"/>
		</contour>
		<contour>
			<point x="572" y="784" type="line"/>
			<point x="632" y="868" type="line"/>
			<point x="398" y="1001" type="line"/>
			<point x="164" y="868" type="line"/>
			<point x="224" y="784" type="line"/>
			<point x="398" y="875" type="line"/>
		</contour>
	</outline>
</glyph>
<glyph name="Igrave" format="2">
	<advance width="751"/>
	<unicode hex="00CC"/>
	<note>
		Igrave
  </note>
	<outline>
		<contour>
			<point x="456" y="0" type="line"/>
			<point x="456" y="717" type="line"/>
			<point x="327" y="717" type="line"/>
			<point x="327" y="0" type="line"/>
		</contour>
		<contour>
			<point x="-4" y="1000" type="line"/>
			<point x="-59" y="878" type="line"/>
			<point x="203" y="784" type="line"/>
			<point x="237" y="860" type="line"/>
		</contour>
	</outline>
</glyph>
<glyph name="Iacute" format="2">
	<advance width="751"/>
	<unicode hex="00CD"/>
	<note>
		Iacute
  </note>
	<outline>
		<contour>
			<point x="456" y="0" type="line"/>
			<point x="456" y="717" type="line"/>
			<point x="327" y="717" type="line"/>
			<point x="327" y="0" type="line"/>
		</contour>
		<contour>
			<point x="403" y="878" type="line"/>
			<point x="348" y="1000" type="line"/>
			<point x="107" y="860" type="line"/>
			<point x="141" y="784" type="line"/>
		</contour>
	</outline>
</glyph>
<glyph name="Icircumflex" format="2">
	<advance width="751"/>
	<unicode hex="00CE"/>
	<note>
		Icircumflex
  </note>
	<outline>
		<contour>
			<point x="456" y="0" type="line"/>
			<point x="456" y="717" type="line"/>
			<point x="327" y="717" type="line"/>
			<point x="327" y="0" type="line"/>
		</contour>
		<contour>
			<point x="316" y="784" type="line"/>
			<point x="377" y="868" type="line"/>
			<point x="143" y="1001" type="line"/>
			<point x="-92" y="868" type="line"/>
			<point x="-32" y="784" type="line"/>
			<point x="143" y="875" type="line"/>
		</contour>
	</outline>
</glyph>
<glyph name="Ntilde" format="2">
	<advance width="752"/>
	<unicode hex="00D1"/>
	<note>
		Ntilde
  </note>
	<outline>
		<contour>
			<point x="692" y="56" type="line"/>
			<point x="692" y="717" type="line"/>
			<point x="562" y="717" type="line"/>
			<point x="562" y="212" type="line"/>
			<point x="187" y="708" type="line" smooth="yes"/>
			<point x="176" y="722"/>
			<point x="153" y="726" type="qcurve" smooth="yes"/>
			<point x="134" y="729"/>
			<point x="116" y="722" type="qcurve" smooth="yes"/>
			<point x="99" y="716"/>
			<point x="87" y="698" type="qcurve" smooth="yes"/>
			<point x="76" y="681"/>
			<point x="76" y="661" type="qcurve" smooth="yes"/>
			<point x="76" y="0" type="line"/>
			<point x="205" y="0" type="line"/>
			<point x="205" y="505" type="line"/>
			<point x="580" y="9" type="line" smooth="yes"/>
			<point x="588" y="-1"/>
			<point x="602" y="-5" type="qcurve" smooth="yes"/>
			<point x="616" y="-10"/>
			<point x="627" y="-10" type="qcurve" smooth="yes"/>
			<point x="640" y="-10"/>
			<point x="652" y="-5" type="qcurve" smooth="yes"/>
			<point x="664" y="0"/>
			<point x="672" y="8" type="qcurve" smooth="yes"/>
			<point x="681" y="17"/>
			<point x="687" y="29" type="qcurve" smooth="yes"/>
			<point x="692" y="41"/>
			<point x="692" y="56" type="qcurve"/>
		</contour>
		<contour>
			<point x="631" y="920" type="line"/>
			<point x="543" y="920" type="line"/>
			<point x="541" y="905" type="line" smooth="yes"/>
			<point x="535" y="885" type="line" smooth="yes"/>
			<point x="530" y="876"/>
			<point x="521" y="868" type="qcurve" smooth="yes"/>
			<point x="512" y="860"/>
			<point x="497" y="860" type="qcurve" smooth="yes"/>
			<point x="480" y="860"/>
			<point x="465" y="870" type="qcurve" smooth="yes"/>
			<point x="436" y="890" type="line" smooth="yes"/>
			<point x="404" y="911" type="line" smooth="yes"/>
			<point x="387" y="920"/>
			<point x="363" y="920" type="qcurve" smooth="yes"/>
			<point x="337" y="920"/>
			<point x="315" y="910" type="qcurve" smooth="yes"/>
			<point x="292" y="899"/>
			<point x="275" y="877" type="qcurve" smooth="yes"/>
			<point x="257" y="856"/>
			<point x="247" y="823" type="qcurve" smooth="yes"/>
			<point x="237" y="791"/>
			<point x="237" y="748" type="qcurve"/>
			<point x="325" y="748" type="line"/>
			<point x="328" y="763" type="line" smooth="yes"/>
			<point x="333" y="784" type="line" smooth="yes"/>
			<point x="338" y="794"/>
			<point x="347" y="801" type="qcurve" smooth="yes"/>
			<point x="356" y="809"/>
			<point x="371" y="809" type="qcurve" smooth="yes"/>
			<point x="387" y="809"/>
			<point x="400" y="800" type="qcurve" smooth="yes"/>
			<point x="427" y="779" type="line" smooth="yes"/>
			<point x="441" y="768"/>
			<point x="460" y="758" type="qcurve" smooth="yes"/>
			<point x="479" y="748"/>
			<point x="505" y="748" type="qcurve" smooth="yes"/>
			<point x="531" y="748"/>
			<point x="554" y="757" type="qcurve" smooth="yes"/>
			<point x="576" y="766"/>
			<point x="593" y="786" type="qcurve" smooth="yes"/>
			<point x="611" y="807"/>
			<point x="621" y="840" type="qcurve" smooth="yes"/>
			<point x="631" y="872"/>
			<point x="631" y="920" type="qcurve"/>
		</contour>
	</outline>
</glyph>
<glyph name="multiply" format="2">
	<advance width="593"/>
	<unicode hex="00D7"/>
	<note>
		multiply
  </note>
	<outline>
		<contour>
			<point x="547" y="535" type="line"/>
			<point x="399" y="535" type="line"/>
			<point x="296" y="432" type="line"/>
			<point x="194" y="535" type="line"/>
			<point x="47" y="535" type="line"/>
			<point x="223" y="359" type="line"/>
			<point x="47" y="183" type="line"/>
			<point x="194" y="183" type="line"/>
			<point x="296" y="284" type="line"/>
			<point x="399" y="183" type="line"/>
			<point x="547" y="183" type="line"/>
			<point x="371" y="359" type="line"/>
		</contour>
	</outline>
</glyph>
<glyph name="agrave" format="2">
	<advance width="748"/>
	<unicode hex="00E0"/>
	<note>
		agrave
  </note>
	<outline>
		<contour>
			<point x="679" y="179" type="line"/>
			<point x="679" y="361" type="line" smooth="yes"/>
			<point x="679" y="411"/>
			<point x="661" y="445" type="qcurve" smooth="yes"/>
			<point x="643" y="479"/>
			<point x="616" y="500" type="qcurve" smooth="yes"/>
			<point x="589" y="521"/>
			<point x="558" y="531" type="qcurve" smooth="yes"/>
			<point x="527" y="540"/>
			<point x="500" y="540" type="qcurve" smooth="yes"/>
			<point x="215" y="540" type="line"/>
			<point x="215" y="417" type="line"/>
			<point x="500" y="417" type="line" smooth="yes"/>
			<point x="524" y="417"/>
			<point x="540" y="402" type="qcurve" smooth="yes"/>
			<point x="556" y="387"/>
			<point x="556" y="361" type="qcurve" smooth="yes"/>
			<point x="556" y="180" type="line" smooth="yes"/>
			<point x="556" y="156"/>
			<point x="541" y="140" type="qcurve" smooth="yes"/>
			<point x="527" y="124"/>
			<point x="500" y="124" type="qcurve" smooth="yes"/>
			<point x="267" y="124" type="line" smooth="yes"/>
			<point x="244" y="124"/>
			<point x="227" y="138" type="qcurve" smooth="yes"/>
			<point x="210" y="152"/>
			<point x="210" y="178" type="qcurve" smooth="yes"/>
			<point x="210" y="202"/>
			<point x="224" y="218" type="qcurve" smooth="yes"/>
			<point x="239" y="235"/>
			<point x="265" y="235" type="qcurve" smooth="yes"/>
			<point x="500" y="235" type="line"/>
			<point x="500" y="359" type="line"/>
			<point x="265" y="359" type="line" smooth="yes"/>
			<point x="216" y="359"/>
			<point x="182" y="341" type="qcurve" smooth="yes"/>
			<point x="148" y="323"/>
			<point x="127" y="296" type="qcurve" smooth="yes"/>
			<point x="105" y="269"/>
			<point x="96" y="238" type="qcurve" smooth="yes"/>
			<point x="87" y="206"/>
			<point x="87" y="179" type="qcurve" smooth="yes"/>
			<point x="87" y="130"/>
			<point x="105" y="96" type="qcurve" smooth="yes"/>
			<point x="123" y="61"/>
			<point x="149" y="40" type="qcurve" smooth="yes"/>
			<point x="176" y="19"/>
			<point x="207" y="10" type="qcurve" smooth="yes"/>
			<point x="239" y="0"/>
			<point x="265" y="0" type="qcurve" smooth="yes"/>
			<point x="500" y="0" type="line" smooth="yes"/>
			<point x="549" y="0"/>
			<point x="583" y="18" type="qcurve" smooth="yes"/>
			<point x="617" y="36"/>
			<point x="639" y="63" type="qcurve" smooth="yes"/>
			<point x="660" y="89"/>
			<point x="670" y="121" type="qcurve" smooth="yes"/>
			<point x="679" y="152"/>
			<point x="679" y="179" type="qcurve"/>
		</contour>
		<contour>
			<point x="176" y="825" type="line"/>
			<point x="120" y="704" type="line"/>
			<point x="381" y="610" type="line"/>
			<point x="416" y="685" type="line"/>
		</contour>
	</outline>
</glyph>
<glyph name="ccedilla" format="2">
	<advance width="631"/>
	<unicode hex="00E7"/>
	<note>
		ccedilla
  </note>
	<outline>
		<contour>
			<point x="584" y="0" type="line"/>
			<point x="584" y="130" type="line"/>
			<point x="233" y="130" type="line" smooth="yes"/>
			<point x="207" y="130"/>
			<point x="194" y="143" type="qcurve" smooth="yes"/>
			<point x="180" y="157"/>
			<point x="180" y="183" type="qcurve" smooth="yes"/>
			<point x="180" y="357" type="line" smooth="yes"/>
			<point x="180" y="384"/>
			<point x="193" y="398" type="qcurve" smooth="yes"/>
			<point x="207" y="411"/>
			<point x="232" y="411" type="qcurve" smooth="yes"/>
			<point x="584" y="411" type="line"/>
			<point x="584" y="540" type="line"/>
			<point x="232" y="540" type="line" smooth="yes"/>
			<point x="199" y="540"/>
			<point x="172" y="532" type="qcurve" smooth="yes"/>
			<point x="145" y="524"/>
			<point x="125" y="509" type="qcurve" smooth="yes"/>
			<point x="105" y="496"/>
			<point x="91" y="477" type="qcurve" smooth="yes"/>
			<point x="76" y="459"/>
			<point x="68" y="438" type="qcurve" smooth="yes"/>
			<point x="59" y="418"/>
			<point x="54" y="397" type="qcurve" smooth="yes"/>
			<point x="50" y="377"/>
			<point x="50" y="359" type="qcurve" smooth="yes"/>
			<point x="50" y="183" type="line" smooth="yes"/>
			<point x="50" y="132"/>
			<point x="68" y="97" type="qcurve" smooth="yes"/>
			<point x="87" y="63"/>
			<point x="113" y="40" type="qcurve" smooth="yes"/>
			<point x="141" y="19"/>
			<point x="173" y="10" type="qcurve" smooth="yes"/>
			<point x="205" y="0"/>
			<point x="232" y="0" type="qcurve" smooth="yes"/>
			<point x="308" y="0" type="line"/>
			<point x="269" y="-104" type="line"/>
			<point x="292" y="-100" type="line" smooth="yes"/>
			<point x="316" y="-100" type="line" smooth="yes"/>
			<point x="334" y="-100" type="line" smooth="yes"/>
			<point x="344" y="-100"/>
			<point x="353" y="-103" type="qcurve" smooth="yes"/>
			<point x="363" y="-106"/>
			<point x="369" y="-111" type="qcurve" smooth="yes"/>
			<point x="375" y="-116"/>
			<point x="375" y="-124" type="qcurve" smooth="yes"/>
			<point x="375" y="-138"/>
			<point x="356" y="-144" type="qcurve" smooth="yes"/>
			<point x="336" y="-149"/>
			<point x="308" y="-149" type="qcurve" smooth="yes"/>
			<point x="280" y="-149"/>
			<point x="254" y="-143" type="qcurve" smooth="yes"/>
			<point x="228" y="-136"/>
			<point x="208" y="-127" type="qcurve"/>
			<point x="208" y="-215" type="line"/>
			<point x="226" y="-218" type="line" smooth="yes"/>
			<point x="248" y="-222" type="line" smooth="yes"/>
			<point x="276" y="-225" type="line" smooth="yes"/>
			<point x="319" y="-227" type="line" smooth="yes"/>
			<point x="347" y="-227"/>
			<point x="376" y="-222" type="qcurve" smooth="yes"/>
			<point x="404" y="-216"/>
			<point x="427" y="-204" type="qcurve" smooth="yes"/>
			<point x="449" y="-192"/>
			<point x="464" y="-173" type="qcurve" smooth="yes"/>
			<point x="478" y="-153"/>
			<point x="478" y="-125" type="qcurve" smooth="yes"/>
			<point x="478" y="-96"/>
			<point x="467" y="-79" type="qcurve" smooth="yes"/>
			<point x="456" y="-61"/>
			<point x="440" y="-52" type="qcurve" smooth="yes"/>
			<point x="424" y="-42"/>
			<point x="405" y="-38" type="qcurve" smooth="yes"/>
			<point x="372" y="-35" type="line"/>
			<point x="385" y="0" type="line"/>
		</contour>
	</outline>
</glyph>
<glyph name="igrave" format="2">
	<advance width="256"/>
	<unicode hex="00EC"/>
	<note>
		igrave
  </note>
	<outline>
		<contour>
			<point x="193" y="0" type="line"/>
			<point x="193" y="540" type="line"/>
			<point x="63" y="540" type="line"/>
			<point x="63" y="0" type="line"/>
		</contour>
		<contour>
			<point x="-12" y="825" type="line"/>
			<point x="-67" y="704" type="line"/>
			<point x="194" y="610" type="line"/>
			<point x="229" y="685" type="line"/>
		</contour>
	</outline>
</glyph>
<glyph name="iacute" format="2">
	<advance width="256"/>
	<unicode hex="00ED"/>
	<note>
		iacute
  </note>
	<outline>
		<contour>
			<point x="193" y="0" type="line"/>
			<point x="193" y="540" type="line"/>
			<point x="63" y="540" type="line"/>
			<point x="63" y="0" type="line"/>
		</contour>
		<contour>
			<point x="394" y="704" type="line"/>
			<point x="339" y="825" type="line"/>
			<point x="99" y="685" type="line"/>
			<point x="133" y="610" type="line"/>
		</contour>
	</outline>
</glyph>
<glyph name="icircumflex" format="2">
	<advance width="256"/>
	<unicode hex="00EE"/>
	<note>
		icircumflex
  </note>
	<outline>
		<contour>
			<point x="193" y="0" type="line"/>
			<point x="193" y="540" type="line"/>
			<point x="63" y="540" type="line"/>
			<point x="63" y="0" type="line"/>
		</contour>
		<contour>
			<point x="304" y="580" type="line"/>
			<point x="364" y="664" type="line"/>
			<point x="129" y="796" type="line"/>
			<point x="-105" y="664" type="line"/>
			<point x="-44" y="580" type="line"/>
			<point x="129" y="669" type="line"/>
		</contour>
	</outline>
</glyph>
<glyph name="uni0104" format="2">
	<advance width="855"/>
	<unicode hex="0104"/>
	<note>
		uni0104
  </note>
	<outline>
		<contour>
			<point x="779" y="0" type="line"/>
			<point x="779" y="652" type="line" smooth="yes"/>
			<point x="779" y="665"/>
			<point x="774" y="677" type="qcurve" smooth="yes"/>
			<point x="769" y="689"/>
			<point x="760" y="698" type="qcurve" smooth="yes"/>
			<point x="751" y="707"/>
			<point x="739" y="712" type="qcurve" smooth="yes"/>
			<point x="727" y="717"/>
			<point x="713" y="717" type="qcurve" smooth="yes"/>
			<point x="420" y="717" type="line" smooth="yes"/>
			<point x="343" y="717"/>
			<point x="278" y="690" type="qcurve" smooth="yes"/>
			<point x="212" y="664"/>
			<point x="164" y="616" type="qcurve" smooth="yes"/>
			<point x="116" y="569"/>
			<point x="89" y="503" type="qcurve" smooth="yes"/>
			<point x="62" y="437"/>
			<point x="62" y="359" type="qcurve" smooth="yes"/>
			<point x="62" y="0" type="line"/>
			<point x="192" y="0" type="line"/>
			<point x="192" y="176" type="line"/>
			<point x="649" y="176" type="line"/>
			<point x="649" y="0" type="line"/>
			<point x="656" y="0" type="line"/>
			<point x="639" y="-12"/>
			<point x="627" y="-28" type="qcurve" smooth="yes"/>
			<point x="615" y="-44"/>
			<point x="608" y="-60" type="qcurve" smooth="yes"/>
			<point x="600" y="-77"/>
			<point x="597" y="-93" type="qcurve" smooth="yes"/>
			<point x="593" y="-109"/>
			<point x="593" y="-123" type="qcurve" smooth="yes"/>
			<point x="593" y="-149"/>
			<point x="604" y="-167" type="qcurve" smooth="yes"/>
			<point x="614" y="-185"/>
			<point x="632" y="-196" type="qcurve" smooth="yes"/>
			<point x="649" y="-207"/>
			<point x="673" y="-212" type="qcurve" smooth="yes"/>
			<point x="696" y="-217"/>
			<point x="724" y="-217" type="qcurve" smooth="yes"/>
			<point x="751" y="-217"/>
			<point x="773" y="-214" type="qcurve" smooth="yes"/>
			<point x="812" y="-208" type="line" smooth="yes"/>
			<point x="842" y="-201" type="line" smooth="yes"/>
			<point x="864" y="-195" type="line"/>
			<point x="864" y="-101" type="line"/>
			<point x="841" y="-110" type="line" smooth="yes"/>
			<point x="812" y="-118" type="line" smooth="yes"/>
			<point x="782" y="-124" type="line" smooth="yes"/>
			<point x="755" y="-127" type="line" smooth="yes"/>
			<point x="726" y="-127"/>
			<point x="713" y="-120" type="qcurve" smooth="yes"/>
			<point x="700" y="-112"/>
			<point x="700" y="-93" type="qcurve" smooth="yes"/>
			<point x="700" y="-71"/>
			<point x="714" y="-46" type="qcurve" smooth="yes"/>
			<point x="729" y="-21"/>
			<point x="755" y="0" type="qcurve"/>
		</contour>
		<contour>
			<point x="192" y="306" type="line"/>
			<point x="192" y="359" type="line" smooth="yes"/>
			<point x="192" y="413"/>
			<point x="207" y="451" type="qcurve" smooth="yes"/>
			<point x="223" y="489"/>
			<point x="246" y="515" type="qcurve" smooth="yes"/>
			<point x="269" y="540"/>
			<point x="297" y="555" type="qcurve" smooth="yes"/>
			<point x="325" y="569"/>
			<point x="351" y="576" type="qcurve" smooth="yes"/>
			<point x="376" y="584"/>
			<point x="395" y="585" type="qcurve" smooth="yes"/>
			<point x="420" y="587" type="line" smooth="yes"/>
			<point x="649" y="587" type="line"/>
			<point x="649" y="306" type="line"/>
		</contour>
	</outline>
</glyph>
<glyph name="cacute" format="2">
	<advance width="749"/>
	<unicode hex="0107"/>
	<note>
		cacute
  </note>
	<outline>
		<contour>
			<point x="635" y="0" type="line"/>
			<point x="635" y="130" type="line"/>
			<point x="268" y="130" type="line" smooth="yes"/>
			<point x="242" y="130"/>
			<point x="228" y="143" type="qcurve" smooth="yes"/>
			<point x="215" y="157"/>
			<point x="215" y="183" type="qcurve" smooth="yes"/>
			<point x="215" y="357" type="line" smooth="yes"/>
			<point x="215" y="384"/>
			<point x="228" y="398" type="qcurve" smooth="yes"/>
			<point x="241" y="411"/>
			<point x="267" y="411" type="qcurve" smooth="yes"/>
			<point x="635" y="411" type="line"/>
			<point x="635" y="540" type="line"/>
			<point x="267" y="540" type="line" smooth="yes"/>
			<point x="233" y="540"/>
			<point x="207" y="532" type="qcurve" smooth="yes"/>
			<point x="180" y="524"/>
			<point x="160" y="509" type="qcurve" smooth="yes"/>
			<point x="140" y="496"/>
			<point x="126" y="477" type="qcurve" smooth="yes"/>
			<point x="112" y="459"/>
			<point x="103" y="438" type="qcurve" smooth="yes"/>
			<point x="93" y="418"/>
			<point x="89" y="397" type="qcurve" smooth="yes"/>
			<point x="85" y="377"/>
			<point x="85" y="359" type="qcurve" smooth="yes"/>
			<point x="85" y="183" type="line" smooth="yes"/>
			<point x="85" y="132"/>
			<point x="103" y="97" type="qcurve" smooth="yes"/>
			<point x="121" y="63"/>
			<point x="148" y="40" type="qcurve" smooth="yes"/>
			<point x="176" y="19"/>
			<point x="208" y="10" type="qcurve" smooth="yes"/>
			<point x="240" y="0"/>
			<point x="267" y="0" type="qcurve" smooth="yes"/>
		</contour>
		<contour>
			<point x="620" y="673" type="line"/>
			<point x="565" y="795" type="line"/>
			<point x="324" y="655" type="line"/>
			<point x="359" y="580" type="line"/>
		</contour>
	</outline>
</glyph>
<glyph name="Ccaron" format="2">
	<advance width="752"/>
	<unicode hex="010C"/>
	<note>
		Ccaron
  </note>
	<outline>
		<contour>
			<point x="672" y="0" type="line"/>
			<point x="672" y="130" type="line"/>
			<point x="248" y="130" type="line" smooth="yes"/>
			<point x="224" y="130"/>
			<point x="210" y="144" type="qcurve" smooth="yes"/>
			<point x="196" y="157"/>
			<point x="196" y="183" type="qcurve" smooth="yes"/>
			<point x="196" y="533" type="line" smooth="yes"/>
			<point x="196" y="560"/>
			<point x="210" y="574" type="qcurve" smooth="yes"/>
			<point x="223" y="587"/>
			<point x="248" y="587" type="qcurve" smooth="yes"/>
			<point x="672" y="587" type="line"/>
			<point x="672" y="717" type="line"/>
			<point x="248" y="717" type="line" smooth="yes"/>
			<point x="215" y="717"/>
			<point x="188" y="708" type="qcurve" smooth="yes"/>
			<point x="162" y="700"/>
			<point x="141" y="685" type="qcurve" smooth="yes"/>
			<point x="121" y="672"/>
			<point x="107" y="653" type="qcurve" smooth="yes"/>
			<point x="92" y="635"/>
			<point x="84" y="614" type="qcurve" smooth="yes"/>
			<point x="75" y="594"/>
			<point x="70" y="573" type="qcurve" smooth="yes"/>
			<point x="66" y="552"/>
			<point x="66" y="535" type="qcurve" smooth="yes"/>
			<point x="66" y="183" type="line" smooth="yes"/>
			<point x="66" y="149"/>
			<point x="74" y="122" type="qcurve" smooth="yes"/>
			<point x="83" y="96"/>
			<point x="97" y="75" type="qcurve" smooth="yes"/>
			<point x="112" y="55"/>
			<point x="130" y="41" type="qcurve" smooth="yes"/>
			<point x="148" y="27"/>
			<point x="168" y="17" type="qcurve" smooth="yes"/>
			<point x="189" y="8"/>
			<point x="210" y="4" type="qcurve" smooth="yes"/>
			<point x="231" y="0"/>
			<point x="248" y="0" type="qcurve" smooth="yes"/>
		</contour>
		<contour>
			<point x="236" y="961" type="line"/>
			<point x="175" y="877" type="line"/>
			<point x="409" y="744" type="line"/>
			<point x="644" y="877" type="line"/>
			<point x="584" y="961" type="line"/>
			<point x="409" y="872" type="line"/>
		</contour>
	</outline>
</glyph>
<glyph name="ccaron" format="2">
	<advance width="749"/>
	<unicode hex="010D"/>
	<note>
		ccaron
  </note>
	<outline>
		<contour>
			<point x="635" y="0" type="line"/>
			<point x="635" y="130" type="line"/>
			<point x="268" y="130" type="line" smooth="yes"/>
			<point x="242" y="130"/>
			<point x="228" y="143" type="qcurve" smooth="yes"/>
			<point x="215" y="157"/>
			<point x="215" y="183" type="qcurve" smooth="yes"/>
			<point x="215" y="357" type="line" smooth="yes"/>
			<point x="215" y="384"/>
			<point x="228" y="398" type="qcurve" smooth="yes"/>
			<point x="241" y="411"/>
			<point x="267" y="411" type="qcurve" smooth="yes"/>
			<point x="635" y="411" type="line"/>
			<point x="635" y="540" type="line"/>
			<point x="267" y="540" type="line" smooth="yes"/>
			<point x="233" y="540"/>
			<point x="207" y="532" type="qcurve" smooth="yes"/>
			<point x="180" y="524"/>
			<point x="160" y="509" type="qcurve" smooth="yes"/>
			<point x="140" y="496"/>
			<point x="126" y="477" type="qcurve" smooth="yes"/>
			<point x="112" y="459"/>
			<point x="103" y="438" type="qcurve" smooth="yes"/>
			<point x="93" y="418"/>
			<point x="89" y="397" type="qcurve" smooth="yes"/>
			<point x="85" y="377"/>
			<point x="85" y="359" type="qcurve" smooth="yes"/>
			<point x="85" y="183" type="line" smooth="yes"/>
			<point x="85" y="132"/>
			<point x="103" y="97" type="qcurve" smooth="yes"/>
			<point x="121" y="63"/>
			<point x="148" y="40" type="qcurve" smooth="yes"/>
			<point x="176" y="19"/>
			<point x="208" y="10" type="qcurve" smooth="yes"/>
			<point x="240" y="0"/>
			<point x="267" y="0" type="qcurve" smooth="yes"/>
		</contour>
		<contour>
			<point x="171" y="787" type="line"/>
			<point x="111" y="703" type="line"/>
			<point x="345" y="569" type="line"/>
			<point x="580" y="703" type="line"/>
			<point x="519" y="787" type="line"/>
			<point x="345" y="696" type="line"/>
		</contour>
	</outline>
</glyph>
<glyph name="uni0112" format="2">
	<advance width="749"/>
	<unicode hex="0112"/>
	<note>
		uni0112
  </note>
	<outline>
		<contour>
			<point x="703" y="0" type="line"/>
			<point x="703" y="132" type="line"/>
			<point x="102" y="132" type="line"/>
			<point x="102" y="0" type="line"/>
		</contour>
		<contour>
			<point x="568" y="583" type="line"/>
			<point x="568" y="713" type="line"/>
			<point x="-3" y="713" type="line"/>
			<point x="-3" y="583" type="line"/>
		</contour>
		<contour>
			<point x="504" y="323" type="line"/>
			<point x="504" y="444" type="line"/>
			<point x="99" y="444" type="line"/>
			<point x="99" y="323" type="line"/>
		</contour>
		<contour>
			<point x="240" y="775" type="line"/>
			<point x="576" y="775" type="line"/>
			<point x="576" y="893" type="line"/>
			<point x="240" y="893" type="line"/>
		</contour>
	</outline>
</glyph>
<glyph name="uni0118" format="2">
	<advance width="773"/>
	<unicode hex="0118"/>
	<note>
		uni0118
  </note>
	<outline>
		<contour>
			<point x="724" y="0" type="line"/>
			<point x="724" y="130" type="line"/>
			<point x="256" y="130" type="line" smooth="yes"/>
			<point x="229" y="130"/>
			<point x="216" y="143" type="qcurve" smooth="yes"/>
			<point x="203" y="157"/>
			<point x="203" y="183" type="qcurve" smooth="yes"/>
			<point x="203" y="587" type="line"/>
			<point x="724" y="587" type="line"/>
			<point x="724" y="717" type="line"/>
			<point x="138" y="717" type="line" smooth="yes"/>
			<point x="124" y="717"/>
			<point x="112" y="712" type="qcurve" smooth="yes"/>
			<point x="100" y="707"/>
			<point x="91" y="698" type="qcurve" smooth="yes"/>
			<point x="83" y="689"/>
			<point x="78" y="677" type="qcurve" smooth="yes"/>
			<point x="72" y="665"/>
			<point x="72" y="652" type="qcurve" smooth="yes"/>
			<point x="72" y="183" type="line" smooth="yes"/>
			<point x="72" y="132"/>
			<point x="91" y="97" type="qcurve" smooth="yes"/>
			<point x="109" y="63"/>
			<point x="136" y="40" type="qcurve" smooth="yes"/>
			<point x="164" y="19"/>
			<point x="196" y="10" type="qcurve" smooth="yes"/>
			<point x="228" y="0"/>
			<point x="255" y="0" type="qcurve" smooth="yes"/>
			<point x="516" y="0" type="line"/>
			<point x="498" y="-12"/>
			<point x="486" y="-28" type="qcurve" smooth="yes"/>
			<point x="467" y="-60" type="line" smooth="yes"/>
			<point x="460" y="-77"/>
			<point x="457" y="-93" type="qcurve" smooth="yes"/>
			<point x="453" y="-109"/>
			<point x="453" y="-123" type="qcurve" smooth="yes"/>
			<point x="453" y="-149"/>
			<point x="464" y="-167" type="qcurve" smooth="yes"/>
			<point x="474" y="-185"/>
			<point x="492" y="-196" type="qcurve" smooth="yes"/>
			<point x="509" y="-207"/>
			<point x="533" y="-212" type="qcurve" smooth="yes"/>
			<point x="556" y="-217"/>
			<point x="584" y="-217" type="qcurve" smooth="yes"/>
			<point x="611" y="-217"/>
			<point x="633" y="-214" type="qcurve" smooth="yes"/>
			<point x="672" y="-208" type="line" smooth="yes"/>
			<point x="702" y="-201" type="line" smooth="yes"/>
			<point x="724" y="-195" type="line"/>
			<point x="724" y="-101" type="line"/>
			<point x="701" y="-110" type="line" smooth="yes"/>
			<point x="672" y="-118" type="line" smooth="yes"/>
			<point x="642" y="-124" type="line" smooth="yes"/>
			<point x="614" y="-127" type="line" smooth="yes"/>
			<point x="585" y="-127"/>
			<point x="573" y="-120" type="qcurve" smooth="yes"/>
			<point x="560" y="-112"/>
			<point x="560" y="-93" type="qcurve" smooth="yes"/>
			<point x="560" y="-71"/>
			<point x="574" y="-46" type="qcurve" smooth="yes"/>
			<point x="588" y="-21"/>
			<point x="614" y="0" type="qcurve"/>
		</contour>
		<contour>
			<point x="665" y="293" type="line"/>
			<point x="665" y="424" type="line"/>
			<point x="255" y="424" type="line"/>
			<point x="255" y="293" type="line"/>
		</contour>
	</outline>
</glyph>
<glyph name="uni011a" format="2">
	<advance width="749"/>
	<unicode hex="011A"/>
	<note>
		uni011a
  </note>
	<outline>
		<contour>
			<point x="703" y="0" type="line"/>
			<point x="703" y="132" type="line"/>
			<point x="102" y="132" type="line"/>
			<point x="102" y="0" type="line"/>
		</contour>
		<contour>
			<point x="568" y="583" type="line"/>
			<point x="568" y="713" type="line"/>
			<point x="-3" y="713" type="line"/>
			<point x="-3" y="583" type="line"/>
		</contour>
		<contour>
			<point x="504" y="323" type="line"/>
			<point x="504" y="444" type="line"/>
			<point x="99" y="444" type="line"/>
			<point x="99" y="323" type="line"/>
		</contour>
		<contour>
			<point x="233" y="961" type="line"/>
			<point x="173" y="877" type="line"/>
			<point x="408" y="744" type="line"/>
			<point x="642" y="877" type="line"/>
			<point x="581" y="961" type="line"/>
			<point x="408" y="872" type="line"/>
		</contour>
	</outline>
</glyph>
<glyph name="uni011c" format="2">
	<advance width="748"/>
	<unicode hex="011C"/>
	<note>
		uni011c
  </note>
	<outline>
		<contour>
			<point x="678" y="65" type="line"/>
			<point x="678" y="359" type="line" smooth="yes"/>
			<point x="678" y="372"/>
			<point x="673" y="384" type="qcurve" smooth="yes"/>
			<point x="668" y="396"/>
			<point x="659" y="404" type="qcurve" smooth="yes"/>
			<point x="651" y="413"/>
			<point x="639" y="419" type="qcurve" smooth="yes"/>
			<point x="627" y="424"/>
			<point x="612" y="424" type="qcurve" smooth="yes"/>
			<point x="307" y="424" type="line"/>
			<point x="307" y="293" type="line"/>
			<point x="548" y="293" type="line"/>
			<point x="548" y="130" type="line"/>
			<point x="248" y="130" type="line" smooth="yes"/>
			<point x="224" y="130"/>
			<point x="210" y="144" type="qcurve" smooth="yes"/>
			<point x="196" y="157"/>
			<point x="196" y="183" type="qcurve" smooth="yes"/>
			<point x="196" y="533" type="line" smooth="yes"/>
			<point x="196" y="560"/>
			<point x="210" y="574" type="qcurve" smooth="yes"/>
			<point x="223" y="587"/>
			<point x="248" y="587" type="qcurve" smooth="yes"/>
			<point x="672" y="587" type="line"/>
			<point x="672" y="717" type="line"/>
			<point x="248" y="717" type="line" smooth="yes"/>
			<point x="215" y="717"/>
			<point x="188" y="708" type="qcurve" smooth="yes"/>
			<point x="162" y="700"/>
			<point x="141" y="685" type="qcurve" smooth="yes"/>
			<point x="121" y="672"/>
			<point x="107" y="653" type="qcurve" smooth="yes"/>
			<point x="92" y="635"/>
			<point x="84" y="614" type="qcurve" smooth="yes"/>
			<point x="75" y="594"/>
			<point x="70" y="573" type="qcurve" smooth="yes"/>
			<point x="66" y="552"/>
			<point x="66" y="535" type="qcurve" smooth="yes"/>
			<point x="66" y="183" type="line" smooth="yes"/>
			<point x="66" y="149"/>
			<point x="74" y="122" type="qcurve" smooth="yes"/>
			<point x="83" y="96"/>
			<point x="97" y="75" type="qcurve" smooth="yes"/>
			<point x="112" y="55"/>
			<point x="130" y="41" type="qcurve" smooth="yes"/>
			<point x="148" y="27"/>
			<point x="168" y="17" type="qcurve" smooth="yes"/>
			<point x="189" y="8"/>
			<point x="210" y="4" type="qcurve" smooth="yes"/>
			<point x="231" y="0"/>
			<point x="248" y="0" type="qcurve" smooth="yes"/>
			<point x="612" y="0" type="line" smooth="yes"/>
			<point x="627" y="0"/>
			<point x="639" y="5" type="qcurve" smooth="yes"/>
			<point x="651" y="10"/>
			<point x="659" y="19" type="qcurve" smooth="yes"/>
			<point x="668" y="28"/>
			<point x="673" y="40" type="qcurve" smooth="yes"/>
			<point x="678" y="52"/>
			<point x="678" y="65" type="qcurve"/>
		</contour>
		<contour>
			<point x="616" y="755" type="line"/>
			<point x="676" y="839" type="line"/>
			<point x="442" y="972" type="line"/>
			<point x="208" y="839" type="line"/>
			<point x="268" y="755" type="line"/>
			<point x="442" y="844" type="line"/>
		</contour>
	</outline>
</glyph>
<glyph name="uni0124" format="2">
	<advance width="751"/>
	<unicode hex="0124"/>
	<note>
		uni0124
  </note>
	<outline>
		<contour>
			<point x="207" y="424" type="line"/>
			<point x="207" y="717" type="line"/>
			<point x="76" y="717" type="line"/>
			<point x="76" y="0" type="line"/>
			<point x="207" y="0" type="line"/>
			<point x="207" y="293" type="line"/>
			<point x="568" y="293" type="line"/>
			<point x="568" y="0" type="line"/>
			<point x="698" y="0" type="line"/>
			<point x="698" y="717" type="line"/>
			<point x="568" y="717" type="line"/>
			<point x="568" y="424" type="line"/>
		</contour>
		<contour>
			<point x="609" y="755" type="line"/>
			<point x="669" y="839" type="line"/>
			<point x="435" y="972" type="line"/>
			<point x="200" y="839" type="line"/>
			<point x="261" y="755" type="line"/>
			<point x="435" y="844" type="line"/>
		</contour>
	</outline>
</glyph>
<glyph name="uni0125" format="2">
	<advance width="750"/>
	<unicode hex="0125"/>
	<note>
		uni0125
  </note>
	<outline>
		<contour>
			<point x="682" y="0" type="line"/>
			<point x="682" y="359" type="line" smooth="yes"/>
			<point x="682" y="392"/>
			<point x="673" y="418" type="qcurve" smooth="yes"/>
			<point x="665" y="445"/>
			<point x="651" y="465" type="qcurve" smooth="yes"/>
			<point x="637" y="485"/>
			<point x="618" y="500" type="qcurve" smooth="yes"/>
			<point x="600" y="514"/>
			<point x="580" y="523" type="qcurve" smooth="yes"/>
			<point x="560" y="532"/>
			<point x="539" y="536" type="qcurve" smooth="yes"/>
			<point x="519" y="540"/>
			<point x="500" y="540" type="qcurve" smooth="yes"/>
			<point x="265" y="540" type="line"/>
			<point x="265" y="411" type="line"/>
			<point x="500" y="411" type="line" smooth="yes"/>
			<point x="526" y="411"/>
			<point x="539" y="397" type="qcurve" smooth="yes"/>
			<point x="552" y="384"/>
			<point x="552" y="359" type="qcurve" smooth="yes"/>
			<point x="552" y="0" type="line"/>
		</contour>
		<contour>
			<point x="213" y="0" type="line"/>
			<point x="213" y="769" type="line"/>
			<point x="83" y="769" type="line"/>
			<point x="83" y="0" type="line"/>
		</contour>
		<contour>
			<point x="616" y="580" type="line"/>
			<point x="676" y="664" type="line"/>
			<point x="442" y="796" type="line"/>
			<point x="208" y="664" type="line"/>
			<point x="268" y="580" type="line"/>
			<point x="442" y="669" type="line"/>
		</contour>
	</outline>
</glyph>
<glyph name="uni0126" format="2">
	<advance width="869"/>
	<unicode hex="0126"/>
	<note>
		uni0126
  </note>
	<outline>
		<contour>
			<point x="207" y="592" type="line"/>
			<point x="207" y="717" type="line"/>
			<point x="76" y="717" type="line"/>
			<point x="76" y="592" type="line"/>
			<point x="25" y="592" type="line"/>
			<point x="25" y="475" type="line"/>
			<point x="76" y="475" type="line"/>
			<point x="76" y="0" type="line"/>
			<point x="207" y="0" type="line"/>
			<point x="207" y="293" type="line"/>
			<point x="663" y="293" type="line"/>
			<point x="663" y="0" type="line"/>
			<point x="793" y="0" type="line"/>
			<point x="793" y="475" type="line"/>
			<point x="844" y="475" type="line"/>
			<point x="844" y="592" type="line"/>
			<point x="793" y="592" type="line"/>
			<point x="793" y="717" type="line"/>
			<point x="663" y="717" type="line"/>
			<point x="663" y="592" type="line"/>
		</contour>
		<contour>
			<point x="663" y="424" type="line"/>
			<point x="207" y="424" type="line"/>
			<point x="207" y="475" type="line"/>
			<point x="663" y="475" type="line"/>
		</contour>
	</outline>
</glyph>
<glyph name="uni0127" format="2">
	<advance width="720"/>
	<unicode hex="0127"/>
	<note>
		uni0127
  </note>
	<outline>
		<contour>
			<point x="193" y="719" type="line"/>
			<point x="193" y="769" type="line"/>
			<point x="63" y="769" type="line"/>
			<point x="63" y="719" type="line"/>
			<point x="-12" y="719" type="line"/>
			<point x="-12" y="602" type="line"/>
			<point x="63" y="602" type="line"/>
			<point x="63" y="0" type="line"/>
			<point x="193" y="0" type="line"/>
			<point x="193" y="602" type="line"/>
			<point x="267" y="602" type="line"/>
			<point x="267" y="719" type="line"/>
		</contour>
		<contour>
			<point x="662" y="0" type="line"/>
			<point x="662" y="359" type="line" smooth="yes"/>
			<point x="662" y="392"/>
			<point x="654" y="418" type="qcurve" smooth="yes"/>
			<point x="645" y="445"/>
			<point x="631" y="465" type="qcurve" smooth="yes"/>
			<point x="617" y="485"/>
			<point x="598" y="500" type="qcurve" smooth="yes"/>
			<point x="580" y="514"/>
			<point x="560" y="523" type="qcurve" smooth="yes"/>
			<point x="540" y="532"/>
			<point x="519" y="536" type="qcurve" smooth="yes"/>
			<point x="499" y="540"/>
			<point x="480" y="540" type="qcurve" smooth="yes"/>
			<point x="245" y="540" type="line"/>
			<point x="245" y="411" type="line"/>
			<point x="480" y="411" type="line" smooth="yes"/>
			<point x="506" y="411"/>
			<point x="519" y="397" type="qcurve" smooth="yes"/>
			<point x="532" y="384"/>
			<point x="532" y="359" type="qcurve" smooth="yes"/>
			<point x="532" y="0" type="line"/>
		</contour>
	</outline>
</glyph>
<glyph name="uni012a" format="2">
	<advance width="751"/>
	<unicode hex="012A"/>
	<note>
		uni012a
  </note>
	<outline>
		<contour>
			<point x="456" y="0" type="line"/>
			<point x="456" y="717" type="line"/>
			<point x="327" y="717" type="line"/>
			<point x="327" y="0" type="line"/>
		</contour>
		<contour>
			<point x="-25" y="775" type="line"/>
			<point x="311" y="775" type="line"/>
			<point x="311" y="893" type="line"/>
			<point x="-25" y="893" type="line"/>
		</contour>
	</outline>
</glyph>
<glyph name="uni012b" format="2">
	<advance width="256"/>
	<unicode hex="012B"/>
	<note>
		uni012b
  </note>
	<outline>
		<contour>
			<point x="193" y="0" type="line"/>
			<point x="193" y="540" type="line"/>
			<point x="63" y="540" type="line"/>
			<point x="63" y="0" type="line"/>
		</contour>
		<contour>
			<point x="-39" y="600" type="line"/>
			<point x="297" y="600" type="line"/>
			<point x="297" y="718" type="line"/>
			<point x="-39" y="718" type="line"/>
		</contour>
	</outline>
</glyph>
<glyph name="uni012d" format="2">
	<advance width="256"/>
	<unicode hex="012D"/>
	<note>
		uni012d
  </note>
	<outline>
		<contour>
			<point x="193" y="0" type="line"/>
			<point x="193" y="540" type="line"/>
			<point x="63" y="540" type="line"/>
			<point x="63" y="0" type="line"/>
		</contour>
		<contour>
			<point x="333" y="776" type="line"/>
			<point x="240" y="776" type="line"/>
			<point x="230" y="755" type="line" smooth="yes"/>
			<point x="224" y="742"/>
			<point x="211" y="731" type="qcurve" smooth="yes"/>
			<point x="199" y="719"/>
			<point x="179" y="711" type="qcurve" smooth="yes"/>
			<point x="159" y="703"/>
			<point x="129" y="703" type="qcurve" smooth="yes"/>
			<point x="100" y="703"/>
			<point x="80" y="711" type="qcurve" smooth="yes"/>
			<point x="60" y="719"/>
			<point x="48" y="731" type="qcurve" smooth="yes"/>
			<point x="36" y="742"/>
			<point x="29" y="755" type="qcurve" smooth="yes"/>
			<point x="20" y="776" type="line"/>
			<point x="-75" y="776" type="line"/>
			<point x="-70" y="745" type="line" smooth="yes"/>
			<point x="-67" y="726"/>
			<point x="-58" y="704" type="qcurve" smooth="yes"/>
			<point x="-50" y="684"/>
			<point x="-35" y="662" type="qcurve" smooth="yes"/>
			<point x="-21" y="641"/>
			<point x="1" y="624" type="qcurve" smooth="yes"/>
			<point x="24" y="607"/>
			<point x="55" y="596" type="qcurve" smooth="yes"/>
			<point x="87" y="585"/>
			<point x="129" y="585" type="qcurve" smooth="yes"/>
			<point x="172" y="585"/>
			<point x="204" y="596" type="qcurve" smooth="yes"/>
			<point x="235" y="607"/>
			<point x="257" y="624" type="qcurve" smooth="yes"/>
			<point x="280" y="641"/>
			<point x="294" y="662" type="qcurve" smooth="yes"/>
			<point x="308" y="684"/>
			<point x="317" y="704" type="qcurve" smooth="yes"/>
			<point x="329" y="745" type="line" smooth="yes"/>
		</contour>
	</outline>
</glyph>
<glyph name="uni012e" format="2">
	<advance width="283"/>
	<unicode hex="012E"/>
	<note>
		uni012e
  </note>
	<outline>
		<contour>
			<point x="207" y="0" type="line"/>
			<point x="207" y="717" type="line"/>
			<point x="76" y="717" type="line"/>
			<point x="76" y="0" type="line"/>
			<point x="84" y="0" type="line"/>
			<point x="66" y="-12"/>
			<point x="54" y="-28" type="qcurve" smooth="yes"/>
			<point x="35" y="-60" type="line" smooth="yes"/>
			<point x="24" y="-93" type="line" smooth="yes"/>
			<point x="21" y="-123" type="line" smooth="yes"/>
			<point x="21" y="-149"/>
			<point x="31" y="-167" type="qcurve" smooth="yes"/>
			<point x="41" y="-185"/>
			<point x="59" y="-196" type="qcurve" smooth="yes"/>
			<point x="77" y="-207"/>
			<point x="100" y="-212" type="qcurve" smooth="yes"/>
			<point x="124" y="-217"/>
			<point x="151" y="-217" type="qcurve" smooth="yes"/>
			<point x="179" y="-217"/>
			<point x="201" y="-214" type="qcurve" smooth="yes"/>
			<point x="240" y="-208" type="line" smooth="yes"/>
			<point x="270" y="-201" type="line" smooth="yes"/>
			<point x="292" y="-195" type="line"/>
			<point x="292" y="-101" type="line"/>
			<point x="269" y="-110" type="line" smooth="yes"/>
			<point x="240" y="-118" type="line" smooth="yes"/>
			<point x="210" y="-124" type="line" smooth="yes"/>
			<point x="182" y="-127" type="line" smooth="yes"/>
			<point x="153" y="-127"/>
			<point x="140" y="-120" type="qcurve" smooth="yes"/>
			<point x="128" y="-112"/>
			<point x="128" y="-93" type="qcurve" smooth="yes"/>
			<point x="128" y="-71"/>
			<point x="142" y="-46" type="qcurve" smooth="yes"/>
			<point x="156" y="-21"/>
			<point x="182" y="0" type="qcurve"/>
		</contour>
	</outline>
</glyph>
<glyph name="uni012f" format="2">
	<advance width="256"/>
	<unicode hex="012F"/>
	<note>
		uni012f
  </note>
	<outline>
		<contour>
			<point x="193" y="0" type="line"/>
			<point x="193" y="540" type="line"/>
			<point x="63" y="540" type="line"/>
			<point x="63" y="0" type="line"/>
			<point x="72" y="0" type="line"/>
			<point x="55" y="-12"/>
			<point x="43" y="-28" type="qcurve" smooth="yes"/>
			<point x="24" y="-60" type="line" smooth="yes"/>
			<point x="16" y="-77"/>
			<point x="13" y="-93" type="qcurve" smooth="yes"/>
			<point x="10" y="-123" type="line" smooth="yes"/>
			<point x="10" y="-149"/>
			<point x="20" y="-167" type="qcurve" smooth="yes"/>
			<point x="31" y="-185"/>
			<point x="48" y="-196" type="qcurve" smooth="yes"/>
			<point x="65" y="-207"/>
			<point x="89" y="-212" type="qcurve" smooth="yes"/>
			<point x="113" y="-217"/>
			<point x="140" y="-217" type="qcurve" smooth="yes"/>
			<point x="168" y="-217"/>
			<point x="190" y="-214" type="qcurve" smooth="yes"/>
			<point x="228" y="-208" type="line" smooth="yes"/>
			<point x="258" y="-201" type="line" smooth="yes"/>
			<point x="280" y="-195" type="line"/>
			<point x="280" y="-101" type="line"/>
			<point x="258" y="-110" type="line" smooth="yes"/>
			<point x="229" y="-118" type="line" smooth="yes"/>
			<point x="199" y="-124" type="line" smooth="yes"/>
			<point x="171" y="-127" type="line" smooth="yes"/>
			<point x="142" y="-127"/>
			<point x="129" y="-120" type="qcurve" smooth="yes"/>
			<point x="116" y="-112"/>
			<point x="116" y="-93" type="qcurve" smooth="yes"/>
			<point x="116" y="-71"/>
			<point x="131" y="-46" type="qcurve" smooth="yes"/>
			<point x="145" y="-21"/>
			<point x="171" y="0" type="qcurve"/>
		</contour>
		<contour>
			<point x="193" y="652" type="line"/>
			<point x="193" y="769" type="line"/>
			<point x="63" y="769" type="line"/>
			<point x="63" y="652" type="line"/>
		</contour>
	</outline>
</glyph>
<glyph name="uni0133" format="2">
	<advance width="483"/>
	<unicode hex="0133"/>
	<note>
		uni0133
  </note>
	<outline>
		<contour>
			<point x="453" y="652" type="line"/>
			<point x="453" y="769" type="line"/>
			<point x="323" y="769" type="line"/>
			<point x="323" y="652" type="line"/>
		</contour>
		<contour>
			<point x="453" y="0" type="line"/>
			<point x="453" y="540" type="line"/>
			<point x="323" y="540" type="line"/>
			<point x="323" y="0" type="line"/>
		</contour>
		<contour>
			<point x="740" y="652" type="line"/>
			<point x="740" y="769" type="line"/>
			<point x="609" y="769" type="line"/>
			<point x="609" y="652" type="line"/>
		</contour>
		<contour>
			<point x="740" y="-52" type="line"/>
			<point x="740" y="540" type="line"/>
			<point x="609" y="540" type="line"/>
			<point x="609" y="-52" type="line" smooth="yes"/>
			<point x="609" y="-77"/>
			<point x="596" y="-91" type="qcurve" smooth="yes"/>
			<point x="584" y="-104"/>
			<point x="557" y="-104" type="qcurve" smooth="yes"/>
			<point x="223" y="-104" type="line"/>
			<point x="223" y="-235" type="line"/>
			<point x="557" y="-235" type="line" smooth="yes"/>
			<point x="576" y="-235"/>
			<point x="596" y="-230" type="qcurve" smooth="yes"/>
			<point x="617" y="-226"/>
			<point x="637" y="-217" type="qcurve" smooth="yes"/>
			<point x="657" y="-208"/>
			<point x="676" y="-194" type="qcurve" smooth="yes"/>
			<point x="695" y="-180"/>
			<point x="708" y="-159" type="qcurve" smooth="yes"/>
			<point x="723" y="-139"/>
			<point x="731" y="-112" type="qcurve" smooth="yes"/>
			<point x="740" y="-85"/>
			<point x="740" y="-52" type="qcurve"/>
		</contour>
	</outline>
</glyph>
<glyph name="uni0134" format="2">
	<advance width="752"/>
	<unicode hex="0134"/>
	<note>
		uni0134
  </note>
	<outline>
		<contour>
			<point x="679" y="183" type="line"/>
			<point x="679" y="717" type="line"/>
			<point x="548" y="717" type="line"/>
			<point x="548" y="183" type="line" smooth="yes"/>
			<point x="548" y="157"/>
			<point x="534" y="144" type="qcurve" smooth="yes"/>
			<point x="520" y="130"/>
			<point x="496" y="130" type="qcurve" smooth="yes"/>
			<point x="90" y="130" type="line"/>
			<point x="90" y="0" type="line"/>
			<point x="496" y="0" type="line" smooth="yes"/>
			<point x="536" y="0"/>
			<point x="570" y="14" type="qcurve" smooth="yes"/>
			<point x="603" y="28"/>
			<point x="627" y="52" type="qcurve" smooth="yes"/>
			<point x="652" y="76"/>
			<point x="665" y="110" type="qcurve" smooth="yes"/>
			<point x="679" y="144"/>
			<point x="679" y="183" type="qcurve"/>
		</contour>
		<contour>
			<point x="787" y="755" type="line"/>
			<point x="848" y="839" type="line"/>
			<point x="613" y="972" type="line"/>
			<point x="379" y="839" type="line"/>
			<point x="439" y="755" type="line"/>
			<point x="613" y="844" type="line"/>
		</contour>
	</outline>
</glyph>
<glyph name="uni0136" format="2">
	<advance width="753"/>
	<unicode hex="0136"/>
	<note>
		uni0136
  </note>
	<outline>
		<contour>
			<point x="757" y="0" type="line"/>
			<point x="388" y="359" type="line"/>
			<point x="757" y="717" type="line"/>
			<point x="572" y="717" type="line"/>
			<point x="280" y="424" type="line"/>
			<point x="233" y="424" type="line"/>
			<point x="233" y="293" type="line"/>
			<point x="280" y="293" type="line"/>
			<point x="572" y="0" type="line"/>
		</contour>
		<contour>
			<point x="207" y="0" type="line"/>
			<point x="207" y="717" type="line"/>
			<point x="76" y="717" type="line"/>
			<point x="76" y="0" type="line"/>
		</contour>
		<contour>
			<point x="372" y="-291" type="line"/>
			<point x="433" y="-90" type="line"/>
			<point x="335" y="-90" type="line"/>
			<point x="297" y="-291" type="line"/>
		</contour>
	</outline>
</glyph>
<glyph name="uni0138" format="2">
	<advance width="708"/>
	<unicode hex="0138"/>
	<note>
		uni0138
  </note>
	<outline>
		<contour>
			<point x="696" y="0" type="line"/>
			<point x="390" y="295" type="line"/>
			<point x="696" y="541" type="line"/>
			<point x="488" y="541" type="line"/>
			<point x="251" y="350" type="line" smooth="yes"/>
			<point x="240" y="341"/>
			<point x="233" y="329" type="qcurve" smooth="yes"/>
			<point x="227" y="317"/>
			<point x="226" y="303" type="qcurve" smooth="yes"/>
			<point x="224" y="273"/>
			<point x="247" y="253" type="qcurve"/>
			<point x="508" y="0" type="line"/>
		</contour>
		<contour>
			<point x="193" y="0" type="line"/>
			<point x="193" y="769" type="line"/>
			<point x="63" y="769" type="line"/>
			<point x="63" y="0" type="line"/>
		</contour>
	</outline>
</glyph>
<glyph name="uni0139" format="2">
	<advance width="748"/>
	<unicode hex="0139"/>
	<note>
		uni0139
  </note>
	<outline>
		<contour>
			<point x="729" y="0" type="line"/>
			<point x="729" y="130" type="line"/>
			<point x="205" y="130" type="line"/>
			<point x="205" y="717" type="line"/>
			<point x="76" y="717" type="line"/>
			<point x="76" y="65" type="line" smooth="yes"/>
			<point x="76" y="52"/>
			<point x="80" y="40" type="qcurve" smooth="yes"/>
			<point x="85" y="28"/>
			<point x="94" y="19" type="qcurve" smooth="yes"/>
			<point x="103" y="10"/>
			<point x="115" y="5" type="qcurve" smooth="yes"/>
			<point x="127" y="0"/>
			<point x="141" y="0" type="qcurve" smooth="yes"/>
		</contour>
		<contour>
			<point x="405" y="848" type="line"/>
			<point x="351" y="969" type="line"/>
			<point x="110" y="829" type="line"/>
			<point x="144" y="755" type="line"/>
		</contour>
	</outline>
</glyph>
<glyph name="uni013a" format="2">
	<advance width="750"/>
	<unicode hex="013A"/>
	<note>
		uni013a
  </note>
	<outline>
		<contour>
			<point x="613" y="0" type="line"/>
			<point x="613" y="130" type="line"/>
			<point x="345" y="130" type="line" smooth="yes"/>
			<point x="323" y="130"/>
			<point x="308" y="144" type="qcurve" smooth="yes"/>
			<point x="293" y="159"/>
			<point x="293" y="183" type="qcurve" smooth="yes"/>
			<point x="293" y="769" type="line"/>
			<point x="163" y="769" type="line"/>
			<point x="163" y="183" type="line" smooth="yes"/>
			<point x="163" y="132"/>
			<point x="181" y="97" type="qcurve" smooth="yes"/>
			<point x="199" y="63"/>
			<point x="227" y="40" type="qcurve" smooth="yes"/>
			<point x="254" y="19"/>
			<point x="286" y="10" type="qcurve" smooth="yes"/>
			<point x="317" y="0"/>
			<point x="345" y="0" type="qcurve" smooth="yes"/>
		</contour>
		<contour>
			<point x="392" y="892" type="line"/>
			<point x="337" y="1013" type="line"/>
			<point x="96" y="873" type="line"/>
			<point x="131" y="799" type="line"/>
		</contour>
	</outline>
</glyph>
<glyph name="uni013b" format="2">
	<advance width="748"/>
	<unicode hex="013B"/>
	<note>
		uni013b
  </note>
	<outline>
		<contour>
			<point x="729" y="0" type="line"/>
			<point x="729" y="130" type="line"/>
			<point x="205" y="130" type="line"/>
			<point x="205" y="717" type="line"/>
			<point x="76" y="717" type="line"/>
			<point x="76" y="65" type="line" smooth="yes"/>
			<point x="76" y="52"/>
			<point x="80" y="40" type="qcurve" smooth="yes"/>
			<point x="85" y="28"/>
			<point x="94" y="19" type="qcurve" smooth="yes"/>
			<point x="103" y="10"/>
			<point x="115" y="5" type="qcurve" smooth="yes"/>
			<point x="127" y="0"/>
			<point x="141" y="0" type="qcurve" smooth="yes"/>
		</contour>
		<contour>
			<point x="383" y="-291" type="line"/>
			<point x="444" y="-90" type="line"/>
			<point x="345" y="-90" type="line"/>
			<point x="308" y="-291" type="line"/>
		</contour>
	</outline>
</glyph>
<glyph name="uni013d" format="2">
	<advance width="748"/>
	<unicode hex="013D"/>
	<note>
		uni013d
  </note>
	<outline>
		<contour>
			<point x="729" y="0" type="line"/>
			<point x="729" y="130" type="line"/>
			<point x="205" y="130" type="line"/>
			<point x="205" y="717" type="line"/>
			<point x="76" y="717" type="line"/>
			<point x="76" y="65" type="line" smooth="yes"/>
			<point x="76" y="52"/>
			<point x="80" y="40" type="qcurve" smooth="yes"/>
			<point x="85" y="28"/>
			<point x="94" y="19" type="qcurve" smooth="yes"/>
			<point x="103" y="10"/>
			<point x="115" y="5" type="qcurve" smooth="yes"/>
			<point x="127" y="0"/>
			<point x="141" y="0" type="qcurve" smooth="yes"/>
		</contour>
		<contour>
			<point x="383" y="656" type="line"/>
			<point x="444" y="857" type="line"/>
			<point x="346" y="857" type="line"/>
			<point x="309" y="656" type="line"/>
		</contour>
	</outline>
</glyph>
<glyph name="uni013e" format="2">
	<advance width="485"/>
	<unicode hex="013E"/>
	<note>
		uni013e
  </note>
	<outline>
		<contour>
			<point x="613" y="0" type="line"/>
			<point x="613" y="130" type="line"/>
			<point x="345" y="130" type="line" smooth="yes"/>
			<point x="323" y="130"/>
			<point x="308" y="144" type="qcurve" smooth="yes"/>
			<point x="293" y="159"/>
			<point x="293" y="183" type="qcurve" smooth="yes"/>
			<point x="293" y="769" type="line"/>
			<point x="163" y="769" type="line"/>
			<point x="163" y="183" type="line" smooth="yes"/>
			<point x="163" y="132"/>
			<point x="181" y="97" type="qcurve" smooth="yes"/>
			<point x="199" y="63"/>
			<point x="227" y="40" type="qcurve" smooth="yes"/>
			<point x="254" y="19"/>
			<point x="286" y="10" type="qcurve" smooth="yes"/>
			<point x="317" y="0"/>
			<point x="345" y="0" type="qcurve" smooth="yes"/>
		</contour>
		<contour>
			<point x="399" y="481" type="line"/>
			<point x="460" y="682" type="line"/>
			<point x="363" y="682" type="line"/>
			<point x="325" y="481" type="line"/>
		</contour>
	</outline>
</glyph>
<glyph name="Lslash" format="2">
	<advance width="838"/>
	<unicode hex="0141"/>
	<note>
		Lslash
  </note>
	<outline>
		<contour>
			<point x="437" y="403" type="line"/>
			<point x="437" y="540" type="line"/>
			<point x="289" y="466" type="line"/>
			<point x="289" y="717" type="line"/>
			<point x="160" y="717" type="line"/>
			<point x="160" y="400" type="line"/>
			<point x="28" y="335" type="line"/>
			<point x="28" y="197" type="line"/>
			<point x="160" y="263" type="line"/>
			<point x="160" y="65" type="line" smooth="yes"/>
			<point x="160" y="52"/>
			<point x="164" y="40" type="qcurve" smooth="yes"/>
			<point x="169" y="28"/>
			<point x="178" y="19" type="qcurve" smooth="yes"/>
			<point x="187" y="10"/>
			<point x="199" y="5" type="qcurve" smooth="yes"/>
			<point x="211" y="0"/>
			<point x="225" y="0" type="qcurve" smooth="yes"/>
			<point x="818" y="0" type="line"/>
			<point x="818" y="130" type="line"/>
			<point x="289" y="130" type="line"/>
			<point x="289" y="328" type="line"/>
		</contour>
	</outline>
</glyph>
<glyph name="lslash" format="2">
	<advance width="471"/>
	<unicode hex="0142"/>
	<note>
		lslash
  </note>
	<outline>
		<contour>
			<point x="438" y="403" type="line"/>
			<point x="438" y="540" type="line"/>
			<point x="291" y="466" type="line"/>
			<point x="291" y="769" type="line"/>
			<point x="160" y="769" type="line"/>
			<point x="160" y="400" type="line"/>
			<point x="28" y="335" type="line"/>
			<point x="28" y="197" type="line"/>
			<point x="160" y="263" type="line"/>
			<point x="160" y="183" type="line" smooth="yes"/>
			<point x="160" y="149"/>
			<point x="169" y="122" type="qcurve" smooth="yes"/>
			<point x="177" y="96"/>
			<point x="192" y="75" type="qcurve" smooth="yes"/>
			<point x="205" y="55"/>
			<point x="224" y="41" type="qcurve" smooth="yes"/>
			<point x="243" y="27"/>
			<point x="263" y="17" type="qcurve" smooth="yes"/>
			<point x="283" y="8"/>
			<point x="304" y="4" type="qcurve" smooth="yes"/>
			<point x="324" y="0"/>
			<point x="343" y="0" type="qcurve" smooth="yes"/>
			<point x="401" y="0" type="line"/>
			<point x="401" y="130" type="line"/>
			<point x="343" y="130" type="line" smooth="yes"/>
			<point x="320" y="130"/>
			<point x="305" y="144" type="qcurve" smooth="yes"/>
			<point x="291" y="159"/>
			<point x="291" y="183" type="qcurve" smooth="yes"/>
			<point x="291" y="328" type="line"/>
		</contour>
	</outline>
</glyph>
<glyph name="uni0145" format="2">
	<advance width="752"/>
	<unicode hex="0145"/>
	<note>
		uni0145
  </note>
	<outline>
		<contour>
			<point x="692" y="56" type="line"/>
			<point x="692" y="717" type="line"/>
			<point x="562" y="717" type="line"/>
			<point x="562" y="212" type="line"/>
			<point x="187" y="708" type="line" smooth="yes"/>
			<point x="176" y="722"/>
			<point x="153" y="726" type="qcurve" smooth="yes"/>
			<point x="141" y="726" type="line" smooth="yes"/>
			<point x="128" y="727"/>
			<point x="116" y="722" type="qcurve" smooth="yes"/>
			<point x="99" y="716"/>
			<point x="87" y="698" type="qcurve" smooth="yes"/>
			<point x="76" y="681"/>
			<point x="76" y="661" type="qcurve" smooth="yes"/>
			<point x="76" y="0" type="line"/>
			<point x="205" y="0" type="line"/>
			<point x="205" y="505" type="line"/>
			<point x="580" y="9" type="line" smooth="yes"/>
			<point x="588" y="-1"/>
			<point x="602" y="-5" type="qcurve" smooth="yes"/>
			<point x="616" y="-10"/>
			<point x="627" y="-10" type="qcurve" smooth="yes"/>
			<point x="640" y="-10"/>
			<point x="652" y="-5" type="qcurve" smooth="yes"/>
			<point x="664" y="0"/>
			<point x="672" y="8" type="qcurve" smooth="yes"/>
			<point x="681" y="17"/>
			<point x="687" y="29" type="qcurve" smooth="yes"/>
			<point x="692" y="41"/>
			<point x="692" y="56" type="qcurve"/>
		</contour>
		<contour>
			<point x="440" y="-291" type="line"/>
			<point x="501" y="-90" type="line"/>
			<point x="403" y="-90" type="line"/>
			<point x="366" y="-291" type="line"/>
		</contour>
	</outline>
</glyph>
<glyph name="uni0146" format="2">
	<advance width="749"/>
	<unicode hex="0146"/>
	<note>
		uni0146
  </note>
	<outline>
		<contour>
			<point x="670" y="0" type="line"/>
			<point x="670" y="300" type="line" smooth="yes"/>
			<point x="670" y="344"/>
			<point x="659" y="379" type="qcurve" smooth="yes"/>
			<point x="648" y="414"/>
			<point x="629" y="440" type="qcurve" smooth="yes"/>
			<point x="611" y="468"/>
			<point x="586" y="486" type="qcurve" smooth="yes"/>
			<point x="562" y="505"/>
			<point x="535" y="517" type="qcurve" smooth="yes"/>
			<point x="508" y="529"/>
			<point x="481" y="535" type="qcurve" smooth="yes"/>
			<point x="454" y="540"/>
			<point x="429" y="540" type="qcurve" smooth="yes"/>
			<point x="127" y="540" type="line" smooth="yes"/>
			<point x="113" y="540"/>
			<point x="101" y="536" type="qcurve" smooth="yes"/>
			<point x="89" y="531"/>
			<point x="80" y="521" type="qcurve" smooth="yes"/>
			<point x="71" y="513"/>
			<point x="66" y="501" type="qcurve" smooth="yes"/>
			<point x="61" y="489"/>
			<point x="61" y="476" type="qcurve" smooth="yes"/>
			<point x="61" y="0" type="line"/>
			<point x="191" y="0" type="line"/>
			<point x="191" y="411" type="line"/>
			<point x="428" y="411" type="line" smooth="yes"/>
			<point x="452" y="411"/>
			<point x="472" y="403" type="qcurve" smooth="yes"/>
			<point x="492" y="395"/>
			<point x="508" y="380" type="qcurve" smooth="yes"/>
			<point x="523" y="366"/>
			<point x="531" y="346" type="qcurve" smooth="yes"/>
			<point x="540" y="325"/>
			<point x="540" y="300" type="qcurve" smooth="yes"/>
			<point x="540" y="0" type="line"/>
		</contour>
		<contour>
			<point x="363" y="-291" type="line"/>
			<point x="424" y="-90" type="line"/>
			<point x="325" y="-90" type="line"/>
			<point x="288" y="-291" type="line"/>
		</contour>
	</outline>
</glyph>
<glyph name="uni0147" format="2">
	<advance width="752"/>
	<unicode hex="0147"/>
	<note>
		uni0147
  </note>
	<outline>
		<contour>
			<point x="692" y="56" type="line"/>
			<point x="692" y="717" type="line"/>
			<point x="562" y="717" type="line"/>
			<point x="562" y="212" type="line"/>
			<point x="187" y="708" type="line" smooth="yes"/>
			<point x="176" y="722"/>
			<point x="153" y="726" type="qcurve" smooth="yes"/>
			<point x="134" y="729"/>
			<point x="116" y="722" type="qcurve" smooth="yes"/>
			<point x="99" y="716"/>
			<point x="87" y="698" type="qcurve" smooth="yes"/>
			<point x="76" y="681"/>
			<point x="76" y="661" type="qcurve" smooth="yes"/>
			<point x="76" y="0" type="line"/>
			<point x="205" y="0" type="line"/>
			<point x="205" y="505" type="line"/>
			<point x="580" y="9" type="line" smooth="yes"/>
			<point x="588" y="-1"/>
			<point x="602" y="-5" type="qcurve" smooth="yes"/>
			<point x="616" y="-10"/>
			<point x="627" y="-10" type="qcurve" smooth="yes"/>
			<point x="640" y="-10"/>
			<point x="652" y="-5" type="qcurve" smooth="yes"/>
			<point x="664" y="0"/>
			<point x="672" y="8" type="qcurve" smooth="yes"/>
			<point x="681" y="17"/>
			<point x="687" y="29" type="qcurve" smooth="yes"/>
			<point x="692" y="41"/>
			<point x="692" y="56" type="qcurve"/>
		</contour>
		<contour>
			<point x="260" y="961" type="line"/>
			<point x="200" y="877" type="line"/>
			<point x="434" y="744" type="line"/>
			<point x="668" y="877" type="line"/>
			<point x="608" y="961" type="line"/>
			<point x="434" y="872" type="line"/>
		</contour>
	</outline>
</glyph>
<glyph name="uni0149" format="2">
	<advance width="821"/>
	<unicode hex="0149"/>
	<note>
		uni0149
  </note>
	<outline>
		<contour>
			<point x="108" y="481" type="line"/>
			<point x="169" y="682" type="line"/>
			<point x="72" y="682" type="line"/>
			<point x="35" y="481" type="line"/>
		</contour>
		<contour>
			<point x="779" y="0" type="line"/>
			<point x="779" y="300" type="line" smooth="yes"/>
			<point x="779" y="344"/>
			<point x="768" y="379" type="qcurve" smooth="yes"/>
			<point x="756" y="414"/>
			<point x="737" y="440" type="qcurve" smooth="yes"/>
			<point x="719" y="468"/>
			<point x="695" y="486" type="qcurve" smooth="yes"/>
			<point x="671" y="505"/>
			<point x="644" y="517" type="qcurve" smooth="yes"/>
			<point x="617" y="529"/>
			<point x="590" y="535" type="qcurve" smooth="yes"/>
			<point x="563" y="540"/>
			<point x="538" y="540" type="qcurve" smooth="yes"/>
			<point x="235" y="540" type="line" smooth="yes"/>
			<point x="221" y="540"/>
			<point x="209" y="536" type="qcurve" smooth="yes"/>
			<point x="197" y="531"/>
			<point x="188" y="521" type="qcurve" smooth="yes"/>
			<point x="180" y="513"/>
			<point x="174" y="501" type="qcurve" smooth="yes"/>
			<point x="169" y="489"/>
			<point x="169" y="476" type="qcurve" smooth="yes"/>
			<point x="169" y="0" type="line"/>
			<point x="300" y="0" type="line"/>
			<point x="300" y="411" type="line"/>
			<point x="537" y="411" type="line" smooth="yes"/>
			<point x="560" y="411"/>
			<point x="581" y="403" type="qcurve" smooth="yes"/>
			<point x="601" y="395"/>
			<point x="616" y="380" type="qcurve" smooth="yes"/>
			<point x="631" y="366"/>
			<point x="640" y="346" type="qcurve" smooth="yes"/>
			<point x="648" y="325"/>
			<point x="648" y="300" type="qcurve" smooth="yes"/>
			<point x="648" y="0" type="line"/>
		</contour>
	</outline>
</glyph>
<glyph name="uni014a" format="2">
	<advance width="868"/>
	<unicode hex="014A"/>
	<note>
		uni014a
  </note>
	<outline>
		<contour>
			<point x="792" y="-108" type="line"/>
			<point x="792" y="717" type="line"/>
			<point x="662" y="717" type="line"/>
			<point x="662" y="213" type="line"/>
			<point x="187" y="708" type="line" smooth="yes"/>
			<point x="173" y="722"/>
			<point x="154" y="726" type="qcurve" smooth="yes"/>
			<point x="140" y="726" type="line" smooth="yes"/>
			<point x="128" y="727"/>
			<point x="116" y="722" type="qcurve" smooth="yes"/>
			<point x="98" y="714"/>
			<point x="87" y="698" type="qcurve" smooth="yes"/>
			<point x="76" y="681"/>
			<point x="76" y="661" type="qcurve" smooth="yes"/>
			<point x="76" y="0" type="line"/>
			<point x="205" y="0" type="line"/>
			<point x="205" y="505" type="line"/>
			<point x="661" y="29" type="line"/>
			<point x="661" y="-108" type="line" smooth="yes"/>
			<point x="661" y="-133"/>
			<point x="647" y="-147" type="qcurve" smooth="yes"/>
			<point x="634" y="-161"/>
			<point x="610" y="-161" type="qcurve" smooth="yes"/>
			<point x="134" y="-161" type="line"/>
			<point x="134" y="-291" type="line"/>
			<point x="610" y="-291" type="line" smooth="yes"/>
			<point x="649" y="-291"/>
			<point x="683" y="-277" type="qcurve" smooth="yes"/>
			<point x="716" y="-264"/>
			<point x="740" y="-239" type="qcurve" smooth="yes"/>
			<point x="765" y="-215"/>
			<point x="778" y="-181" type="qcurve" smooth="yes"/>
			<point x="792" y="-148"/>
			<point x="792" y="-108" type="qcurve"/>
		</contour>
	</outline>
</glyph>
<glyph name="OE" format="2">
	<advance width="1398"/>
	<unicode hex="0152"/>
	<note>
		OE
  </note>
	<outline>
		<contour>
			<point x="1349" y="0" type="line"/>
			<point x="1349" y="130" type="line"/>
			<point x="881" y="130" type="line" smooth="yes"/>
			<point x="855" y="130"/>
			<point x="842" y="143" type="qcurve" smooth="yes"/>
			<point x="828" y="157"/>
			<point x="828" y="183" type="qcurve" smooth="yes"/>
			<point x="828" y="587" type="line"/>
			<point x="1349" y="587" type="line"/>
			<point x="1349" y="717" type="line"/>
			<point x="764" y="717" type="line" smooth="yes"/>
			<point x="742" y="717"/>
			<point x="726" y="706" type="qcurve" smooth="yes"/>
			<point x="710" y="695"/>
			<point x="702" y="676" type="qcurve"/>
			<point x="666" y="700"/>
			<point x="622" y="714" type="qcurve" smooth="yes"/>
			<point x="579" y="727"/>
			<point x="529" y="727" type="qcurve" smooth="yes"/>
			<point x="353" y="727" type="line" smooth="yes"/>
			<point x="288" y="727"/>
			<point x="234" y="704" type="qcurve" smooth="yes"/>
			<point x="179" y="682"/>
			<point x="139" y="642" type="qcurve" smooth="yes"/>
			<point x="99" y="603"/>
			<point x="76" y="547" type="qcurve" smooth="yes"/>
			<point x="53" y="492"/>
			<point x="53" y="427" type="qcurve" smooth="yes"/>
			<point x="53" y="290" type="line" smooth="yes"/>
			<point x="53" y="224"/>
			<point x="76" y="170" type="qcurve" smooth="yes"/>
			<point x="99" y="115"/>
			<point x="139" y="75" type="qcurve" smooth="yes"/>
			<point x="179" y="35"/>
			<point x="234" y="12" type="qcurve" smooth="yes"/>
			<point x="288" y="-10"/>
			<point x="353" y="-10" type="qcurve" smooth="yes"/>
			<point x="529" y="-10" type="line" smooth="yes"/>
			<point x="591" y="-10"/>
			<point x="643" y="10" type="qcurve" smooth="yes"/>
			<point x="696" y="31"/>
			<point x="735" y="67" type="qcurve"/>
			<point x="749" y="48"/>
			<point x="767" y="36" type="qcurve" smooth="yes"/>
			<point x="785" y="23"/>
			<point x="804" y="15" type="qcurve" smooth="yes"/>
			<point x="844" y="4" type="line" smooth="yes"/>
			<point x="863" y="0"/>
			<point x="880" y="0" type="qcurve" smooth="yes"/>
		</contour>
		<contour>
			<point x="698" y="427" type="line"/>
			<point x="698" y="290" type="line" smooth="yes"/>
			<point x="698" y="252"/>
			<point x="686" y="220" type="qcurve" smooth="yes"/>
			<point x="673" y="189"/>
			<point x="651" y="167" type="qcurve" smooth="yes"/>
			<point x="628" y="144"/>
			<point x="597" y="132" type="qcurve" smooth="yes"/>
			<point x="566" y="120"/>
			<point x="528" y="120" type="qcurve" smooth="yes"/>
			<point x="353" y="120" type="line" smooth="yes"/>
			<point x="315" y="120"/>
			<point x="284" y="132" type="qcurve" smooth="yes"/>
			<point x="252" y="144"/>
			<point x="230" y="167" type="qcurve" smooth="yes"/>
			<point x="208" y="189"/>
			<point x="195" y="220" type="qcurve" smooth="yes"/>
			<point x="183" y="252"/>
			<point x="183" y="290" type="qcurve" smooth="yes"/>
			<point x="183" y="427" type="line" smooth="yes"/>
			<point x="183" y="465"/>
			<point x="195" y="497" type="qcurve" smooth="yes"/>
			<point x="208" y="528"/>
			<point x="230" y="550" type="qcurve" smooth="yes"/>
			<point x="252" y="572"/>
			<point x="284" y="585" type="qcurve" smooth="yes"/>
			<point x="315" y="597"/>
			<point x="353" y="597" type="qcurve" smooth="yes"/>
			<point x="529" y="597" type="line" smooth="yes"/>
			<point x="567" y="597"/>
			<point x="598" y="585" type="qcurve" smooth="yes"/>
			<point x="629" y="572"/>
			<point x="651" y="550" type="qcurve" smooth="yes"/>
			<point x="673" y="528"/>
			<point x="686" y="497" type="qcurve" smooth="yes"/>
			<point x="698" y="465"/>
			<point x="698" y="427" type="qcurve"/>
		</contour>
		<contour>
			<point x="1291" y="293" type="line"/>
			<point x="1291" y="424" type="line"/>
			<point x="880" y="424" type="line"/>
			<point x="880" y="293" type="line"/>
		</contour>
	</outline>
</glyph>
<glyph name="uni0155" format="2">
	<advance width="752"/>
	<unicode hex="0155"/>
	<note>
		uni0155
  </note>
	<outline>
		<contour>
			<point x="684" y="411" type="line"/>
			<point x="684" y="540" type="line"/>
			<point x="265" y="540" type="line" smooth="yes"/>
			<point x="248" y="540"/>
			<point x="227" y="536" type="qcurve" smooth="yes"/>
			<point x="206" y="532"/>
			<point x="185" y="523" type="qcurve" smooth="yes"/>
			<point x="165" y="514"/>
			<point x="147" y="500" type="qcurve" smooth="yes"/>
			<point x="128" y="485"/>
			<point x="114" y="465" type="qcurve" smooth="yes"/>
			<point x="100" y="445"/>
			<point x="92" y="418" type="qcurve" smooth="yes"/>
			<point x="83" y="392"/>
			<point x="83" y="359" type="qcurve" smooth="yes"/>
			<point x="83" y="0" type="line"/>
			<point x="213" y="0" type="line"/>
			<point x="213" y="359" type="line" smooth="yes"/>
			<point x="213" y="384"/>
			<point x="226" y="397" type="qcurve" smooth="yes"/>
			<point x="240" y="411"/>
			<point x="267" y="411" type="qcurve" smooth="yes"/>
		</contour>
		<contour>
			<point x="563" y="673" type="line"/>
			<point x="508" y="795" type="line"/>
			<point x="267" y="655" type="line"/>
			<point x="301" y="580" type="line"/>
		</contour>
	</outline>
</glyph>
<glyph name="uni0156" format="2">
	<advance width="755"/>
	<unicode hex="0156"/>
	<note>
		uni0156
  </note>
	<outline>
		<contour>
			<point x="727" y="476" type="line"/>
			<point x="727" y="559" type="line" smooth="yes"/>
			<point x="727" y="583"/>
			<point x="719" y="611" type="qcurve" smooth="yes"/>
			<point x="711" y="638"/>
			<point x="692" y="661" type="qcurve" smooth="yes"/>
			<point x="673" y="685"/>
			<point x="643" y="701" type="qcurve" smooth="yes"/>
			<point x="613" y="717"/>
			<point x="569" y="717" type="qcurve" smooth="yes"/>
			<point x="141" y="717" type="line" smooth="yes"/>
			<point x="127" y="717"/>
			<point x="115" y="712" type="qcurve" smooth="yes"/>
			<point x="103" y="707"/>
			<point x="94" y="698" type="qcurve" smooth="yes"/>
			<point x="85" y="689"/>
			<point x="80" y="677" type="qcurve" smooth="yes"/>
			<point x="76" y="665"/>
			<point x="76" y="652" type="qcurve" smooth="yes"/>
			<point x="76" y="0" type="line"/>
			<point x="205" y="0" type="line"/>
			<point x="205" y="587" type="line"/>
			<point x="569" y="587" type="line" smooth="yes"/>
			<point x="578" y="586" type="line" smooth="yes"/>
			<point x="583" y="586"/>
			<point x="587" y="583" type="qcurve" smooth="yes"/>
			<point x="592" y="580"/>
			<point x="594" y="575" type="qcurve" smooth="yes"/>
			<point x="597" y="569"/>
			<point x="597" y="558" type="qcurve" smooth="yes"/>
			<point x="597" y="476" type="line" smooth="yes"/>
			<point x="597" y="451"/>
			<point x="589" y="431" type="qcurve" smooth="yes"/>
			<point x="581" y="411"/>
			<point x="566" y="397" type="qcurve" smooth="yes"/>
			<point x="552" y="383"/>
			<point x="531" y="375" type="qcurve" smooth="yes"/>
			<point x="511" y="367"/>
			<point x="487" y="364" type="qcurve"/>
			<point x="252" y="364" type="line"/>
			<point x="252" y="235" type="line"/>
			<point x="286" y="235" type="line"/>
			<point x="557" y="0" type="line"/>
			<point x="758" y="0" type="line"/>
			<point x="487" y="235" type="line"/>
			<point x="511" y="235"/>
			<point x="538" y="240" type="qcurve" smooth="yes"/>
			<point x="565" y="245"/>
			<point x="592" y="257" type="qcurve" smooth="yes"/>
			<point x="619" y="270"/>
			<point x="643" y="289" type="qcurve" smooth="yes"/>
			<point x="668" y="308"/>
			<point x="686" y="335" type="qcurve" smooth="yes"/>
			<point x="705" y="361"/>
			<point x="716" y="396" type="qcurve" smooth="yes"/>
			<point x="727" y="432"/>
			<point x="727" y="476" type="qcurve"/>
		</contour>
		<contour>
			<point x="430" y="-291" type="line"/>
			<point x="492" y="-90" type="line"/>
			<point x="393" y="-90" type="line"/>
			<point x="356" y="-291" type="line"/>
		</contour>
	</outline>
</glyph>
<glyph name="uni0159" format="2">
	<advance width="752"/>
	<unicode hex="0159"/>
	<note>
		uni0159
  </note>
	<outline>
		<contour>
			<point x="684" y="411" type="line"/>
			<point x="684" y="540" type="line"/>
			<point x="265" y="540" type="line" smooth="yes"/>
			<point x="248" y="540"/>
			<point x="227" y="536" type="qcurve" smooth="yes"/>
			<point x="206" y="532"/>
			<point x="185" y="523" type="qcurve" smooth="yes"/>
			<point x="165" y="514"/>
			<point x="147" y="500" type="qcurve" smooth="yes"/>
			<point x="128" y="485"/>
			<point x="114" y="465" type="qcurve" smooth="yes"/>
			<point x="100" y="445"/>
			<point x="92" y="418" type="qcurve" smooth="yes"/>
			<point x="83" y="392"/>
			<point x="83" y="359" type="qcurve" smooth="yes"/>
			<point x="83" y="0" type="line"/>
			<point x="213" y="0" type="line"/>
			<point x="213" y="359" type="line" smooth="yes"/>
			<point x="213" y="384"/>
			<point x="226" y="397" type="qcurve" smooth="yes"/>
			<point x="240" y="411"/>
			<point x="267" y="411" type="qcurve" smooth="yes"/>
		</contour>
		<contour>
			<point x="106" y="787" type="line"/>
			<point x="45" y="703" type="line"/>
			<point x="280" y="569" type="line"/>
			<point x="515" y="703" type="line"/>
			<point x="454" y="787" type="line"/>
			<point x="280" y="696" type="line"/>
		</contour>
	</outline>
</glyph>
<glyph name="scedilla" format="2">
	<advance width="613"/>
	<unicode hex="015F"/>
	<note>
		scedilla
  </note>
	<outline>
		<contour>
			<point x="584" y="183" type="line"/>
			<point x="584" y="210"/>
			<point x="574" y="242" type="qcurve" smooth="yes"/>
			<point x="564" y="274"/>
			<point x="543" y="301" type="qcurve" smooth="yes"/>
			<point x="521" y="328"/>
			<point x="486" y="346" type="qcurve" smooth="yes"/>
			<point x="451" y="364"/>
			<point x="401" y="364" type="qcurve" smooth="yes"/>
			<point x="200" y="364" type="line" smooth="yes"/>
			<point x="190" y="365" type="line" smooth="yes"/>
			<point x="181" y="367" type="line" smooth="yes"/>
			<point x="175" y="373" type="line"/>
			<point x="172" y="386" type="line" smooth="yes"/>
			<point x="173" y="394" type="line"/>
			<point x="173" y="399"/>
			<point x="176" y="402" type="qcurve" smooth="yes"/>
			<point x="179" y="406"/>
			<point x="185" y="408" type="qcurve" smooth="yes"/>
			<point x="191" y="411"/>
			<point x="200" y="411" type="qcurve" smooth="yes"/>
			<point x="519" y="411" type="line"/>
			<point x="519" y="540" type="line"/>
			<point x="200" y="540" type="line" smooth="yes"/>
			<point x="176" y="540"/>
			<point x="148" y="532" type="qcurve" smooth="yes"/>
			<point x="120" y="524"/>
			<point x="97" y="505" type="qcurve" smooth="yes"/>
			<point x="73" y="487"/>
			<point x="58" y="457" type="qcurve" smooth="yes"/>
			<point x="43" y="428"/>
			<point x="43" y="384" type="qcurve" smooth="yes"/>
			<point x="43" y="361"/>
			<point x="51" y="335" type="qcurve" smooth="yes"/>
			<point x="59" y="309"/>
			<point x="77" y="287" type="qcurve" smooth="yes"/>
			<point x="96" y="264"/>
			<point x="126" y="250" type="qcurve" smooth="yes"/>
			<point x="156" y="235"/>
			<point x="200" y="235" type="qcurve" smooth="yes"/>
			<point x="401" y="235" type="line" smooth="yes"/>
			<point x="451" y="235"/>
			<point x="453" y="183" type="qcurve" smooth="yes"/>
			<point x="453" y="157"/>
			<point x="440" y="143" type="qcurve" smooth="yes"/>
			<point x="427" y="130"/>
			<point x="400" y="130" type="qcurve" smooth="yes"/>
			<point x="49" y="130" type="line"/>
			<point x="49" y="0" type="line"/>
			<point x="272" y="0" type="line"/>
			<point x="233" y="-104" type="line"/>
			<point x="256" y="-100" type="line" smooth="yes"/>
			<point x="280" y="-100" type="line" smooth="yes"/>
			<point x="298" y="-100" type="line" smooth="yes"/>
			<point x="308" y="-100"/>
			<point x="317" y="-103" type="qcurve" smooth="yes"/>
			<point x="327" y="-106"/>
			<point x="333" y="-111" type="qcurve" smooth="yes"/>
			<point x="339" y="-116"/>
			<point x="339" y="-124" type="qcurve" smooth="yes"/>
			<point x="339" y="-138"/>
			<point x="320" y="-144" type="qcurve" smooth="yes"/>
			<point x="300" y="-149"/>
			<point x="272" y="-149" type="qcurve" smooth="yes"/>
			<point x="244" y="-149"/>
			<point x="218" y="-143" type="qcurve" smooth="yes"/>
			<point x="192" y="-136"/>
			<point x="172" y="-127" type="qcurve"/>
			<point x="172" y="-215" type="line"/>
			<point x="190" y="-218" type="line" smooth="yes"/>
			<point x="212" y="-222" type="line" smooth="yes"/>
			<point x="241" y="-225" type="line" smooth="yes"/>
			<point x="284" y="-227" type="line" smooth="yes"/>
			<point x="312" y="-227"/>
			<point x="340" y="-222" type="qcurve" smooth="yes"/>
			<point x="368" y="-216"/>
			<point x="391" y="-204" type="qcurve" smooth="yes"/>
			<point x="413" y="-192"/>
			<point x="428" y="-173" type="qcurve" smooth="yes"/>
			<point x="442" y="-153"/>
			<point x="442" y="-125" type="qcurve" smooth="yes"/>
			<point x="442" y="-96"/>
			<point x="431" y="-79" type="qcurve" smooth="yes"/>
			<point x="420" y="-61"/>
			<point x="404" y="-52" type="qcurve" smooth="yes"/>
			<point x="388" y="-42"/>
			<point x="369" y="-38" type="qcurve" smooth="yes"/>
			<point x="336" y="-35" type="line"/>
			<point x="350" y="0" type="line"/>
			<point x="401" y="0" type="line" smooth="yes"/>
			<point x="420" y="0"/>
			<point x="440" y="4" type="qcurve" smooth="yes"/>
			<point x="461" y="8"/>
			<point x="481" y="17" type="qcurve" smooth="yes"/>
			<point x="501" y="27"/>
			<point x="520" y="41" type="qcurve" smooth="yes"/>
			<point x="539" y="55"/>
			<point x="552" y="75" type="qcurve" smooth="yes"/>
			<point x="567" y="96"/>
			<point x="575" y="122" type="qcurve" smooth="yes"/>
			<point x="584" y="149"/>
			<point x="584" y="183" type="qcurve"/>
		</contour>
	</outline>
</glyph>
<glyph name="uni0162" format="2">
	<advance width="754"/>
	<unicode hex="0162"/>
	<note>
		uni0162
  </note>
	<outline>
		<contour>
			<point x="724" y="587" type="line"/>
			<point x="724" y="717" type="line"/>
			<point x="20" y="717" type="line"/>
			<point x="20" y="587" type="line"/>
			<point x="307" y="587" type="line"/>
			<point x="307" y="0" type="line"/>
			<point x="437" y="0" type="line"/>
			<point x="437" y="587" type="line"/>
		</contour>
		<contour>
			<point x="357" y="-291" type="line"/>
			<point x="419" y="-90" type="line"/>
			<point x="320" y="-90" type="line"/>
			<point x="283" y="-291" type="line"/>
		</contour>
	</outline>
</glyph>
<glyph name="uni0163" format="2">
	<advance width="751"/>
	<unicode hex="0163"/>
	<note>
		uni0163
  </note>
	<outline>
		<contour>
			<point x="717" y="411" type="line"/>
			<point x="717" y="540" type="line"/>
			<point x="405" y="540" type="line"/>
			<point x="405" y="717" type="line"/>
			<point x="274" y="717" type="line"/>
			<point x="274" y="540" type="line"/>
			<point x="105" y="540" type="line"/>
			<point x="105" y="411" type="line"/>
			<point x="274" y="411" type="line"/>
			<point x="274" y="0" type="line"/>
			<point x="405" y="0" type="line"/>
			<point x="405" y="411" type="line"/>
		</contour>
		<contour>
			<point x="245" y="-291" type="line"/>
			<point x="307" y="-90" type="line"/>
			<point x="208" y="-90" type="line"/>
			<point x="172" y="-291" type="line"/>
		</contour>
	</outline>
</glyph>
<glyph name="uni0164" format="2">
	<advance width="754"/>
	<unicode hex="0164"/>
	<note>
		uni0164
  </note>
	<outline>
		<contour>
			<point x="724" y="587" type="line"/>
			<point x="724" y="717" type="line"/>
			<point x="20" y="717" type="line"/>
			<point x="20" y="587" type="line"/>
			<point x="307" y="587" type="line"/>
			<point x="307" y="0" type="line"/>
			<point x="437" y="0" type="line"/>
			<point x="437" y="587" type="line"/>
		</contour>
		<contour>
			<point x="197" y="961" type="line"/>
			<point x="137" y="877" type="line"/>
			<point x="372" y="744" type="line"/>
			<point x="606" y="877" type="line"/>
			<point x="545" y="961" type="line"/>
			<point x="372" y="872" type="line"/>
		</contour>
	</outline>
</glyph>
<glyph name="uni0165" format="2">
	<advance width="741"/>
	<unicode hex="0165"/>
	<note>
		uni0165
  </note>
	<outline>
		<contour>
			<point x="717" y="411" type="line"/>
			<point x="717" y="540" type="line"/>
			<point x="405" y="540" type="line"/>
			<point x="405" y="717" type="line"/>
			<point x="274" y="717" type="line"/>
			<point x="274" y="540" type="line"/>
			<point x="105" y="540" type="line"/>
			<point x="105" y="411" type="line"/>
			<point x="274" y="411" type="line"/>
			<point x="274" y="0" type="line"/>
			<point x="405" y="0" type="line"/>
			<point x="405" y="411" type="line"/>
		</contour>
		<contour>
			<point x="655" y="481" type="line"/>
			<point x="716" y="682" type="line"/>
			<point x="619" y="682" type="line"/>
			<point x="581" y="481" type="line"/>
		</contour>
	</outline>
</glyph>
<glyph name="uni0166" format="2">
	<advance width="744"/>
	<unicode hex="0166"/>
	<note>
		uni0166
  </note>
	<outline>
		<contour>
			<point x="576" y="250" type="line"/>
			<point x="576" y="367" type="line"/>
			<point x="437" y="367" type="line"/>
			<point x="437" y="587" type="line"/>
			<point x="724" y="587" type="line"/>
			<point x="724" y="717" type="line"/>
			<point x="20" y="717" type="line"/>
			<point x="20" y="587" type="line"/>
			<point x="307" y="587" type="line"/>
			<point x="307" y="367" type="line"/>
			<point x="167" y="367" type="line"/>
			<point x="167" y="250" type="line"/>
			<point x="307" y="250" type="line"/>
			<point x="307" y="0" type="line"/>
			<point x="437" y="0" type="line"/>
			<point x="437" y="250" type="line"/>
		</contour>
	</outline>
</glyph>
<glyph name="uni0167" format="2">
	<advance width="577"/>
	<unicode hex="0167"/>
	<note>
		uni0167
  </note>
	<outline>
		<contour>
			<point x="469" y="249" type="line"/>
			<point x="469" y="365" type="line"/>
			<point x="325" y="365" type="line"/>
			<point x="325" y="411" type="line"/>
			<point x="552" y="411" type="line"/>
			<point x="552" y="540" type="line"/>
			<point x="325" y="540" type="line"/>
			<point x="325" y="717" type="line"/>
			<point x="194" y="717" type="line"/>
			<point x="194" y="540" type="line"/>
			<point x="25" y="540" type="line"/>
			<point x="25" y="411" type="line"/>
			<point x="194" y="411" type="line"/>
			<point x="194" y="365" type="line"/>
			<point x="60" y="365" type="line"/>
			<point x="60" y="249" type="line"/>
			<point x="194" y="249" type="line"/>
			<point x="194" y="0" type="line"/>
			<point x="325" y="0" type="line"/>
			<point x="325" y="249" type="line"/>
		</contour>
	</outline>
</glyph>
<glyph name="uni0169" format="2">
	<advance width="752"/>
	<unicode hex="0169"/>
	<note>
		uni0169
  </note>
	<outline>
		<contour>
			<point x="677" y="65" type="line"/>
			<point x="677" y="540" type="line"/>
			<point x="547" y="540" type="line"/>
			<point x="547" y="130" type="line"/>
			<point x="320" y="130" type="line" smooth="yes"/>
			<point x="296" y="130"/>
			<point x="276" y="138" type="qcurve" smooth="yes"/>
			<point x="256" y="145"/>
			<point x="240" y="160" type="qcurve" smooth="yes"/>
			<point x="225" y="175"/>
			<point x="217" y="195" type="qcurve" smooth="yes"/>
			<point x="208" y="215"/>
			<point x="208" y="240" type="qcurve" smooth="yes"/>
			<point x="208" y="540" type="line"/>
			<point x="78" y="540" type="line"/>
			<point x="78" y="240" type="line" smooth="yes"/>
			<point x="78" y="196"/>
			<point x="89" y="162" type="qcurve" smooth="yes"/>
			<point x="100" y="127"/>
			<point x="119" y="100" type="qcurve" smooth="yes"/>
			<point x="137" y="73"/>
			<point x="162" y="54" type="qcurve" smooth="yes"/>
			<point x="187" y="36"/>
			<point x="213" y="23" type="qcurve" smooth="yes"/>
			<point x="240" y="11"/>
			<point x="267" y="6" type="qcurve" smooth="yes"/>
			<point x="295" y="0"/>
			<point x="319" y="0" type="qcurve" smooth="yes"/>
			<point x="612" y="0" type="line" smooth="yes"/>
			<point x="626" y="0"/>
			<point x="638" y="5" type="qcurve" smooth="yes"/>
			<point x="649" y="10"/>
			<point x="658" y="19" type="qcurve" smooth="yes"/>
			<point x="667" y="28"/>
			<point x="672" y="40" type="qcurve" smooth="yes"/>
			<point x="677" y="52"/>
			<point x="677" y="65" type="qcurve"/>
		</contour>
		<contour>
			<point x="552" y="756" type="line"/>
			<point x="464" y="756" type="line"/>
			<point x="462" y="740" type="line" smooth="yes"/>
			<point x="461" y="730"/>
			<point x="456" y="720" type="qcurve" smooth="yes"/>
			<point x="452" y="711"/>
			<point x="443" y="703" type="qcurve" smooth="yes"/>
			<point x="435" y="696"/>
			<point x="420" y="696" type="qcurve" smooth="yes"/>
			<point x="401" y="696"/>
			<point x="387" y="705" type="qcurve" smooth="yes"/>
			<point x="358" y="725" type="line" smooth="yes"/>
			<point x="326" y="746" type="line" smooth="yes"/>
			<point x="308" y="756"/>
			<point x="285" y="756" type="qcurve" smooth="yes"/>
			<point x="260" y="756"/>
			<point x="237" y="745" type="qcurve" smooth="yes"/>
			<point x="214" y="734"/>
			<point x="196" y="712" type="qcurve" smooth="yes"/>
			<point x="180" y="691"/>
			<point x="169" y="658" type="qcurve" smooth="yes"/>
			<point x="159" y="626"/>
			<point x="159" y="584" type="qcurve"/>
			<point x="248" y="584" type="line"/>
			<point x="250" y="598" type="line" smooth="yes"/>
			<point x="251" y="608"/>
			<point x="256" y="619" type="qcurve" smooth="yes"/>
			<point x="260" y="629"/>
			<point x="269" y="636" type="qcurve" smooth="yes"/>
			<point x="277" y="644"/>
			<point x="292" y="644" type="qcurve" smooth="yes"/>
			<point x="308" y="644"/>
			<point x="322" y="634" type="qcurve" smooth="yes"/>
			<point x="349" y="613" type="line"/>
			<point x="382" y="593" type="line" smooth="yes"/>
			<point x="400" y="584"/>
			<point x="428" y="584" type="qcurve" smooth="yes"/>
			<point x="453" y="584"/>
			<point x="476" y="592" type="qcurve" smooth="yes"/>
			<point x="499" y="601"/>
			<point x="516" y="621" type="qcurve" smooth="yes"/>
			<point x="532" y="641"/>
			<point x="542" y="674" type="qcurve" smooth="yes"/>
			<point x="552" y="708"/>
			<point x="552" y="756" type="qcurve"/>
		</contour>
	</outline>
</glyph>
<glyph name="uni0173" format="2">
	<advance width="713"/>
	<unicode hex="0173"/>
	<note>
		uni0173
  </note>
	<outline>
		<contour>
			<point x="652" y="65" type="line"/>
			<point x="652" y="540" type="line"/>
			<point x="522" y="540" type="line"/>
			<point x="522" y="130" type="line"/>
			<point x="295" y="130" type="line" smooth="yes"/>
			<point x="271" y="130"/>
			<point x="251" y="138" type="qcurve" smooth="yes"/>
			<point x="231" y="145"/>
			<point x="216" y="160" type="qcurve" smooth="yes"/>
			<point x="200" y="175"/>
			<point x="192" y="195" type="qcurve" smooth="yes"/>
			<point x="183" y="215"/>
			<point x="183" y="240" type="qcurve" smooth="yes"/>
			<point x="183" y="540" type="line"/>
			<point x="53" y="540" type="line"/>
			<point x="53" y="240" type="line" smooth="yes"/>
			<point x="53" y="196"/>
			<point x="64" y="162" type="qcurve" smooth="yes"/>
			<point x="76" y="127"/>
			<point x="94" y="100" type="qcurve" smooth="yes"/>
			<point x="112" y="73"/>
			<point x="137" y="54" type="qcurve" smooth="yes"/>
			<point x="162" y="36"/>
			<point x="188" y="23" type="qcurve" smooth="yes"/>
			<point x="215" y="11"/>
			<point x="242" y="6" type="qcurve" smooth="yes"/>
			<point x="269" y="0"/>
			<point x="293" y="0" type="qcurve" smooth="yes"/>
			<point x="444" y="0" type="line"/>
			<point x="427" y="-12"/>
			<point x="415" y="-28" type="qcurve" smooth="yes"/>
			<point x="403" y="-44"/>
			<point x="396" y="-60" type="qcurve" smooth="yes"/>
			<point x="388" y="-77"/>
			<point x="385" y="-93" type="qcurve" smooth="yes"/>
			<point x="381" y="-109"/>
			<point x="381" y="-123" type="qcurve" smooth="yes"/>
			<point x="381" y="-149"/>
			<point x="392" y="-167" type="qcurve" smooth="yes"/>
			<point x="402" y="-185"/>
			<point x="420" y="-196" type="qcurve" smooth="yes"/>
			<point x="437" y="-207"/>
			<point x="461" y="-212" type="qcurve" smooth="yes"/>
			<point x="484" y="-217"/>
			<point x="512" y="-217" type="qcurve" smooth="yes"/>
			<point x="539" y="-217"/>
			<point x="561" y="-214" type="qcurve" smooth="yes"/>
			<point x="600" y="-208" type="line" smooth="yes"/>
			<point x="630" y="-201" type="line" smooth="yes"/>
			<point x="652" y="-195" type="line"/>
			<point x="652" y="-101" type="line"/>
			<point x="629" y="-110" type="line" smooth="yes"/>
			<point x="600" y="-118" type="line" smooth="yes"/>
			<point x="570" y="-124" type="line" smooth="yes"/>
			<point x="543" y="-127" type="line" smooth="yes"/>
			<point x="514" y="-127"/>
			<point x="501" y="-120" type="qcurve" smooth="yes"/>
			<point x="488" y="-112"/>
			<point x="488" y="-93" type="qcurve" smooth="yes"/>
			<point x="488" y="-71"/>
			<point x="502" y="-46" type="qcurve" smooth="yes"/>
			<point x="517" y="-21"/>
			<point x="543" y="0" type="qcurve"/>
			<point x="588" y="0" type="line" smooth="yes"/>
			<point x="601" y="0"/>
			<point x="613" y="5" type="qcurve" smooth="yes"/>
			<point x="624" y="10"/>
			<point x="633" y="19" type="qcurve" smooth="yes"/>
			<point x="642" y="28"/>
			<point x="647" y="40" type="qcurve" smooth="yes"/>
			<point x="652" y="52"/>
			<point x="652" y="65" type="qcurve"/>
		</contour>
	</outline>
</glyph>
<glyph name="uni017a" format="2">
	<advance width="749"/>
	<unicode hex="017A"/>
	<note>
		uni017a
  </note>
	<outline>
		<contour>
			<point x="638" y="500" type="line"/>
			<point x="629" y="520"/>
			<point x="614" y="530" type="qcurve" smooth="yes"/>
			<point x="598" y="540"/>
			<point x="579" y="540" type="qcurve" smooth="yes"/>
			<point x="48" y="540" type="line"/>
			<point x="48" y="411" type="line"/>
			<point x="421" y="411" type="line"/>
			<point x="122" y="112" type="line" smooth="yes"/>
			<point x="108" y="97"/>
			<point x="104" y="78" type="qcurve" smooth="yes"/>
			<point x="100" y="59"/>
			<point x="108" y="40" type="qcurve" smooth="yes"/>
			<point x="114" y="24"/>
			<point x="132" y="11" type="qcurve" smooth="yes"/>
			<point x="148" y="0"/>
			<point x="168" y="0" type="qcurve" smooth="yes"/>
			<point x="687" y="0" type="line"/>
			<point x="687" y="130" type="line"/>
			<point x="324" y="130" type="line"/>
			<point x="625" y="430" type="line" smooth="yes"/>
			<point x="639" y="444"/>
			<point x="642" y="463" type="qcurve" smooth="yes"/>
			<point x="646" y="482"/>
			<point x="638" y="500" type="qcurve"/>
		</contour>
		<contour>
			<point x="565" y="673" type="line"/>
			<point x="511" y="795" type="line"/>
			<point x="270" y="655" type="line"/>
			<point x="304" y="580" type="line"/>
		</contour>
	</outline>
</glyph>
<glyph name="florin" format="2">
	<advance width="750"/>
	<unicode hex="0192"/>
	<note>
		florin
  </note>
	<outline>
		<contour>
			<point x="687" y="408" type="line"/>
			<point x="687" y="539" type="line"/>
			<point x="395" y="539" type="line"/>
			<point x="395" y="408" type="line"/>
		</contour>
		<contour>
			<point x="687" y="642" type="line"/>
			<point x="687" y="771" type="line"/>
			<point x="395" y="771" type="line" smooth="yes"/>
			<point x="368" y="771"/>
			<point x="336" y="762" type="qcurve" smooth="yes"/>
			<point x="304" y="752"/>
			<point x="276" y="731" type="qcurve" smooth="yes"/>
			<point x="249" y="709"/>
			<point x="231" y="674" type="qcurve" smooth="yes"/>
			<point x="213" y="640"/>
			<point x="213" y="590" type="qcurve" smooth="yes"/>
			<point x="213" y="-111" type="line" smooth="yes"/>
			<point x="213" y="-136"/>
			<point x="200" y="-149" type="qcurve" smooth="yes"/>
			<point x="187" y="-162"/>
			<point x="160" y="-162" type="qcurve" smooth="yes"/>
			<point x="44" y="-162" type="line"/>
			<point x="44" y="-292" type="line"/>
			<point x="161" y="-292" type="line" smooth="yes"/>
			<point x="180" y="-292"/>
			<point x="200" y="-288" type="qcurve" smooth="yes"/>
			<point x="220" y="-284"/>
			<point x="240" y="-275" type="qcurve" smooth="yes"/>
			<point x="261" y="-265"/>
			<point x="279" y="-251" type="qcurve" smooth="yes"/>
			<point x="297" y="-237"/>
			<point x="312" y="-216" type="qcurve" smooth="yes"/>
			<point x="326" y="-196"/>
			<point x="334" y="-170" type="qcurve" smooth="yes"/>
			<point x="343" y="-144"/>
			<point x="343" y="-111" type="qcurve" smooth="yes"/>
			<point x="343" y="590" type="line" smooth="yes"/>
			<point x="343" y="616"/>
			<point x="356" y="629" type="qcurve" smooth="yes"/>
			<point x="368" y="642"/>
			<point x="395" y="642" type="qcurve" smooth="yes"/>
		</contour>
	</outline>
</glyph>
<glyph name="uni01fc" format="2">
	<advance width="1350"/>
	<unicode hex="01FC"/>
	<note>
		uni01fc
  </note>
	<outline>
		<contour>
			<point x="1300" y="0" type="line"/>
			<point x="1300" y="130" type="line"/>
			<point x="832" y="130" type="line" smooth="yes"/>
			<point x="806" y="130"/>
			<point x="793" y="143" type="qcurve" smooth="yes"/>
			<point x="779" y="157"/>
			<point x="779" y="183" type="qcurve" smooth="yes"/>
			<point x="779" y="587" type="line"/>
			<point x="1300" y="587" type="line"/>
			<point x="1300" y="717" type="line"/>
			<point x="719" y="717" type="line" smooth="yes"/>
			<point x="713" y="717" type="line" smooth="yes"/>
			<point x="420" y="717" type="line" smooth="yes"/>
			<point x="343" y="717"/>
			<point x="278" y="690" type="qcurve" smooth="yes"/>
			<point x="212" y="664"/>
			<point x="164" y="616" type="qcurve" smooth="yes"/>
			<point x="116" y="569"/>
			<point x="89" y="503" type="qcurve" smooth="yes"/>
			<point x="62" y="437"/>
			<point x="62" y="359" type="qcurve" smooth="yes"/>
			<point x="62" y="0" type="line"/>
			<point x="192" y="0" type="line"/>
			<point x="192" y="176" type="line"/>
			<point x="649" y="176" type="line"/>
			<point x="649" y="144"/>
			<point x="658" y="118" type="qcurve" smooth="yes"/>
			<point x="668" y="92"/>
			<point x="681" y="72" type="qcurve" smooth="yes"/>
			<point x="696" y="53"/>
			<point x="714" y="39" type="qcurve" smooth="yes"/>
			<point x="732" y="25"/>
			<point x="752" y="16" type="qcurve" smooth="yes"/>
			<point x="772" y="8"/>
			<point x="793" y="4" type="qcurve" smooth="yes"/>
			<point x="813" y="0"/>
			<point x="831" y="0" type="qcurve" smooth="yes"/>
		</contour>
		<contour>
			<point x="192" y="306" type="line"/>
			<point x="192" y="359" type="line" smooth="yes"/>
			<point x="192" y="413"/>
			<point x="207" y="451" type="qcurve" smooth="yes"/>
			<point x="223" y="489"/>
			<point x="246" y="515" type="qcurve" smooth="yes"/>
			<point x="269" y="540"/>
			<point x="297" y="555" type="qcurve" smooth="yes"/>
			<point x="325" y="569"/>
			<point x="351" y="576" type="qcurve" smooth="yes"/>
			<point x="376" y="584"/>
			<point x="395" y="585" type="qcurve" smooth="yes"/>
			<point x="420" y="587" type="line" smooth="yes"/>
			<point x="649" y="587" type="line"/>
			<point x="649" y="306" type="line"/>
		</contour>
		<contour>
			<point x="1242" y="293" type="line"/>
			<point x="1242" y="424" type="line"/>
			<point x="831" y="424" type="line"/>
			<point x="831" y="293" type="line"/>
		</contour>
		<contour>
			<point x="975" y="848" type="line"/>
			<point x="920" y="969" type="line"/>
			<point x="679" y="829" type="line"/>
			<point x="713" y="755" type="line"/>
		</contour>
	</outline>
</glyph>
<glyph name="uni01fe" format="2">
	<advance width="882"/>
	<unicode hex="01FE"/>
	<note>
		uni01fe
  </note>
	<outline>
		<contour>
			<point x="741" y="645" type="line"/>
			<point x="839" y="769" type="line"/>
			<point x="690" y="769" type="line"/>
			<point x="641" y="708" type="line"/>
			<point x="616" y="717"/>
			<point x="588" y="722" type="qcurve" smooth="yes"/>
			<point x="560" y="727"/>
			<point x="530" y="727" type="qcurve" smooth="yes"/>
			<point x="354" y="727" type="line" smooth="yes"/>
			<point x="289" y="727"/>
			<point x="234" y="705" type="qcurve" smooth="yes"/>
			<point x="180" y="683"/>
			<point x="140" y="643" type="qcurve" smooth="yes"/>
			<point x="100" y="603"/>
			<point x="77" y="548" type="qcurve" smooth="yes"/>
			<point x="54" y="492"/>
			<point x="54" y="427" type="qcurve" smooth="yes"/>
			<point x="54" y="290" type="line" smooth="yes"/>
			<point x="54" y="223"/>
			<point x="77" y="168" type="qcurve" smooth="yes"/>
			<point x="100" y="112"/>
			<point x="142" y="72" type="qcurve"/>
			<point x="44" y="-52" type="line"/>
			<point x="193" y="-52" type="line"/>
			<point x="241" y="9" type="line"/>
			<point x="268" y="0"/>
			<point x="296" y="-5" type="qcurve" smooth="yes"/>
			<point x="324" y="-10"/>
			<point x="354" y="-10" type="qcurve" smooth="yes"/>
			<point x="530" y="-10" type="line" smooth="yes"/>
			<point x="595" y="-10"/>
			<point x="649" y="12" type="qcurve" smooth="yes"/>
			<point x="704" y="35"/>
			<point x="744" y="75" type="qcurve" smooth="yes"/>
			<point x="784" y="115"/>
			<point x="806" y="170" type="qcurve" smooth="yes"/>
			<point x="829" y="224"/>
			<point x="829" y="290" type="qcurve" smooth="yes"/>
			<point x="829" y="427" type="line" smooth="yes"/>
			<point x="829" y="494"/>
			<point x="806" y="550" type="qcurve" smooth="yes"/>
			<point x="782" y="605"/>
			<point x="741" y="645" type="qcurve"/>
		</contour>
		<contour>
			<point x="699" y="427" type="line"/>
			<point x="699" y="290" type="line" smooth="yes"/>
			<point x="699" y="252"/>
			<point x="687" y="220" type="qcurve" smooth="yes"/>
			<point x="675" y="189"/>
			<point x="652" y="167" type="qcurve" smooth="yes"/>
			<point x="629" y="144"/>
			<point x="598" y="132" type="qcurve" smooth="yes"/>
			<point x="567" y="120"/>
			<point x="529" y="120" type="qcurve" smooth="yes"/>
			<point x="354" y="120" type="line" smooth="yes"/>
			<point x="341" y="120" type="line" smooth="yes"/>
			<point x="329" y="120" type="line"/>
			<point x="660" y="541" type="line"/>
			<point x="679" y="520"/>
			<point x="689" y="491" type="qcurve" smooth="yes"/>
			<point x="699" y="461"/>
			<point x="699" y="427" type="qcurve"/>
		</contour>
		<contour>
			<point x="184" y="290" type="line"/>
			<point x="184" y="427" type="line" smooth="yes"/>
			<point x="184" y="465"/>
			<point x="196" y="497" type="qcurve" smooth="yes"/>
			<point x="208" y="528"/>
			<point x="231" y="550" type="qcurve" smooth="yes"/>
			<point x="253" y="572"/>
			<point x="285" y="585" type="qcurve" smooth="yes"/>
			<point x="316" y="597"/>
			<point x="354" y="597" type="qcurve" smooth="yes"/>
			<point x="530" y="597" type="line" smooth="yes"/>
			<point x="542" y="597" type="line" smooth="yes"/>
			<point x="553" y="597" type="line"/>
			<point x="223" y="175" type="line"/>
			<point x="204" y="197"/>
			<point x="194" y="226" type="qcurve" smooth="yes"/>
			<point x="184" y="254"/>
			<point x="184" y="290" type="qcurve"/>
		</contour>
		<contour>
			<point x="711" y="848" type="line"/>
			<point x="656" y="969" type="line"/>
			<point x="416" y="829" type="line"/>
			<point x="450" y="755" type="line"/>
		</contour>
	</outline>
</glyph>
<glyph name="circumflex" format="2">
	<advance width="571"/>
	<unicode hex="02C6"/>
	<note>
		circumflex
  </note>
	<outline>
		<contour>
			<point x="460" y="580" type="line"/>
			<point x="520" y="664" type="line"/>
			<point x="285" y="796" type="line"/>
			<point x="51" y="664" type="line"/>
			<point x="112" y="580" type="line"/>
			<point x="285" y="669" type="line"/>
		</contour>
	</outline>
</glyph>
<glyph name="caron" format="2">
	<advance width="571"/>
	<unicode hex="02C7"/>
	<note>
		caron
  </note>
	<outline>
		<contour>
			<point x="112" y="787" type="line"/>
			<point x="51" y="703" type="line"/>
			<point x="285" y="569" type="line"/>
			<point x="520" y="703" type="line"/>
			<point x="460" y="787" type="line"/>
			<point x="285" y="696" type="line"/>
		</contour>
	</outline>
</glyph>
<glyph name="dotaccent" format="2">
  <advance width="750" />
  <unicode hex="02D9" />
  <note>
		dotaccent
  </note>
  <outline>
    <contour>
      <point x="440" y="657" type="qcurve" />
      <point x="440" y="644" />
      <point x="435" y="632" type="qcurve" smooth="yes" />
      <point x="430" y="620" />
      <point x="421" y="612" type="qcurve" smooth="yes" />
      <point x="412" y="603" />
      <point x="400" y="598" type="qcurve" smooth="yes" />
      <point x="389" y="593" />
      <point x="375" y="593" type="qcurve" smooth="yes" />
      <point x="362" y="593" />
      <point x="350" y="598" type="qcurve" smooth="yes" />
      <point x="338" y="603" />
      <point x="330" y="612" type="qcurve" smooth="yes" />
      <point x="321" y="620" />
      <point x="316" y="632" type="qcurve" smooth="yes" />
      <point x="311" y="644" />
      <point x="311" y="657" type="qcurve" smooth="yes" />
      <point x="311" y="671" />
      <point x="316" y="682" type="qcurve" smooth="yes" />
      <point x="321" y="694" />
      <point x="330" y="703" type="qcurve" smooth="yes" />
      <point x="338" y="712" />
      <point x="350" y="717" type="qcurve" smooth="yes" />
      <point x="362" y="722" />
      <point x="375" y="722" type="qcurve" smooth="yes" />
      <point x="389" y="722" />
      <point x="400" y="717" type="qcurve" smooth="yes" />
      <point x="412" y="712" />
      <point x="421" y="703" type="qcurve" smooth="yes" />
      <point x="430" y="694" />
      <point x="435" y="682" type="qcurve" smooth="yes" />
      <point x="440" y="671" />
    </contour>
  </outline>
</glyph>
<glyph name="ring" format="2">
  <advance width="750" />
  <unicode hex="02DA" />
  <note>
		ring
  </note>
  <outline>
    <contour>
      <point x="230" y="677" type="qcurve" />
      <point x="230" y="701" />
      <point x="241" y="723" type="qcurve" smooth="yes" />
      <point x="251" y="745" />
      <point x="270" y="761" type="qcurve" smooth="yes" />
      <point x="290" y="777" />
      <point x="316" y="787" type="qcurve" smooth="yes" />
      <point x="343" y="796" />
      <point x="375" y="796" type="qcurve" smooth="yes" />
      <point x="411" y="796" />
      <point x="438" y="787" type="qcurve" smooth="yes" />
      <point x="466" y="777" />
      <point x="483" y="761" type="qcurve" smooth="yes" />
      <point x="502" y="745" />
      <point x="511" y="723" type="qcurve" smooth="yes" />
      <point x="521" y="701" />
      <point x="521" y="677" type="qcurve" smooth="yes" />
      <point x="521" y="652" />
      <point x="511" y="631" type="qcurve" smooth="yes" />
      <point x="501" y="609" />
      <point x="482" y="592" type="qcurve" smooth="yes" />
      <point x="463" y="576" />
      <point x="436" y="566" type="qcurve" smooth="yes" />
      <point x="409" y="557" />
      <point x="375" y="557" type="qcurve" smooth="yes" />
      <point x="341" y="557" />
      <point x="314" y="566" type="qcurve" smooth="yes" />
      <point x="287" y="576" />
      <point x="268" y="592" type="qcurve" smooth="yes" />
      <point x="250" y="609" />
      <point x="240" y="631" type="qcurve" smooth="yes" />
      <point x="230" y="652" />
    </contour>
    <contour>
      <point x="326" y="677" type="qcurve" />
      <point x="326" y="656" />
      <point x="339" y="642" type="qcurve" smooth="yes" />
      <point x="351" y="628" />
      <point x="375" y="628" type="qcurve" smooth="yes" />
      <point x="399" y="628" />
      <point x="411" y="642" type="qcurve" smooth="yes" />
      <point x="423" y="656" />
      <point x="423" y="677" type="qcurve" smooth="yes" />
      <point x="423" y="697" />
      <point x="411" y="711" type="qcurve" smooth="yes" />
      <point x="399" y="725" />
      <point x="375" y="725" type="qcurve" smooth="yes" />
      <point x="351" y="725" />
      <point x="339" y="711" type="qcurve" smooth="yes" />
      <point x="326" y="697" />
    </contour>
  </outline>
</glyph>
<glyph name="ogonek" format="2">
	<advance width="516"/>
	<unicode hex="02DB"/>
	<note>
		ogonek
  </note>
	<outline>
		<contour>
			<point x="301" y="9" type="line"/>
			<point x="207" y="9" type="line"/>
			<point x="184" y="-3"/>
			<point x="170" y="-19" type="qcurve" smooth="yes"/>
			<point x="155" y="-36"/>
			<point x="145" y="-53" type="qcurve" smooth="yes"/>
			<point x="136" y="-72"/>
			<point x="132" y="-90" type="qcurve" smooth="yes"/>
			<point x="128" y="-108"/>
			<point x="128" y="-123" type="qcurve" smooth="yes"/>
			<point x="128" y="-149"/>
			<point x="139" y="-167" type="qcurve" smooth="yes"/>
			<point x="149" y="-185"/>
			<point x="167" y="-196" type="qcurve" smooth="yes"/>
			<point x="184" y="-207"/>
			<point x="208" y="-212" type="qcurve" smooth="yes"/>
			<point x="232" y="-217"/>
			<point x="259" y="-217" type="qcurve" smooth="yes"/>
			<point x="286" y="-217"/>
			<point x="308" y="-214" type="qcurve" smooth="yes"/>
			<point x="347" y="-208" type="line" smooth="yes"/>
			<point x="377" y="-201" type="line" smooth="yes"/>
			<point x="399" y="-195" type="line"/>
			<point x="399" y="-101" type="line"/>
			<point x="376" y="-110" type="line" smooth="yes"/>
			<point x="348" y="-118" type="line" smooth="yes"/>
			<point x="317" y="-124" type="line" smooth="yes"/>
			<point x="289" y="-127" type="line" smooth="yes"/>
			<point x="261" y="-127"/>
			<point x="248" y="-120" type="qcurve" smooth="yes"/>
			<point x="235" y="-112"/>
			<point x="235" y="-93" type="qcurve" smooth="yes"/>
			<point x="235" y="-68"/>
			<point x="253" y="-41" type="qcurve" smooth="yes"/>
			<point x="271" y="-13"/>
			<point x="301" y="9" type="qcurve"/>
		</contour>
	</outline>
</glyph>
<glyph name="hungarumlaut" format="2">
	<advance width="571"/>
	<unicode hex="02DD"/>
	<note>
		hungarumlaut
  </note>
	<outline>
		<contour>
			<point x="329" y="673" type="line"/>
			<point x="273" y="769" type="line"/>
			<point x="112" y="625" type="line"/>
			<point x="140" y="580" type="line"/>
		</contour>
		<contour>
			<point x="544" y="673" type="line"/>
			<point x="488" y="769" type="line"/>
			<point x="329" y="625" type="line"/>
			<point x="355" y="580" type="line"/>
		</contour>
	</outline>
</glyph>
<glyph name="uni0312" format="2">
	<advance width="196"/>
	<unicode hex="0312"/>
	<note>
		uni0312
  </note>
	<outline>
		<contour>
			<point x="91" y="682" type="line"/>
			<point x="28" y="481" type="line"/>
			<point x="127" y="481" type="line"/>
			<point x="164" y="682" type="line"/>
		</contour>
	</outline>
</glyph>
<glyph name="uni0315" format="2">
	<advance width="195"/>
	<unicode hex="0315"/>
	<note>
		uni0315
  </note>
	<outline>
		<contour>
			<point x="108" y="481" type="line"/>
			<point x="169" y="682" type="line"/>
			<point x="72" y="682" type="line"/>
			<point x="35" y="481" type="line"/>
		</contour>
	</outline>
</glyph>
<glyph name="uni0326" format="2">
	<advance width="191"/>
	<unicode hex="0326"/>
	<note>
		uni0326
  </note>
	<outline>
		<contour>
			<point x="95" y="-291" type="line"/>
			<point x="156" y="-90" type="line"/>
			<point x="58" y="-90" type="line"/>
			<point x="21" y="-291" type="line"/>
		</contour>
	</outline>
</glyph>
<glyph name="uni1e82" format="2">
	<advance width="749"/>
	<unicode hex="1E82"/>
	<note>
		uni1e82
  </note>
	<outline>
		<contour>
			<point x="751" y="717" type="line"/>
			<point x="619" y="717" type="line"/>
			<point x="533" y="244" type="line"/>
			<point x="424" y="571" type="line" smooth="yes"/>
			<point x="420" y="582"/>
			<point x="400" y="593" type="qcurve" smooth="yes"/>
			<point x="386" y="601"/>
			<point x="368" y="601" type="qcurve" smooth="yes"/>
			<point x="352" y="601"/>
			<point x="337" y="593" type="qcurve" smooth="yes"/>
			<point x="319" y="584"/>
			<point x="313" y="571" type="qcurve" smooth="yes"/>
			<point x="184" y="244" type="line"/>
			<point x="132" y="717" type="line"/>
			<point x="0" y="717" type="line"/>
			<point x="87" y="45" type="line" smooth="yes"/>
			<point x="89" y="20"/>
			<point x="108" y="6" type="qcurve" smooth="yes"/>
			<point x="128" y="-9"/>
			<point x="150" y="-9" type="qcurve" smooth="yes"/>
			<point x="167" y="-9"/>
			<point x="182" y="-1" type="qcurve" smooth="yes"/>
			<point x="200" y="8"/>
			<point x="205" y="21" type="qcurve" smooth="yes"/>
			<point x="368" y="412" type="line"/>
			<point x="512" y="21" type="line" smooth="yes"/>
			<point x="517" y="4"/>
			<point x="540" y="-4" type="qcurve" smooth="yes"/>
			<point x="555" y="-9"/>
			<point x="568" y="-9" type="qcurve" smooth="yes"/>
			<point x="579" y="-9" type="line" smooth="yes"/>
			<point x="599" y="-4"/>
			<point x="613" y="10" type="qcurve" smooth="yes"/>
			<point x="628" y="25"/>
			<point x="631" y="45" type="qcurve" smooth="yes"/>
		</contour>
		<contour>
			<point x="773" y="848" type="line"/>
			<point x="719" y="969" type="line"/>
			<point x="478" y="829" type="line"/>
			<point x="512" y="755" type="line"/>
		</contour>
	</outline>
</glyph>
<glyph name="endash" format="2">
	<advance width="525"/>
	<unicode hex="2013"/>
	<note>
		endash
  </note>
	<outline>
		<contour>
			<point x="468" y="300" type="line"/>
			<point x="468" y="417" type="line"/>
			<point x="58" y="417" type="line"/>
			<point x="58" y="300" type="line"/>
		</contour>
	</outline>
</glyph>
<glyph name="emdash" format="2">
	<advance width="935"/>
	<unicode hex="2014"/>
	<note>
		emdash
  </note>
	<outline>
		<contour>
			<point x="877" y="300" type="line"/>
			<point x="877" y="417" type="line"/>
			<point x="58" y="417" type="line"/>
			<point x="58" y="300" type="line"/>
		</contour>
	</outline>
</glyph>
<glyph name="quoteleft" format="2">
	<advance width="238"/>
	<unicode hex="2018"/>
	<note>
		quoteleft
  </note>
	<outline>
		<contour>
			<point x="110" y="687" type="line"/>
			<point x="32" y="435" type="line"/>
			<point x="156" y="435" type="line"/>
			<point x="201" y="687" type="line"/>
		</contour>
	</outline>
</glyph>
<glyph name="quoteright" format="2">
	<advance width="236"/>
	<unicode hex="2019"/>
	<note>
		quoteright
  </note>
	<outline>
		<contour>
			<point x="131" y="435" type="line"/>
			<point x="208" y="687" type="line"/>
			<point x="85" y="687" type="line"/>
			<point x="40" y="435" type="line"/>
		</contour>
	</outline>
</glyph>
<glyph name="quotedblleft" format="2">
	<advance width="422"/>
	<unicode hex="201C"/>
	<note>
		quotedblleft
  </note>
	<outline>
		<contour>
			<point x="110" y="687" type="line"/>
			<point x="32" y="435" type="line"/>
			<point x="156" y="435" type="line"/>
			<point x="201" y="687" type="line"/>
		</contour>
		<contour>
			<point x="295" y="687" type="line"/>
			<point x="216" y="435" type="line"/>
			<point x="340" y="435" type="line"/>
			<point x="385" y="687" type="line"/>
		</contour>
	</outline>
</glyph>
<glyph name="quotedblright" format="2">
	<advance width="420"/>
	<unicode hex="201D"/>
	<note>
		quotedblright
  </note>
	<outline>
		<contour>
			<point x="315" y="435" type="line"/>
			<point x="393" y="687" type="line"/>
			<point x="270" y="687" type="line"/>
			<point x="224" y="435" type="line"/>
		</contour>
		<contour>
			<point x="131" y="435" type="line"/>
			<point x="208" y="687" type="line"/>
			<point x="85" y="687" type="line"/>
			<point x="40" y="435" type="line"/>
		</contour>
	</outline>
</glyph>
<glyph name="quotedblbase" format="2">
	<advance width="415"/>
	<unicode hex="201E"/>
	<note>
		quotedblbase
  </note>
	<outline>
		<contour>
			<point x="299" y="-92" type="line"/>
			<point x="376" y="160" type="line"/>
			<point x="253" y="160" type="line"/>
			<point x="208" y="-92" type="line"/>
		</contour>
		<contour>
			<point x="115" y="-92" type="line"/>
			<point x="192" y="160" type="line"/>
			<point x="69" y="160" type="line"/>
			<point x="23" y="-92" type="line"/>
		</contour>
	</outline>
</glyph>
<glyph name="dagger" format="2">
	<advance width="432"/>
	<unicode hex="2020"/>
	<note>
		dagger
  </note>
	<outline>
		<contour>
			<point x="280" y="652" type="line"/>
			<point x="280" y="835" type="line"/>
			<point x="150" y="835" type="line"/>
			<point x="150" y="652" type="line"/>
			<point x="40" y="652" type="line"/>
			<point x="40" y="535" type="line"/>
			<point x="150" y="535" type="line"/>
			<point x="150" y="-118" type="line"/>
			<point x="280" y="-118" type="line"/>
			<point x="280" y="535" type="line"/>
			<point x="392" y="535" type="line"/>
			<point x="392" y="652" type="line"/>
		</contour>
	</outline>
</glyph>
<glyph name="daggerdbl" format="2">
	<advance width="449"/>
	<unicode hex="2021"/>
	<note>
		daggerdbl
  </note>
	<outline>
		<contour>
			<point x="289" y="652" type="line"/>
			<point x="289" y="835" type="line"/>
			<point x="160" y="835" type="line"/>
			<point x="160" y="652" type="line"/>
			<point x="49" y="652" type="line"/>
			<point x="49" y="535" type="line"/>
			<point x="160" y="535" type="line"/>
			<point x="160" y="183" type="line"/>
			<point x="49" y="183" type="line"/>
			<point x="49" y="65" type="line"/>
			<point x="160" y="65" type="line"/>
			<point x="160" y="-118" type="line"/>
			<point x="289" y="-118" type="line"/>
			<point x="289" y="65" type="line"/>
			<point x="401" y="65" type="line"/>
			<point x="401" y="183" type="line"/>
			<point x="289" y="183" type="line"/>
			<point x="289" y="535" type="line"/>
			<point x="401" y="535" type="line"/>
			<point x="401" y="652" type="line"/>
		</contour>
	</outline>
</glyph>
<glyph name="bullet" format="2">
  <advance width="750" />
  <unicode hex="2022" />
  <note>
		bullet
  </note>
  <outline>
    <contour>
      <point x="476" y="364" type="qcurve" />
      <point x="476" y="344" />
      <point x="468" y="325" type="qcurve" smooth="yes" />
      <point x="460" y="307" />
      <point x="446" y="293" type="qcurve" smooth="yes" />
      <point x="433" y="280" />
      <point x="414" y="272" type="qcurve" smooth="yes" />
      <point x="396" y="264" />
      <point x="376" y="264" type="qcurve" smooth="yes" />
      <point x="354" y="264" />
      <point x="336" y="272" type="qcurve" smooth="yes" />
      <point x="318" y="280" />
      <point x="305" y="293" type="qcurve" smooth="yes" />
      <point x="291" y="307" />
      <point x="283" y="325" type="qcurve" smooth="yes" />
      <point x="276" y="344" />
      <point x="276" y="364" type="qcurve" smooth="yes" />
      <point x="276" y="384" />
      <point x="283" y="402" type="qcurve" smooth="yes" />
      <point x="291" y="420" />
      <point x="305" y="434" type="qcurve" smooth="yes" />
      <point x="318" y="448" />
      <point x="336" y="456" type="qcurve" smooth="yes" />
      <point x="354" y="464" />
      <point x="376" y="464" type="qcurve" smooth="yes" />
      <point x="396" y="464" />
      <point x="414" y="456" type="qcurve" smooth="yes" />
      <point x="433" y="448" />
      <point x="446" y="434" type="qcurve" smooth="yes" />
      <point x="460" y="420" />
      <point x="468" y="402" type="qcurve" smooth="yes" />
      <point x="476" y="384" />
    </contour>
  </outline>
</glyph>
<glyph name="ellipsis" format="2">
  <advance width="750" />
  <unicode hex="2026" />
  <note>
		ellipsis
  </note>
  <outline>
    <contour>
      <point x="259" y="65" type="qcurve" />
      <point x="259" y="52" />
      <point x="254" y="40" type="qcurve" smooth="yes" />
      <point x="249" y="28" />
      <point x="240" y="20" type="qcurve" smooth="yes" />
      <point x="231" y="11" />
      <point x="220" y="6" type="qcurve" smooth="yes" />
      <point x="208" y="1" />
      <point x="195" y="1" type="qcurve" smooth="yes" />
      <point x="182" y="1" />
      <point x="170" y="6" type="qcurve" smooth="yes" />
      <point x="158" y="11" />
      <point x="149" y="20" type="qcurve" smooth="yes" />
      <point x="141" y="28" />
      <point x="136" y="40" type="qcurve" smooth="yes" />
      <point x="130" y="52" />
      <point x="130" y="65" type="qcurve" smooth="yes" />
      <point x="130" y="79" />
      <point x="136" y="90" type="qcurve" smooth="yes" />
      <point x="141" y="102" />
      <point x="149" y="111" type="qcurve" smooth="yes" />
      <point x="158" y="120" />
      <point x="170" y="125" type="qcurve" smooth="yes" />
      <point x="182" y="130" />
      <point x="195" y="130" type="qcurve" smooth="yes" />
      <point x="208" y="130" />
      <point x="220" y="125" type="qcurve" smooth="yes" />
      <point x="231" y="120" />
      <point x="240" y="111" type="qcurve" smooth="yes" />
      <point x="249" y="102" />
      <point x="254" y="90" type="qcurve" smooth="yes" />
      <point x="259" y="79" />
    </contour>
    <contour>
      <point x="440" y="65" type="qcurve" />
      <point x="440" y="52" />
      <point x="435" y="40" type="qcurve" smooth="yes" />
      <point x="430" y="28" />
      <point x="421" y="20" type="qcurve" smooth="yes" />
      <point x="412" y="11" />
      <point x="400" y="6" type="qcurve" smooth="yes" />
      <point x="389" y="1" />
      <point x="375" y="1" type="qcurve" smooth="yes" />
      <point x="362" y="1" />
      <point x="350" y="6" type="qcurve" smooth="yes" />
      <point x="338" y="11" />
      <point x="330" y="20" type="qcurve" smooth="yes" />
      <point x="321" y="28" />
      <point x="316" y="40" type="qcurve" smooth="yes" />
      <point x="311" y="52" />
      <point x="311" y="65" type="qcurve" smooth="yes" />
      <point x="311" y="79" />
      <point x="316" y="90" type="qcurve" smooth="yes" />
      <point x="321" y="102" />
      <point x="330" y="111" type="qcurve" smooth="yes" />
      <point x="338" y="120" />
      <point x="350" y="125" type="qcurve" smooth="yes" />
      <point x="362" y="130" />
      <point x="375" y="130" type="qcurve" smooth="yes" />
      <point x="389" y="130" />
      <point x="400" y="125" type="qcurve" smooth="yes" />
      <point x="412" y="120" />
      <point x="421" y="111" type="qcurve" smooth="yes" />
      <point x="430" y="102" />
      <point x="435" y="90" type="qcurve" smooth="yes" />
      <point x="440" y="79" />
    </contour>
    <contour>
      <point x="620" y="65" type="qcurve" />
      <point x="620" y="52" />
      <point x="615" y="40" type="qcurve" smooth="yes" />
      <point x="610" y="28" />
      <point x="601" y="20" type="qcurve" smooth="yes" />
      <point x="592" y="11" />
      <point x="580" y="6" type="qcurve" smooth="yes" />
      <point x="569" y="1" />
      <point x="555" y="1" type="qcurve" smooth="yes" />
      <point x="542" y="1" />
      <point x="530" y="6" type="qcurve" smooth="yes" />
      <point x="518" y="11" />
      <point x="510" y="20" type="qcurve" smooth="yes" />
      <point x="501" y="28" />
      <point x="496" y="40" type="qcurve" smooth="yes" />
      <point x="491" y="52" />
      <point x="491" y="65" type="qcurve" smooth="yes" />
      <point x="491" y="79" />
      <point x="496" y="90" type="qcurve" smooth="yes" />
      <point x="501" y="102" />
      <point x="510" y="111" type="qcurve" smooth="yes" />
      <point x="518" y="120" />
      <point x="530" y="125" type="qcurve" smooth="yes" />
      <point x="542" y="130" />
      <point x="555" y="130" type="qcurve" smooth="yes" />
      <point x="569" y="130" />
      <point x="580" y="125" type="qcurve" smooth="yes" />
      <point x="592" y="120" />
      <point x="601" y="111" type="qcurve" smooth="yes" />
      <point x="610" y="102" />
      <point x="615" y="90" type="qcurve" smooth="yes" />
      <point x="620" y="79" />
    </contour>
  </outline>
</glyph>
<glyph name="guilsinglleft" format="2">
	<advance width="447"/>
	<unicode hex="2039"/>
	<note>
		guilsinglleft
  </note>
	<outline>
		<contour>
			<point x="402" y="476" type="line"/>
			<point x="236" y="476" type="line"/>
			<point x="52" y="312" type="line" smooth="yes"/>
			<point x="43" y="303"/>
			<point x="38" y="291" type="qcurve" smooth="yes"/>
			<point x="32" y="280"/>
			<point x="32" y="268" type="qcurve" smooth="yes"/>
			<point x="32" y="240"/>
			<point x="53" y="223" type="qcurve" smooth="yes"/>
			<point x="233" y="65" type="line"/>
			<point x="401" y="65" type="line"/>
			<point x="169" y="268" type="line"/>
		</contour>
	</outline>
</glyph>
<glyph name="guilsinglright" format="2">
	<advance width="447"/>
	<unicode hex="203A"/>
	<note>
		guilsinglright
  </note>
	<outline>
		<contour>
			<point x="211" y="476" type="line"/>
			<point x="44" y="476" type="line"/>
			<point x="277" y="268" type="line"/>
			<point x="45" y="65" type="line"/>
			<point x="213" y="65" type="line"/>
			<point x="394" y="223" type="line" smooth="yes"/>
			<point x="415" y="241"/>
			<point x="415" y="268" type="qcurve" smooth="yes"/>
			<point x="415" y="280"/>
			<point x="409" y="291" type="qcurve" smooth="yes"/>
			<point x="404" y="303"/>
			<point x="395" y="312" type="qcurve" smooth="yes"/>
		</contour>
	</outline>
</glyph>
<glyph name="fraction" format="2">
	<advance width="521"/>
	<unicode hex="2044"/>
	<note>
		fraction
  </note>
	<outline>
		<contour>
			<point x="503" y="652" type="line"/>
			<point x="383" y="652" type="line"/>
			<point x="14" y="6" type="line"/>
			<point x="134" y="6" type="line"/>
		</contour>
	</outline>
</glyph>
<glyph name="uni20ac" format="2">
	<advance width="927"/>
	<unicode hex="20AC"/>
	<note>
		uni20ac
  </note>
	<outline>
		<contour>
			<point x="521" y="209" type="line"/>
			<point x="521" y="325" type="line"/>
			<point x="352" y="325" type="line"/>
			<point x="352" y="391" type="line"/>
			<point x="521" y="391" type="line"/>
			<point x="521" y="508" type="line"/>
			<point x="352" y="508" type="line"/>
			<point x="352" y="533" type="line" smooth="yes"/>
			<point x="352" y="560"/>
			<point x="365" y="574" type="qcurve" smooth="yes"/>
			<point x="379" y="587"/>
			<point x="404" y="587" type="qcurve" smooth="yes"/>
			<point x="873" y="587" type="line"/>
			<point x="873" y="717" type="line"/>
			<point x="404" y="717" type="line" smooth="yes"/>
			<point x="371" y="717"/>
			<point x="344" y="708" type="qcurve" smooth="yes"/>
			<point x="317" y="700"/>
			<point x="297" y="685" type="qcurve" smooth="yes"/>
			<point x="276" y="672"/>
			<point x="262" y="653" type="qcurve" smooth="yes"/>
			<point x="248" y="635"/>
			<point x="239" y="614" type="qcurve" smooth="yes"/>
			<point x="229" y="594"/>
			<point x="225" y="573" type="qcurve" smooth="yes"/>
			<point x="221" y="552"/>
			<point x="221" y="535" type="qcurve" smooth="yes"/>
			<point x="221" y="508" type="line"/>
			<point x="52" y="508" type="line"/>
			<point x="52" y="391" type="line"/>
			<point x="221" y="391" type="line"/>
			<point x="221" y="325" type="line"/>
			<point x="52" y="325" type="line"/>
			<point x="52" y="209" type="line"/>
			<point x="221" y="209" type="line"/>
			<point x="221" y="183" type="line" smooth="yes"/>
			<point x="221" y="132"/>
			<point x="239" y="97" type="qcurve" smooth="yes"/>
			<point x="257" y="63"/>
			<point x="285" y="40" type="qcurve" smooth="yes"/>
			<point x="312" y="19"/>
			<point x="344" y="10" type="qcurve" smooth="yes"/>
			<point x="376" y="0"/>
			<point x="404" y="0" type="qcurve" smooth="yes"/>
			<point x="873" y="0" type="line"/>
			<point x="873" y="130" type="line"/>
			<point x="404" y="130" type="line" smooth="yes"/>
			<point x="381" y="130"/>
			<point x="366" y="144" type="qcurve" smooth="yes"/>
			<point x="352" y="159"/>
			<point x="352" y="183" type="qcurve" smooth="yes"/>
			<point x="352" y="209" type="line"/>
		</contour>
	</outline>
</glyph>
